SplineFontDB: 3.0
FontName: Gruppo
FullName: Gruppo
FamilyName: Gruppo
Weight: Light
Copyright: Copyright (c) 2010 by copyright \\(c\\) vernon adams. All rights reserved.
Version: 1.000
ItalicAngle: 0
UnderlinePosition: -232
UnderlineWidth: 41
Ascent: 1638
Descent: 410
LayerCount: 2
Layer: 0 1 "Back"  1
Layer: 1 1 "Fore"  0
XUID: [1021 423 1553708084 7277199]
FSType: 0
OS2Version: 2
OS2_WeightWidthSlopeOnly: 0
OS2_UseTypoMetrics: 1
CreationTime: 1292428925
ModificationTime: 1296004628
PfmFamily: 33
TTFWeight: 300
TTFWidth: 5
LineGap: 0
VLineGap: 0
Panose: 2 0 6 4 6 0 0 2 0 4
OS2TypoAscent: 1527
OS2TypoAOffset: 0
OS2TypoDescent: -507
OS2TypoDOffset: 0
OS2TypoLinegap: 0
OS2WinAscent: 1527
OS2WinAOffset: 0
OS2WinDescent: 507
OS2WinDOffset: 0
HheadAscent: 1527
HheadAOffset: 0
HheadDescent: -507
HheadDOffset: 0
OS2SubXSize: 1434
OS2SubYSize: 1331
OS2SubXOff: 0
OS2SubYOff: 287
OS2SupXSize: 1434
OS2SupYSize: 1331
OS2SupXOff: 0
OS2SupYOff: 977
OS2StrikeYSize: 102
OS2StrikeYPos: 512
OS2Vendor: '    '
OS2CodePages: 00000013.00000000
OS2UnicodeRanges: a000002f.0000004a.00000000.00000000
Lookup: 1 0 0 "'aalt' Access All Alternates in Latin lookup 0"  {"'aalt' Access All Alternates in Latin lookup 0 subtable"  } ['aalt' ('latn' <'dflt' > ) ]
Lookup: 1 0 0 "'onum' Oldstyle Figures in Latin lookup 1"  {"'onum' Oldstyle Figures in Latin lookup 1 subtable" ("oldstyle" ) } ['onum' ('latn' <'dflt' > ) ]
Lookup: 4 0 1 "'liga' Standard Ligatures in Latin lookup 2"  {"'liga' Standard Ligatures in Latin lookup 2 subtable"  } ['liga' ('latn' <'dflt' > ) ]
Lookup: 258 0 0 "'kern' Horizontal Kerning in Latin lookup 0"  {"'kern' Horizontal Kerning in Latin lookup 0 per glyph data 0"  "'kern' Horizontal Kerning in Latin lookup 0 kerning class 1"  } ['kern' ('latn' <'dflt' > ) ]
MarkAttachClasses: 1
DEI: 91125
KernClass2: 78+ 70 "'kern' Horizontal Kerning in Latin lookup 0 kerning class 1" 
 9 ampersand
 20 quotedbl quotesingle
 9 parenleft
 8 asterisk
 5 comma
 6 hyphen
 6 period
 5 slash

StartChar: exclam
Encoding: 33 33 8
Width: 330
GlyphClass: 2
Flags: W
HStem: -10 115<124.502 207.951>
VStem: 108 118<5.98669 87.9821 747.995 1098.14> 140 49<228.736 614.224>
LayerCount: 2
Fore
SplineSet
108 1065 m 2,0,1
 108 1090 108 1090 125.5 1100 c 128,-1,2
 143 1110 143 1110 164 1110 c 0,3,4
 186 1110 186 1110 203.5 1098.5 c 128,-1,5
 221 1087 221 1087 221 1063 c 2,6,-1
 189 250 l 2,7,8
 188 236 188 236 181 228.5 c 128,-1,9
 174 221 174 221 164 221 c 0,10,11
 155 221 155 221 148 228.5 c 128,-1,12
 141 236 141 236 140 250 c 0,13,14
 132 453 132 453 126.5 592.5 c 128,-1,15
 121 732 121 732 117.5 822.5 c 128,-1,16
 114 913 114 913 112 962 c 128,-1,17
 110 1011 110 1011 109 1034 c 128,-1,18
 108 1057 108 1057 108 1061 c 128,-1,19
 108 1065 108 1065 108 1065 c 2,0,1
108 46 m 0,20,21
 108 72 108 72 124 88.5 c 128,-1,22
 140 105 140 105 166 105 c 0,23,24
 191 105 191 105 208.5 88.5 c 128,-1,25
 226 72 226 72 226 46 c 0,26,27
 226 21 226 21 208.5 5.5 c 128,-1,28
 191 -10 191 -10 166 -10 c 0,29,30
 140 -10 140 -10 124 5.5 c 128,-1,31
 108 21 108 21 108 46 c 0,20,21
EndSplineSet
EndChar

StartChar: numbersign
Encoding: 35 35 10
Width: 758
GlyphClass: 2
Flags: W
HStem: 0 21G<161.5 180 400.5 419> 353 66<62.0166 655.959> 650 67<101.004 694.928> 1094 20G<340.5 360 580 599>
VStem: 142 56.5<8.25122 150.469> 320 56<962.438 1105.23> 381 56.5<8.25122 150.469> 559.5 56.5<962.438 1104.2>
LayerCount: 2
Fore
SplineSet
159 650 m 2,0,1
 135 650 135 650 118 656 c 128,-1,2
 101 662 101 662 101 683 c 0,3,4
 101 707 101 707 118 712 c 128,-1,5
 135 717 135 717 158 717 c 2,6,-1
 635 717 l 2,7,8
 659 717 659 717 677 711.5 c 128,-1,9
 695 706 695 706 695 681 c 0,10,11
 695 661 695 661 676.5 655.5 c 128,-1,12
 658 650 658 650 636 650 c 2,13,-1
 159 650 l 2,0,1
211 58 m 2,14,15
 207 34 207 34 198.5 17 c 128,-1,16
 190 0 190 0 170 0 c 0,17,18
 153 0 153 0 147.5 8 c 128,-1,19
 142 16 142 16 142 29 c 256,20,21
 142 42 142 42 145 57 c 2,22,-1
 308 1054 l 2,23,24
 312 1079 312 1079 320 1096.5 c 128,-1,25
 328 1114 328 1114 353 1114 c 0,26,27
 367 1114 367 1114 371.5 1105.5 c 128,-1,28
 376 1097 376 1097 376 1083 c 0,29,30
 376 1077 376 1077 375.5 1070 c 128,-1,31
 375 1063 375 1063 374 1056 c 2,32,-1
 211 58 l 2,14,15
450 58 m 2,33,34
 446 34 446 34 437.5 17 c 128,-1,35
 429 0 429 0 409 0 c 0,36,37
 392 0 392 0 386.5 8 c 128,-1,38
 381 16 381 16 381 29 c 256,39,40
 381 42 381 42 384 57 c 2,41,-1
 547 1054 l 2,42,43
 551 1079 551 1079 559.5 1096.5 c 128,-1,44
 568 1114 568 1114 592 1114 c 0,45,46
 606 1114 606 1114 611 1104.5 c 128,-1,47
 616 1095 616 1095 616 1081 c 0,48,49
 616 1075 616 1075 615.5 1069 c 128,-1,50
 615 1063 615 1063 614 1056 c 2,51,-1
 450 58 l 2,33,34
120 353 m 2,52,53
 96 353 96 353 79 359 c 128,-1,54
 62 365 62 365 62 385 c 0,55,56
 62 397 62 397 66.5 404 c 128,-1,57
 71 411 71 411 79 414.5 c 128,-1,58
 87 418 87 418 97.5 418.5 c 128,-1,59
 108 419 108 419 119 419 c 2,60,-1
 596 419 l 2,61,62
 620 419 620 419 638 413.5 c 128,-1,63
 656 408 656 408 656 384 c 0,64,65
 656 363 656 363 637.5 358 c 128,-1,66
 619 353 619 353 597 353 c 2,67,-1
 120 353 l 2,52,53
EndSplineSet
EndChar

StartChar: dollar
Encoding: 36 36 11
Width: 1447
GlyphClass: 2
Flags: W
HStem: -20 66<436.859 1089.01> 557 71<326.872 846.501> 971 65<1186.61 1280.2> 1069 66<377.014 1025.09>
VStem: 73 85<724.623 938.783> 514 72<-132.988 1295.99> 849 72<-132.988 1295.99> 1305 85<183.623 422.859>
LayerCount: 2
Fore
SplineSet
1390 311 m 0,0,1
 1390 247 1390 247 1367 197.5 c 128,-1,2
 1344 148 1344 148 1303 111.5 c 128,-1,3
 1262 75 1262 75 1205.5 49.5 c 128,-1,4
 1149 24 1149 24 1083 8.5 c 128,-1,5
 1017 -7 1017 -7 942.5 -13.5 c 128,-1,6
 868 -20 868 -20 792 -20 c 0,7,8
 685 -20 685 -20 579 -9 c 128,-1,9
 473 2 473 2 381 18.5 c 128,-1,10
 289 35 289 35 218.5 54 c 128,-1,11
 148 73 148 73 112 90 c 0,12,13
 98 97 98 97 91.5 107.5 c 128,-1,14
 85 118 85 118 85 129 c 0,15,16
 85 141 85 141 91.5 149.5 c 128,-1,17
 98 158 98 158 111 158 c 0,18,19
 117 158 117 158 125 155 c 0,20,21
 164 139 164 139 237 120 c 128,-1,22
 310 101 310 101 402.5 84.5 c 128,-1,23
 495 68 495 68 599.5 57 c 128,-1,24
 704 46 704 46 807 46 c 0,25,26
 907 46 907 46 997 59 c 128,-1,27
 1087 72 1087 72 1155.5 103 c 128,-1,28
 1224 134 1224 134 1264.5 185 c 128,-1,29
 1305 236 1305 236 1305 311 c 0,30,31
 1305 374 1305 374 1270.5 414.5 c 128,-1,32
 1236 455 1236 455 1177 479.5 c 128,-1,33
 1118 504 1118 504 1039 516.5 c 128,-1,34
 960 529 960 529 871.5 535.5 c 128,-1,35
 783 542 783 542 689 545.5 c 128,-1,36
 595 549 595 549 506.5 557 c 128,-1,37
 418 565 418 565 339 580 c 128,-1,38
 260 595 260 595 201 624 c 128,-1,39
 142 653 142 653 107.5 699 c 128,-1,40
 73 745 73 745 73 815 c 0,41,42
 73 879 73 879 97 928 c 128,-1,43
 121 977 121 977 163 1012.5 c 128,-1,44
 205 1048 205 1048 262.5 1071.5 c 128,-1,45
 320 1095 320 1095 387.5 1109 c 128,-1,46
 455 1123 455 1123 529 1129 c 128,-1,47
 603 1135 603 1135 679 1135 c 0,48,49
 771 1135 771 1135 861.5 1126.5 c 128,-1,50
 952 1118 952 1118 1031 1104 c 128,-1,51
 1110 1090 1110 1090 1173 1072 c 128,-1,52
 1236 1054 1236 1054 1274 1036 c 0,53,54
 1282 1032 1282 1032 1286 1024.5 c 128,-1,55
 1290 1017 1290 1017 1290 1009 c 0,56,57
 1290 995 1290 995 1280.5 983 c 128,-1,58
 1271 971 1271 971 1254 971 c 0,59,60
 1245 971 1245 971 1237 975 c 0,61,62
 1184 997 1184 997 1119.5 1014.5 c 128,-1,63
 1055 1032 1055 1032 983 1044 c 128,-1,64
 911 1056 911 1056 834.5 1062.5 c 128,-1,65
 758 1069 758 1069 683 1069 c 0,66,67
 579 1069 579 1069 484 1057 c 128,-1,68
 389 1045 389 1045 316.5 1016.5 c 128,-1,69
 244 988 244 988 201 940.5 c 128,-1,70
 158 893 158 893 158 821 c 0,71,72
 158 766 158 766 192.5 731.5 c 128,-1,73
 227 697 227 697 286 676 c 128,-1,74
 345 655 345 655 424 644.5 c 128,-1,75
 503 634 503 634 591.5 628 c 128,-1,76
 680 622 680 622 774 617.5 c 128,-1,77
 868 613 868 613 956.5 602.5 c 128,-1,78
 1045 592 1045 592 1124 573.5 c 128,-1,79
 1203 555 1203 555 1262 522 c 128,-1,80
 1321 489 1321 489 1355.5 437.5 c 128,-1,81
 1390 386 1390 386 1390 311 c 0,0,1
586 -63 m 2,82,83
 586 -78 586 -78 585.5 -90.5 c 128,-1,84
 585 -103 585 -103 581.5 -112.5 c 128,-1,85
 578 -122 578 -122 571 -127.5 c 128,-1,86
 564 -133 564 -133 551 -133 c 0,87,88
 537 -133 537 -133 529.5 -128 c 128,-1,89
 522 -123 522 -123 518.5 -114 c 128,-1,90
 515 -105 515 -105 514.5 -94 c 128,-1,91
 514 -83 514 -83 514 -71 c 2,92,-1
 514 1230 l 2,93,94
 514 1243 514 1243 514.5 1255 c 128,-1,95
 515 1267 515 1267 518.5 1276 c 128,-1,96
 522 1285 522 1285 529.5 1290.5 c 128,-1,97
 537 1296 537 1296 551 1296 c 0,98,99
 564 1296 564 1296 571 1290 c 128,-1,100
 578 1284 578 1284 581.5 1274.5 c 128,-1,101
 585 1265 585 1265 585.5 1252.5 c 128,-1,102
 586 1240 586 1240 586 1227 c 2,103,-1
 586 -63 l 2,82,83
921 -63 m 2,104,105
 921 -78 921 -78 920.5 -90.5 c 128,-1,106
 920 -103 920 -103 916.5 -112.5 c 128,-1,107
 913 -122 913 -122 906 -127.5 c 128,-1,108
 899 -133 899 -133 886 -133 c 0,109,110
 872 -133 872 -133 864.5 -128 c 128,-1,111
 857 -123 857 -123 853.5 -114 c 128,-1,112
 850 -105 850 -105 849.5 -94 c 128,-1,113
 849 -83 849 -83 849 -71 c 2,114,-1
 849 1230 l 2,115,116
 849 1243 849 1243 849.5 1255 c 128,-1,117
 850 1267 850 1267 853.5 1276 c 128,-1,118
 857 1285 857 1285 864.5 1290.5 c 128,-1,119
 872 1296 872 1296 886 1296 c 0,120,121
 899 1296 899 1296 906 1290 c 128,-1,122
 913 1284 913 1284 916.5 1274.5 c 128,-1,123
 920 1265 920 1265 920.5 1252.5 c 128,-1,124
 921 1240 921 1240 921 1227 c 2,125,-1
 921 -63 l 2,104,105
EndSplineSet
EndChar

StartChar: percent
Encoding: 37 37 12
Width: 1268
GlyphClass: 2
Flags: W
HStem: 106 63<856.474 1063.47> 522 67<853.694 1066.23> 562 63<209.338 414.47> 978 67<205.864 417.227>
VStem: 60 68<700.45 902.656> 494 70<698.923 904.195> 707 70<241.831 449.295> 777.5 65.5<1083.84 1166.2> 1143 70<242.923 448.195>
LayerCount: 2
Fore
SplineSet
707 347 m 256,0,1
 707 396 707 396 727 440 c 128,-1,2
 747 484 747 484 781.5 517 c 128,-1,3
 816 550 816 550 862.5 569.5 c 128,-1,4
 909 589 909 589 961 589 c 256,5,6
 1013 589 1013 589 1059 569.5 c 128,-1,7
 1105 550 1105 550 1139 517 c 128,-1,8
 1173 484 1173 484 1193 440 c 128,-1,9
 1213 396 1213 396 1213 347 c 256,10,11
 1213 298 1213 298 1193 254 c 128,-1,12
 1173 210 1173 210 1139 177 c 128,-1,13
 1105 144 1105 144 1059 125 c 128,-1,14
 1013 106 1013 106 961 106 c 256,15,16
 909 106 909 106 862.5 125 c 128,-1,17
 816 144 816 144 781.5 177 c 128,-1,18
 747 210 747 210 727 254 c 128,-1,19
 707 298 707 298 707 347 c 256,0,1
777 345 m 256,20,21
 777 309 777 309 791 277 c 128,-1,22
 805 245 805 245 830 221 c 128,-1,23
 855 197 855 197 888.5 183 c 128,-1,24
 922 169 922 169 961 169 c 0,25,26
 998 169 998 169 1031.5 183 c 128,-1,27
 1065 197 1065 197 1089.5 221 c 128,-1,28
 1114 245 1114 245 1128.5 277 c 128,-1,29
 1143 309 1143 309 1143 345 c 256,30,31
 1143 381 1143 381 1128.5 413.5 c 128,-1,32
 1114 446 1114 446 1089.5 470 c 128,-1,33
 1065 494 1065 494 1031.5 508 c 128,-1,34
 998 522 998 522 961 522 c 0,35,36
 922 522 922 522 888.5 508 c 128,-1,37
 855 494 855 494 830 470 c 128,-1,38
 805 446 805 446 791 413.5 c 128,-1,39
 777 381 777 381 777 345 c 256,20,21
60 803 m 256,40,41
 60 852 60 852 80 896 c 128,-1,42
 100 940 100 940 134 973 c 128,-1,43
 168 1006 168 1006 214 1025.5 c 128,-1,44
 260 1045 260 1045 312 1045 c 256,45,46
 364 1045 364 1045 410 1025.5 c 128,-1,47
 456 1006 456 1006 490 973 c 128,-1,48
 524 940 524 940 544 896 c 128,-1,49
 564 852 564 852 564 803 c 256,50,51
 564 754 564 754 544 710 c 128,-1,52
 524 666 524 666 490 633 c 128,-1,53
 456 600 456 600 410 581 c 128,-1,54
 364 562 364 562 312 562 c 256,55,56
 260 562 260 562 214 581 c 128,-1,57
 168 600 168 600 134 633 c 128,-1,58
 100 666 100 666 80 710 c 128,-1,59
 60 754 60 754 60 803 c 256,40,41
128 801 m 256,60,61
 128 765 128 765 142.5 733 c 128,-1,62
 157 701 157 701 182.5 677 c 128,-1,63
 208 653 208 653 241 639 c 128,-1,64
 274 625 274 625 312 625 c 0,65,66
 349 625 349 625 382.5 639 c 128,-1,67
 416 653 416 653 440.5 677 c 128,-1,68
 465 701 465 701 479.5 733 c 128,-1,69
 494 765 494 765 494 801 c 256,70,71
 494 837 494 837 479.5 869.5 c 128,-1,72
 465 902 465 902 440.5 926 c 128,-1,73
 416 950 416 950 382.5 964 c 128,-1,74
 349 978 349 978 312 978 c 0,75,76
 274 978 274 978 241 964 c 128,-1,77
 208 950 208 950 182.5 926 c 128,-1,78
 157 902 157 902 142.5 869.5 c 128,-1,79
 128 837 128 837 128 801 c 256,60,61
421 4 m 1,80,81
 410 -19 410 -19 402 -36 c 128,-1,82
 394 -53 394 -53 376 -53 c 0,83,84
 356 -53 356 -53 347.5 -42 c 128,-1,85
 339 -31 339 -31 339 -20 c 256,86,87
 339 -9 339 -9 342.5 1.5 c 128,-1,88
 346 12 346 12 351 25 c 2,89,-1
 761 1118 l 1,90,91
 768 1141 768 1141 777.5 1158.5 c 128,-1,92
 787 1176 787 1176 810 1176 c 0,93,94
 829 1176 829 1176 836 1166.5 c 128,-1,95
 843 1157 843 1157 843 1145 c 0,96,97
 843 1134 843 1134 840.5 1122 c 128,-1,98
 838 1110 838 1110 833 1098 c 2,99,-1
 421 4 l 1,80,81
EndSplineSet
EndChar

StartChar: ampersand
Encoding: 38 38 13
Width: 1164
GlyphClass: 2
Flags: W
HStem: -18 66<277.261 615.208 822.068 1042.49> 636 59<319.004 675 755 949.776> 1085 59<343.803 619.109>
VStem: 58 76<176.789 493.77> 181 70<787.801 1006.79> 675 80<123.94 636 695 878.264>
LayerCount: 2
Fore
SplineSet
134 331 m 0,0,1
 134 254 134 254 159 200.5 c 128,-1,2
 184 147 184 147 226 113 c 128,-1,3
 268 79 268 79 322.5 63.5 c 128,-1,4
 377 48 377 48 436 48 c 0,5,6
 507 48 507 48 576.5 68 c 128,-1,7
 646 88 646 88 702 123 c 1,8,9
 689 153 689 153 682 192 c 128,-1,10
 675 231 675 231 675 279 c 2,11,-1
 675 636 l 1,12,-1
 364 636 l 1,13,14
 311 619 311 619 268.5 594 c 128,-1,15
 226 569 226 569 196 532.5 c 128,-1,16
 166 496 166 496 150 446.5 c 128,-1,17
 134 397 134 397 134 331 c 0,0,1
471 1085 m 0,18,19
 423 1085 423 1085 382.5 1072 c 128,-1,20
 342 1059 342 1059 313 1035 c 128,-1,21
 284 1011 284 1011 267.5 978 c 128,-1,22
 251 945 251 945 251 905 c 0,23,24
 251 873 251 873 260.5 844.5 c 128,-1,25
 270 816 270 816 285 789.5 c 128,-1,26
 300 763 300 763 319 739.5 c 128,-1,27
 338 716 338 716 358 695 c 1,28,-1
 675 695 l 1,29,-1
 675 855 l 2,30,31
 675 871 675 871 687.5 878.5 c 128,-1,32
 700 886 700 886 715 886 c 256,33,34
 730 886 730 886 742.5 878.5 c 128,-1,35
 755 871 755 871 755 855 c 2,36,-1
 755 695 l 1,37,-1
 916 695 l 2,38,39
 943 695 943 695 950 687.5 c 128,-1,40
 957 680 957 680 957 666 c 0,41,42
 957 655 957 655 950 645.5 c 128,-1,43
 943 636 943 636 916 636 c 2,44,-1
 755 636 l 1,45,-1
 755 279 l 2,46,47
 755 206 755 206 770 161 c 128,-1,48
 785 116 785 116 810.5 91 c 128,-1,49
 836 66 836 66 870.5 57.5 c 128,-1,50
 905 49 905 49 944 49 c 0,51,52
 977 49 977 49 1006 60.5 c 128,-1,53
 1035 72 1035 72 1058.5 86.5 c 128,-1,54
 1082 101 1082 101 1098.5 112.5 c 128,-1,55
 1115 124 1115 124 1123 124 c 0,56,57
 1133 124 1133 124 1139 117 c 128,-1,58
 1145 110 1145 110 1145 100 c 0,59,60
 1145 87 1145 87 1126.5 68.5 c 128,-1,61
 1108 50 1108 50 1078 32.5 c 128,-1,62
 1048 15 1048 15 1009 2.5 c 128,-1,63
 970 -10 970 -10 930 -10 c 0,64,65
 870 -10 870 -10 820.5 7.5 c 128,-1,66
 771 25 771 25 736 67 c 1,67,68
 667 25 667 25 589.5 3.5 c 128,-1,69
 512 -18 512 -18 434 -18 c 0,70,71
 360 -18 360 -18 292 2.5 c 128,-1,72
 224 23 224 23 172 65.5 c 128,-1,73
 120 108 120 108 89 173 c 128,-1,74
 58 238 58 238 58 327 c 0,75,76
 58 380 58 380 69.5 423.5 c 128,-1,77
 81 467 81 467 99.5 501 c 128,-1,78
 118 535 118 535 141.5 561 c 128,-1,79
 165 587 165 587 190 606 c 0,80,81
 248 650 248 650 322 671 c 1,82,83
 282 691 282 691 251 724 c 0,84,85
 225 752 225 752 203 797.5 c 128,-1,86
 181 843 181 843 181 909 c 0,87,88
 181 964 181 964 204.5 1008 c 128,-1,89
 228 1052 228 1052 266.5 1082 c 128,-1,90
 305 1112 305 1112 354.5 1128 c 128,-1,91
 404 1144 404 1144 457 1144 c 0,92,93
 532 1144 532 1144 580.5 1132.5 c 128,-1,94
 629 1121 629 1121 657.5 1106.5 c 128,-1,95
 686 1092 686 1092 697 1078 c 128,-1,96
 708 1064 708 1064 708 1058 c 0,97,98
 708 1047 708 1047 701 1037 c 128,-1,99
 694 1027 694 1027 682 1027 c 0,100,101
 674 1027 674 1027 670 1029.5 c 128,-1,102
 666 1032 666 1032 661 1035 c 0,103,104
 650 1041 650 1041 633 1049.5 c 128,-1,105
 616 1058 616 1058 592.5 1066 c 128,-1,106
 569 1074 569 1074 538.5 1079.5 c 128,-1,107
 508 1085 508 1085 471 1085 c 0,18,19
EndSplineSet
EndChar

StartChar: quotesingle
Encoding: 39 39 14
Width: 246
GlyphClass: 2
Flags: W
HStem: 889 246<105.766 139.75>
VStem: 74 97<1090.5 1125.72>
LayerCount: 2
Fore
SplineSet
85 1004 m 2,0,1
 83 1022 83 1022 81 1038.5 c 128,-1,2
 79 1055 79 1055 77.5 1068.5 c 128,-1,3
 76 1082 76 1082 75 1090.5 c 128,-1,4
 74 1099 74 1099 74 1099 c 1,5,6
 74 1117 74 1117 88.5 1126 c 128,-1,7
 103 1135 103 1135 123 1135 c 256,8,9
 143 1135 143 1135 157 1126 c 128,-1,10
 171 1117 171 1117 171 1099 c 1,11,12
 171 1099 171 1099 170 1090.5 c 128,-1,13
 169 1082 169 1082 167.5 1068.5 c 128,-1,14
 166 1055 166 1055 164 1038.5 c 128,-1,15
 162 1022 162 1022 160 1004 c 0,16,17
 155 963 155 963 149 910 c 0,18,19
 148 899 148 899 140 894 c 128,-1,20
 132 889 132 889 123 889 c 256,21,22
 114 889 114 889 105.5 894 c 128,-1,23
 97 899 97 899 97 910 c 1,24,-1
 85 1004 l 2,0,1
EndSplineSet
EndChar

StartChar: parenleft
Encoding: 40 40 15
Width: 444
GlyphClass: 2
Flags: W
HStem: -177 64<362.175 505.233> 1217 64<362.175 505.233>
VStem: 70 78<210.448 892.77>
LayerCount: 2
Fore
SplineSet
70 551 m 0,0,1
 70 642 70 642 80 732 c 128,-1,2
 90 822 90 822 111.5 903 c 128,-1,3
 133 984 133 984 166 1053 c 128,-1,4
 199 1122 199 1122 244.5 1173 c 128,-1,5
 290 1224 290 1224 349 1252.5 c 128,-1,6
 408 1281 408 1281 481 1281 c 0,7,8
 497 1281 497 1281 505.5 1271 c 128,-1,9
 514 1261 514 1261 514 1249 c 128,-1,10
 514 1237 514 1237 505.5 1227 c 128,-1,11
 497 1217 497 1217 481 1217 c 0,12,13
 390 1217 390 1217 326.5 1160 c 128,-1,14
 263 1103 263 1103 223.5 1009.5 c 128,-1,15
 184 916 184 916 166 796.5 c 128,-1,16
 148 677 148 677 148 552 c 256,17,18
 148 427 148 427 166 307.5 c 128,-1,19
 184 188 184 188 223.5 94.5 c 128,-1,20
 263 1 263 1 326.5 -56 c 128,-1,21
 390 -113 390 -113 481 -113 c 0,22,23
 497 -113 497 -113 505.5 -123 c 128,-1,24
 514 -133 514 -133 514 -145 c 128,-1,25
 514 -157 514 -157 505.5 -167 c 128,-1,26
 497 -177 497 -177 481 -177 c 0,27,28
 408 -177 408 -177 349 -148.5 c 128,-1,29
 290 -120 290 -120 244.5 -69.5 c 128,-1,30
 199 -19 199 -19 166 50 c 128,-1,31
 133 119 133 119 111.5 199.5 c 128,-1,32
 90 280 90 280 80 369.5 c 128,-1,33
 70 459 70 459 70 551 c 0,0,1
EndSplineSet
EndChar

StartChar: parenright
Encoding: 41 41 16
Width: 444
GlyphClass: 2
Flags: W
HStem: -177 64<-61.7478 81.8253> 1217 64<-61.7478 81.8253>
VStem: 296 78<210.449 892.77>
LayerCount: 2
Fore
SplineSet
374 551 m 256,0,1
 374 460 374 460 364 370 c 128,-1,2
 354 280 354 280 332.5 199.5 c 128,-1,3
 311 119 311 119 278 50 c 128,-1,4
 245 -19 245 -19 199.5 -69.5 c 128,-1,5
 154 -120 154 -120 95 -148.5 c 128,-1,6
 36 -177 36 -177 -37 -177 c 0,7,8
 -54 -177 -54 -177 -62 -167 c 128,-1,9
 -70 -157 -70 -157 -70 -145 c 128,-1,10
 -70 -133 -70 -133 -62 -123 c 128,-1,11
 -54 -113 -54 -113 -37 -113 c 0,12,13
 54 -113 54 -113 117.5 -56 c 128,-1,14
 181 1 181 1 220.5 94.5 c 128,-1,15
 260 188 260 188 278 307.5 c 128,-1,16
 296 427 296 427 296 552 c 256,17,18
 296 677 296 677 278 796.5 c 128,-1,19
 260 916 260 916 220.5 1009.5 c 128,-1,20
 181 1103 181 1103 117.5 1160 c 128,-1,21
 54 1217 54 1217 -37 1217 c 0,22,23
 -54 1217 -54 1217 -62 1227 c 128,-1,24
 -70 1237 -70 1237 -70 1249 c 128,-1,25
 -70 1261 -70 1261 -62 1271 c 128,-1,26
 -54 1281 -54 1281 -37 1281 c 0,27,28
 36 1281 36 1281 95 1252.5 c 128,-1,29
 154 1224 154 1224 199.5 1173 c 128,-1,30
 245 1122 245 1122 278 1053 c 128,-1,31
 311 984 311 984 332.5 903 c 128,-1,32
 354 822 354 822 364 732 c 128,-1,33
 374 642 374 642 374 551 c 256,0,1
EndSplineSet
EndChar

StartChar: asterisk
Encoding: 42 42 17
Width: 868
GlyphClass: 2
Flags: W
HStem: 635.5 71.5<79.4712 381 485 801.967>
VStem: 224.5 53<969.005 990.759> 248.5 55.5<333.543 373.438> 563.5 55<967.469 1006.3> 590 52.5<341.407 370.995>
LayerCount: 2
Fore
SplineSet
542 979 m 2,0,1
 553 1001 553 1001 563.5 1012.5 c 128,-1,2
 574 1024 574 1024 598 1012 c 1,3,4
 621 1002 621 1002 618.5 986.5 c 128,-1,5
 616 971 616 971 605 949 c 2,6,-1
 480 699 l 1,7,-1
 746 705 l 2,8,9
 772 705 772 705 787 700.5 c 128,-1,10
 802 696 802 696 802 669 c 0,11,12
 802 656 802 656 798.5 649 c 128,-1,13
 795 642 795 642 787.5 638.5 c 128,-1,14
 780 635 780 635 770.5 634.5 c 128,-1,15
 761 634 761 634 749 634 c 2,16,-1
 485 641 l 1,17,-1
 627 406 l 1,18,19
 639 384 639 384 642.5 369 c 128,-1,20
 646 354 646 354 625 341 c 0,21,22
 602 328 602 328 590 338 c 128,-1,23
 578 348 578 348 565 371 c 2,24,-1
 436 606 l 1,25,-1
 325 362 l 2,26,27
 314 339 314 339 304 327.5 c 128,-1,28
 294 316 294 316 271 327 c 0,29,30
 246 338 246 338 248.5 353.5 c 128,-1,31
 251 369 251 369 262 391 c 2,32,-1
 387 641 l 1,33,-1
 121 635 l 2,34,35
 108 635 108 635 98 635.5 c 128,-1,36
 88 636 88 636 80.5 639 c 128,-1,37
 73 642 73 642 69 649 c 128,-1,38
 65 656 65 656 65 669 c 0,39,40
 64 696 64 696 79 701.5 c 128,-1,41
 94 707 94 707 119 707 c 2,42,-1
 381 699 l 1,43,-1
 240 934 l 2,44,45
 227 957 227 957 224.5 971.5 c 128,-1,46
 222 986 222 986 245 1000 c 0,47,48
 266 1012 266 1012 277.5 1002 c 128,-1,49
 289 992 289 992 302 969 c 2,50,-1
 431 733 l 1,51,-1
 542 979 l 2,0,1
EndSplineSet
EndChar

StartChar: plus
Encoding: 43 43 18
Width: 797
GlyphClass: 2
Flags: W
HStem: 457 54<79.7682 368 428 717.232> 755 20G<392 403.5>
VStem: 368 60<199.737 457 511 766.748>
LayerCount: 2
Fore
SplineSet
368 511 m 1,0,-1
 368 742 l 2,1,2
 368 759 368 759 377 767 c 128,-1,3
 386 775 386 775 398 775 c 0,4,5
 409 775 409 775 418.5 767 c 128,-1,6
 428 759 428 759 428 742 c 2,7,-1
 428 511 l 1,8,-1
 690 511 l 2,9,10
 709 511 709 511 717.5 502.5 c 128,-1,11
 726 494 726 494 726 483 c 0,12,13
 726 473 726 473 717.5 465 c 128,-1,14
 709 457 709 457 690 457 c 2,15,-1
 428 457 l 1,16,-1
 428 224 l 2,17,18
 428 207 428 207 418.5 199.5 c 128,-1,19
 409 192 409 192 398 192 c 0,20,21
 386 192 386 192 377 199.5 c 128,-1,22
 368 207 368 207 368 224 c 2,23,-1
 368 457 l 1,24,-1
 107 457 l 2,25,26
 88 457 88 457 79.5 465 c 128,-1,27
 71 473 71 473 71 483 c 0,28,29
 71 494 71 494 79.5 502.5 c 128,-1,30
 88 511 88 511 107 511 c 2,31,-1
 368 511 l 1,0,-1
EndSplineSet
EndChar

StartChar: comma
Encoding: 44 44 19
Width: 323
GlyphClass: 2
Flags: W
HStem: -94 56<85 127.998>
VStem: 128 99<-49.6561 66.1934>
LayerCount: 2
Fore
SplineSet
85 -38 m 1,0,1
 110 -38 110 -38 119 -37 c 128,-1,2
 128 -36 128 -36 128 -31 c 0,3,4
 128 -27 128 -27 123.5 -21 c 128,-1,5
 119 -15 119 -15 113.5 -6 c 128,-1,6
 108 3 108 3 103.5 16 c 128,-1,7
 99 29 99 29 99 46 c 0,8,9
 99 75 99 75 118 90.5 c 128,-1,10
 137 106 137 106 160 106 c 0,11,12
 185 106 185 106 206 87.5 c 128,-1,13
 227 69 227 69 227 31 c 0,14,15
 227 10 227 10 218 -12 c 128,-1,16
 209 -34 209 -34 191.5 -52.5 c 128,-1,17
 174 -71 174 -71 147.5 -82.5 c 128,-1,18
 121 -94 121 -94 85 -94 c 1,19,-1
 85 -38 l 1,0,1
EndSplineSet
EndChar

StartChar: hyphen
Encoding: 45 45 20
Width: 677
GlyphClass: 2
Flags: W
HStem: 459 45<101.705 574.295>
VStem: 95 486<466.219 496.781>
LayerCount: 2
Fore
SplineSet
554 504 m 2,0,1
 568 504 568 504 574.5 497 c 128,-1,2
 581 490 581 490 581 481 c 0,3,4
 581 473 581 473 574.5 466 c 128,-1,5
 568 459 568 459 554 459 c 2,6,-1
 122 459 l 2,7,8
 108 459 108 459 101.5 466 c 128,-1,9
 95 473 95 473 95 481 c 0,10,11
 95 490 95 490 101.5 497 c 128,-1,12
 108 504 108 504 122 504 c 2,13,-1
 554 504 l 2,0,1
EndSplineSet
EndChar

StartChar: period
Encoding: 46 46 21
Width: 312
GlyphClass: 2
Flags: W
HStem: -10 115<113.502 196.951>
VStem: 97 118<5.98669 87.9821>
LayerCount: 2
Fore
SplineSet
97 46 m 0,0,1
 97 72 97 72 113 88.5 c 128,-1,2
 129 105 129 105 155 105 c 0,3,4
 180 105 180 105 197.5 88.5 c 128,-1,5
 215 72 215 72 215 46 c 0,6,7
 215 21 215 21 197.5 5.5 c 128,-1,8
 180 -10 180 -10 155 -10 c 0,9,10
 129 -10 129 -10 113 5.5 c 128,-1,11
 97 21 97 21 97 46 c 0,0,1
EndSplineSet
EndChar

StartChar: slash
Encoding: 47 47 22
Width: 602
GlyphClass: 2
Flags: W
VStem: 487.5 65.5<1083.84 1166.2>
LayerCount: 2
Fore
SplineSet
131 4 m 1,0,1
 120 -19 120 -19 112 -36 c 128,-1,2
 104 -53 104 -53 86 -53 c 0,3,4
 66 -53 66 -53 57.5 -42 c 128,-1,5
 49 -31 49 -31 49 -20 c 256,6,7
 49 -9 49 -9 52.5 1.5 c 128,-1,8
 56 12 56 12 61 25 c 2,9,-1
 471 1118 l 1,10,11
 478 1141 478 1141 487.5 1158.5 c 128,-1,12
 497 1176 497 1176 520 1176 c 0,13,14
 539 1176 539 1176 546 1166.5 c 128,-1,15
 553 1157 553 1157 553 1145 c 0,16,17
 553 1134 553 1134 550.5 1122 c 128,-1,18
 548 1110 548 1110 543 1098 c 2,19,-1
 131 4 l 1,0,1
EndSplineSet
EndChar

StartChar: zero
Encoding: 48 48 23
Width: 1060
GlyphClass: 2
Flags: W
HStem: -21 66<347.988 712.777> 1069 66<347.988 712.777>
VStem: 92 76<244.305 869.531> 892 76<241.576 872.269>
LayerCount: 2
Fore
SplineSet
892 557 m 0,0,1
 892 687 892 687 876.5 783.5 c 128,-1,2
 861 880 861 880 820.5 943.5 c 128,-1,3
 780 1007 780 1007 709.5 1038 c 128,-1,4
 639 1069 639 1069 530 1069 c 0,5,6
 422 1069 422 1069 352 1038 c 128,-1,7
 282 1007 282 1007 241 943.5 c 128,-1,8
 200 880 200 880 184 783.5 c 128,-1,9
 168 687 168 687 168 557 c 0,10,11
 168 426 168 426 184 330 c 128,-1,12
 200 234 200 234 241 170.5 c 128,-1,13
 282 107 282 107 352 76 c 128,-1,14
 422 45 422 45 530 45 c 0,15,16
 639 45 639 45 709.5 76 c 128,-1,17
 780 107 780 107 820.5 170.5 c 128,-1,18
 861 234 861 234 876.5 330 c 128,-1,19
 892 426 892 426 892 557 c 0,0,1
92 557 m 0,20,21
 92 687 92 687 109.5 794 c 128,-1,22
 127 901 127 901 175 976.5 c 128,-1,23
 223 1052 223 1052 308.5 1093.5 c 128,-1,24
 394 1135 394 1135 530 1135 c 256,25,26
 666 1135 666 1135 751.5 1093.5 c 128,-1,27
 837 1052 837 1052 885 976.5 c 128,-1,28
 933 901 933 901 950.5 794 c 128,-1,29
 968 687 968 687 968 557 c 0,30,31
 968 426 968 426 950.5 319.5 c 128,-1,32
 933 213 933 213 885 137.5 c 128,-1,33
 837 62 837 62 751.5 20.5 c 128,-1,34
 666 -21 666 -21 530 -21 c 256,35,36
 394 -21 394 -21 308.5 20.5 c 128,-1,37
 223 62 223 62 175 137.5 c 128,-1,38
 127 213 127 213 109.5 319.5 c 128,-1,39
 92 426 92 426 92 557 c 0,20,21
EndSplineSet
Substitution2: "'onum' Oldstyle Figures in Latin lookup 1 subtable" zero.old
Substitution2: "'aalt' Access All Alternates in Latin lookup 0 subtable" zero.old
EndChar

StartChar: one
Encoding: 49 49 24
Width: 452
GlyphClass: 2
Flags: W
HStem: 0 21G<272.5 286.5> 1044 70<30.1884 241>
VStem: 241 72<6.18848 1044>
LayerCount: 2
Fore
SplineSet
313 70 m 2,0,1
 313 57 313 57 313 44.5 c 128,-1,2
 313 32 313 32 310 22 c 128,-1,3
 307 12 307 12 300 6 c 128,-1,4
 293 0 293 0 280 0 c 0,5,6
 265 0 265 0 257.5 6 c 128,-1,7
 250 12 250 12 246 22 c 128,-1,8
 242 32 242 32 241.5 44.5 c 128,-1,9
 241 57 241 57 241 70 c 2,10,-1
 241 1044 l 1,11,-1
 87 1044 l 2,12,13
 77 1044 77 1044 66 1044 c 128,-1,14
 55 1044 55 1044 45.5 1046.5 c 128,-1,15
 36 1049 36 1049 30 1055 c 128,-1,16
 24 1061 24 1061 24 1073 c 0,17,18
 24 1088 24 1088 30.5 1096.5 c 128,-1,19
 37 1105 37 1105 46.5 1109 c 128,-1,20
 56 1113 56 1113 66.5 1113.5 c 128,-1,21
 77 1114 77 1114 85 1114 c 2,22,-1
 278 1114 l 2,23,24
 293 1114 293 1114 300 1107.5 c 128,-1,25
 307 1101 307 1101 310 1091 c 128,-1,26
 313 1081 313 1081 313 1068.5 c 128,-1,27
 313 1056 313 1056 313 1044 c 2,28,-1
 313 70 l 2,0,1
EndSplineSet
Substitution2: "'onum' Oldstyle Figures in Latin lookup 1 subtable" one.old
Substitution2: "'aalt' Access All Alternates in Latin lookup 0 subtable" one.old
EndChar

StartChar: two
Encoding: 50 50 25
Width: 925
GlyphClass: 2
Flags: W
HStem: -2 72<152 785.653> 1065 69<208.812 651.722>
VStem: 80 72<70 215.237> 783 74<690.516 955.896>
LayerCount: 2
Fore
SplineSet
447 1065 m 0,0,1
 393 1065 393 1065 341 1057 c 128,-1,2
 289 1049 289 1049 247 1040 c 0,3,4
 199 1029 199 1029 155 1015 c 0,5,6
 142 1010 142 1010 129 1010 c 0,7,8
 112 1010 112 1010 102.5 1017.5 c 128,-1,9
 93 1025 93 1025 93 1036 c 256,10,11
 93 1047 93 1047 103.5 1058.5 c 128,-1,12
 114 1070 114 1070 137 1079 c 1,13,14
 183 1094 183 1094 234 1106 c 0,15,16
 278 1117 278 1117 333.5 1125.5 c 128,-1,17
 389 1134 389 1134 447 1134 c 0,18,19
 557 1134 557 1134 635 1112 c 128,-1,20
 713 1090 713 1090 762.5 1049 c 128,-1,21
 812 1008 812 1008 834.5 950.5 c 128,-1,22
 857 893 857 893 857 823 c 0,23,24
 857 737 857 737 826.5 677 c 128,-1,25
 796 617 796 617 746.5 573 c 128,-1,26
 697 529 697 529 634 497 c 128,-1,27
 571 465 571 465 504.5 436 c 128,-1,28
 438 407 438 407 375 376.5 c 128,-1,29
 312 346 312 346 262.5 304.5 c 128,-1,30
 213 263 213 263 182.5 206.5 c 128,-1,31
 152 150 152 150 152 70 c 1,32,-1
 752 70 l 2,33,34
 775 70 775 70 786 59 c 128,-1,35
 797 48 797 48 797 34 c 256,36,37
 797 20 797 20 786 9 c 128,-1,38
 775 -2 775 -2 752 -2 c 2,39,-1
 119 -2 l 2,40,41
 90 -2 90 -2 85 14.5 c 128,-1,42
 80 31 80 31 80 70 c 0,43,44
 80 158 80 158 110 222 c 128,-1,45
 140 286 140 286 189.5 333.5 c 128,-1,46
 239 381 239 381 302.5 416 c 128,-1,47
 366 451 366 451 431.5 482 c 128,-1,48
 497 513 497 513 560.5 543.5 c 128,-1,49
 624 574 624 574 673.5 612.5 c 128,-1,50
 723 651 723 651 753 701.5 c 128,-1,51
 783 752 783 752 783 823 c 0,52,53
 783 888 783 888 759.5 934 c 128,-1,54
 736 980 736 980 692.5 1009 c 128,-1,55
 649 1038 649 1038 587 1051.5 c 128,-1,56
 525 1065 525 1065 447 1065 c 0,0,1
EndSplineSet
Substitution2: "'onum' Oldstyle Figures in Latin lookup 1 subtable" two.old
Substitution2: "'aalt' Access All Alternates in Latin lookup 0 subtable" two.old
EndChar

StartChar: three
Encoding: 51 51 26
Width: 946
GlyphClass: 2
Flags: W
HStem: -21 69<206.812 656.782> 570 64<262.768 578.036> 1065 70<203.754 651.523>
VStem: 91 62<1016 1037> 761 71<737.215 973.415> 793 66<166.934 443.375>
LayerCount: 2
Fore
SplineSet
289 570 m 2,0,1
 271 570 271 570 262.5 580 c 128,-1,2
 254 590 254 590 254 602 c 256,3,4
 254 614 254 614 262.5 624 c 128,-1,5
 271 634 271 634 289 634 c 2,6,-1
 431 634 l 2,7,8
 527 634 527 634 590.5 653 c 128,-1,9
 654 672 654 672 692 702.5 c 128,-1,10
 730 733 730 733 745.5 772 c 128,-1,11
 761 811 761 811 761 851 c 0,12,13
 761 889 761 889 749.5 927.5 c 128,-1,14
 738 966 738 966 705 996.5 c 128,-1,15
 672 1027 672 1027 612 1046 c 128,-1,16
 552 1065 552 1065 455 1065 c 0,17,18
 400 1065 400 1065 346 1057.5 c 128,-1,19
 292 1050 292 1050 249 1041 c 128,-1,20
 206 1032 206 1032 179.5 1024.5 c 128,-1,21
 153 1017 153 1017 153 1016 c 0,22,23
 140 1011 140 1011 127 1011 c 0,24,25
 110 1011 110 1011 100.5 1018.5 c 128,-1,26
 91 1026 91 1026 91 1037 c 256,27,28
 91 1048 91 1048 101.5 1059.5 c 128,-1,29
 112 1071 112 1071 135 1080 c 1,30,31
 181 1095 181 1095 232 1107 c 0,32,33
 276 1118 276 1118 331.5 1126.5 c 128,-1,34
 387 1135 387 1135 445 1135 c 0,35,36
 565 1135 565 1135 640 1110 c 128,-1,37
 715 1085 715 1085 758 1044.5 c 128,-1,38
 801 1004 801 1004 816.5 953 c 128,-1,39
 832 902 832 902 832 850 c 0,40,41
 832 816 832 816 820 776 c 128,-1,42
 808 736 808 736 777.5 700.5 c 128,-1,43
 747 665 747 665 695.5 638.5 c 128,-1,44
 644 612 644 612 565 604 c 1,45,46
 645 593 645 593 701 567.5 c 128,-1,47
 757 542 757 542 792 503.5 c 128,-1,48
 827 465 827 465 843 415.5 c 128,-1,49
 859 366 859 366 859 307 c 0,50,51
 859 238 859 238 838.5 178 c 128,-1,52
 818 118 818 118 770 73.5 c 128,-1,53
 722 29 722 29 642.5 4 c 128,-1,54
 563 -21 563 -21 445 -21 c 0,55,56
 387 -21 387 -21 331.5 -13 c 128,-1,57
 276 -5 276 -5 232 6 c 0,58,59
 181 18 181 18 135 34 c 0,60,61
 112 43 112 43 101.5 54.5 c 128,-1,62
 91 66 91 66 91 77 c 256,63,64
 91 88 91 88 100.5 95.5 c 128,-1,65
 110 103 110 103 127 103 c 0,66,67
 140 103 140 103 153 98 c 0,68,69
 197 84 197 84 245 73 c 0,70,71
 287 63 287 63 339 55.5 c 128,-1,72
 391 48 391 48 445 48 c 0,73,74
 548 48 548 48 615.5 67.5 c 128,-1,75
 683 87 683 87 722.5 122 c 128,-1,76
 762 157 762 157 777.5 205.5 c 128,-1,77
 793 254 793 254 793 313 c 0,78,79
 793 363 793 363 776.5 409.5 c 128,-1,80
 760 456 760 456 719 491.5 c 128,-1,81
 678 527 678 527 608 548.5 c 128,-1,82
 538 570 538 570 431 570 c 2,83,-1
 289 570 l 2,0,1
EndSplineSet
Substitution2: "'onum' Oldstyle Figures in Latin lookup 1 subtable" three.old
Substitution2: "'aalt' Access All Alternates in Latin lookup 0 subtable" three.old
EndChar

StartChar: four
Encoding: 52 52 27
Width: 1058
GlyphClass: 2
Flags: W
HStem: 0 21G<710.5 724.5> 348 70<173 681 753 1030.08> 1094 20G<131.5 145.5 710.5 724.5>
VStem: 100 73<418 1113.94> 681 72<6.18848 348 418 1107.81>
LayerCount: 2
Fore
SplineSet
1044 381 m 0,0,1
 1044 365 1044 365 1030.5 358 c 128,-1,2
 1017 351 1017 351 996 348.5 c 128,-1,3
 975 346 975 346 949 347 c 128,-1,4
 923 348 923 348 898 348 c 2,5,-1
 753 348 l 1,6,-1
 753 70 l 2,7,8
 753 57 753 57 752.5 44.5 c 128,-1,9
 752 32 752 32 748.5 22 c 128,-1,10
 745 12 745 12 738 6 c 128,-1,11
 731 0 731 0 718 0 c 0,12,13
 703 0 703 0 695.5 6 c 128,-1,14
 688 12 688 12 685 22 c 128,-1,15
 682 32 682 32 681.5 44.5 c 128,-1,16
 681 57 681 57 681 70 c 2,17,-1
 681 348 l 1,18,-1
 173 348 l 2,19,20
 146 348 146 348 131 354 c 128,-1,21
 116 360 116 360 109 370 c 128,-1,22
 102 380 102 380 101 392.5 c 128,-1,23
 100 405 100 405 100 418 c 2,24,-1
 100 1047 l 2,25,26
 100 1059 100 1059 100.5 1071 c 128,-1,27
 101 1083 101 1083 105 1092.5 c 128,-1,28
 109 1102 109 1102 116.5 1108 c 128,-1,29
 124 1114 124 1114 139 1114 c 0,30,31
 152 1114 152 1114 159 1107.5 c 128,-1,32
 166 1101 166 1101 169 1091.5 c 128,-1,33
 172 1082 172 1082 172.5 1070 c 128,-1,34
 173 1058 173 1058 173 1047 c 2,35,-1
 173 418 l 1,36,-1
 681 418 l 1,37,-1
 681 1044 l 2,38,39
 681 1057 681 1057 681.5 1069.5 c 128,-1,40
 682 1082 682 1082 685 1092 c 128,-1,41
 688 1102 688 1102 695.5 1108 c 128,-1,42
 703 1114 703 1114 718 1114 c 0,43,44
 731 1114 731 1114 738 1108 c 128,-1,45
 745 1102 745 1102 748.5 1092 c 128,-1,46
 752 1082 752 1082 752.5 1069.5 c 128,-1,47
 753 1057 753 1057 753 1044 c 2,48,-1
 753 418 l 1,49,-1
 972 418 l 2,50,51
 988 418 988 418 1001.5 417.5 c 128,-1,52
 1015 417 1015 417 1024.5 414 c 128,-1,53
 1034 411 1034 411 1039 403.5 c 128,-1,54
 1044 396 1044 396 1044 381 c 0,0,1
EndSplineSet
Substitution2: "'onum' Oldstyle Figures in Latin lookup 1 subtable" four.old
Substitution2: "'aalt' Access All Alternates in Latin lookup 0 subtable" four.old
EndChar

StartChar: five
Encoding: 53 53 28
Width: 869
GlyphClass: 2
Flags: W
HStem: -40 69<200.812 605.07> 537 70<180 643.83> 1025 69<220 687.685>
VStem: 730 74<149.682 461.931>
LayerCount: 2
Fore
SplineSet
439 29 m 0,0,1
 521 29 521 29 577 50.5 c 128,-1,2
 633 72 633 72 667 111.5 c 128,-1,3
 701 151 701 151 715.5 206 c 128,-1,4
 730 261 730 261 730 328 c 0,5,6
 730 383 730 383 715.5 422.5 c 128,-1,7
 701 462 701 462 667.5 487.5 c 128,-1,8
 634 513 634 513 578 525 c 128,-1,9
 522 537 522 537 439 537 c 2,10,-1
 189 537 l 2,11,12
 174 537 174 537 158 538 c 128,-1,13
 142 539 142 539 130 545 c 128,-1,14
 118 551 118 551 111 565.5 c 128,-1,15
 104 580 104 580 107 607 c 2,16,-1
 147 1024 l 2,17,18
 148 1036 148 1036 149.5 1048.5 c 128,-1,19
 151 1061 151 1061 157.5 1071 c 128,-1,20
 164 1081 164 1081 178.5 1087.5 c 128,-1,21
 193 1094 193 1094 220 1094 c 2,22,-1
 658 1094 l 2,23,24
 678 1094 678 1094 688 1083 c 128,-1,25
 698 1072 698 1072 698 1059.5 c 128,-1,26
 698 1047 698 1047 688 1036 c 128,-1,27
 678 1025 678 1025 658 1025 c 2,28,-1
 220 1025 l 1,29,-1
 180 607 l 1,30,-1
 439 607 l 2,31,32
 521 607 521 607 588.5 592.5 c 128,-1,33
 656 578 656 578 704 545 c 128,-1,34
 752 512 752 512 778 458 c 128,-1,35
 804 404 804 404 804 324 c 0,36,37
 804 222 804 222 778 152.5 c 128,-1,38
 752 83 752 83 704 40 c 128,-1,39
 656 -3 656 -3 588.5 -21.5 c 128,-1,40
 521 -40 521 -40 439 -40 c 0,41,42
 381 -40 381 -40 325.5 -32 c 128,-1,43
 270 -24 270 -24 226 -13 c 0,44,45
 175 -1 175 -1 129 15 c 0,46,47
 106 24 106 24 95.5 35.5 c 128,-1,48
 85 47 85 47 85 58 c 256,49,50
 85 69 85 69 94.5 76.5 c 128,-1,51
 104 84 104 84 121 84 c 0,52,53
 134 84 134 84 147 79 c 0,54,55
 191 65 191 65 239 54 c 0,56,57
 281 44 281 44 333 36.5 c 128,-1,58
 385 29 385 29 439 29 c 0,0,1
EndSplineSet
Substitution2: "'onum' Oldstyle Figures in Latin lookup 1 subtable" five.old
Substitution2: "'aalt' Access All Alternates in Latin lookup 0 subtable" five.old
EndChar

StartChar: seven
Encoding: 55 55 30
Width: 707
GlyphClass: 2
Flags: W
HStem: 1044 70<45.7992 599>
VStem: 176 75<33.3142 57>
LayerCount: 2
Fore
SplineSet
251 57 m 2,0,1
 243 39 243 39 231.5 31 c 128,-1,2
 220 23 220 23 209 23 c 0,3,4
 195 23 195 23 185.5 33 c 128,-1,5
 176 43 176 43 176 60 c 0,6,7
 176 71 176 71 180 82 c 2,8,-1
 599 1044 l 1,9,-1
 74 1044 l 2,10,11
 55 1044 55 1044 45.5 1054.5 c 128,-1,12
 36 1065 36 1065 36 1079 c 0,13,14
 36 1092 36 1092 45.5 1103 c 128,-1,15
 55 1114 55 1114 74 1114 c 2,16,-1
 629 1114 l 2,17,18
 660 1114 660 1114 671.5 1098.5 c 128,-1,19
 683 1083 683 1083 683 1063 c 0,20,21
 683 1042 683 1042 675 1024 c 2,22,-1
 251 57 l 2,0,1
EndSplineSet
Substitution2: "'onum' Oldstyle Figures in Latin lookup 1 subtable" seven.old
Substitution2: "'aalt' Access All Alternates in Latin lookup 0 subtable" seven.old
EndChar

StartChar: eight
Encoding: 56 56 31
Width: 1030
GlyphClass: 2
Flags: W
HStem: -21 66<305.008 724.773> 567 70<356.078 673.922> 1069 66<314.361 715.639>
VStem: 87 66<174.754 441.803> 114 71<131.808 304.846 738.059 967.283> 845 71<131.808 304.846 738.059 967.283> 877 66<174.754 441.803>
LayerCount: 2
Fore
SplineSet
515 567 m 256,0,1
 408 567 408 567 338 546 c 128,-1,2
 268 525 268 525 227 490 c 128,-1,3
 186 455 186 455 169.5 409 c 128,-1,4
 153 363 153 363 153 313 c 0,5,6
 153 255 153 255 171 206 c 128,-1,7
 189 157 189 157 231 121 c 128,-1,8
 273 85 273 85 342.5 65 c 128,-1,9
 412 45 412 45 515 45 c 256,10,11
 618 45 618 45 687.5 65 c 128,-1,12
 757 85 757 85 799 121 c 128,-1,13
 841 157 841 157 859 206 c 128,-1,14
 877 255 877 255 877 313 c 0,15,16
 877 363 877 363 860.5 409 c 128,-1,17
 844 455 844 455 803 490 c 128,-1,18
 762 525 762 525 692 546 c 128,-1,19
 622 567 622 567 515 567 c 256,0,1
515 -21 m 0,20,21
 396 -21 396 -21 314.5 4 c 128,-1,22
 233 29 233 29 182.5 73.5 c 128,-1,23
 132 118 132 118 109.5 178 c 128,-1,24
 87 238 87 238 87 307 c 0,25,26
 87 366 87 366 101.5 415 c 128,-1,27
 116 464 116 464 149 501.5 c 128,-1,28
 182 539 182 539 235.5 565 c 128,-1,29
 289 591 289 591 366 604 c 1,30,31
 291 614 291 614 242 641 c 128,-1,32
 193 668 193 668 164.5 703 c 128,-1,33
 136 738 136 738 125 777 c 128,-1,34
 114 816 114 816 114 850 c 0,35,36
 114 902 114 902 132 953 c 128,-1,37
 150 1004 150 1004 195 1044.5 c 128,-1,38
 240 1085 240 1085 317.5 1110 c 128,-1,39
 395 1135 395 1135 515 1135 c 256,40,41
 635 1135 635 1135 712.5 1110 c 128,-1,42
 790 1085 790 1085 835 1044.5 c 128,-1,43
 880 1004 880 1004 898 953 c 128,-1,44
 916 902 916 902 916 850 c 0,45,46
 916 816 916 816 905 777 c 128,-1,47
 894 738 894 738 865.5 703 c 128,-1,48
 837 668 837 668 788 641 c 128,-1,49
 739 614 739 614 664 604 c 1,50,51
 741 591 741 591 794.5 565 c 128,-1,52
 848 539 848 539 881 501.5 c 128,-1,53
 914 464 914 464 928.5 415 c 128,-1,54
 943 366 943 366 943 307 c 0,55,56
 943 238 943 238 920.5 178 c 128,-1,57
 898 118 898 118 847.5 73.5 c 128,-1,58
 797 29 797 29 715 4 c 128,-1,59
 633 -21 633 -21 515 -21 c 0,20,21
515 637 m 256,60,61
 611 637 611 637 674.5 655.5 c 128,-1,62
 738 674 738 674 776 704 c 128,-1,63
 814 734 814 734 829.5 772.5 c 128,-1,64
 845 811 845 811 845 851 c 0,65,66
 845 890 845 890 831 928.5 c 128,-1,67
 817 967 817 967 780 998.5 c 128,-1,68
 743 1030 743 1030 679 1049.5 c 128,-1,69
 615 1069 615 1069 515 1069 c 256,70,71
 415 1069 415 1069 351 1049.5 c 128,-1,72
 287 1030 287 1030 250 998.5 c 128,-1,73
 213 967 213 967 199 928.5 c 128,-1,74
 185 890 185 890 185 851 c 0,75,76
 185 811 185 811 200.5 772.5 c 128,-1,77
 216 734 216 734 254 704 c 128,-1,78
 292 674 292 674 355.5 655.5 c 128,-1,79
 419 637 419 637 515 637 c 256,60,61
EndSplineSet
Substitution2: "'onum' Oldstyle Figures in Latin lookup 1 subtable" eight.old
Substitution2: "'aalt' Access All Alternates in Latin lookup 0 subtable" eight.old
EndChar

StartChar: nine
Encoding: 57 57 32
Width: 1023
GlyphClass: 2
Flags: W
HStem: -20 69<238.812 695.07> 487 70<255.292 817.98> 1065 69<299.797 693.531>
VStem: 74 76<648.271 945.189> 852 77<230.141 535 580.002 887.294>
LayerCount: 2
Fore
SplineSet
929 557 m 0,0,1
 929 400 929 400 909.5 290.5 c 128,-1,2
 890 181 890 181 839.5 112 c 128,-1,3
 789 43 789 43 701.5 11.5 c 128,-1,4
 614 -20 614 -20 477 -20 c 0,5,6
 419 -20 419 -20 363.5 -12 c 128,-1,7
 308 -4 308 -4 264 7 c 0,8,9
 213 19 213 19 167 35 c 0,10,11
 144 44 144 44 133.5 55.5 c 128,-1,12
 123 67 123 67 123 78 c 256,13,14
 123 89 123 89 132.5 96.5 c 128,-1,15
 142 104 142 104 159 104 c 0,16,17
 172 104 172 104 185 99 c 0,18,19
 229 85 229 85 277 74 c 0,20,21
 319 64 319 64 371 56.5 c 128,-1,22
 423 49 423 49 477 49 c 0,23,24
 567 49 567 49 636.5 63 c 128,-1,25
 706 77 706 77 754 126.5 c 128,-1,26
 802 176 802 176 827 273 c 128,-1,27
 852 370 852 370 852 535 c 1,28,29
 825 522 825 522 780 511 c 0,30,31
 741 502 741 502 678.5 494.5 c 128,-1,32
 616 487 616 487 523 487 c 0,33,34
 412 487 412 487 328 501.5 c 128,-1,35
 244 516 244 516 187.5 552.5 c 128,-1,36
 131 589 131 589 102.5 653 c 128,-1,37
 74 717 74 717 74 816 c 0,38,39
 74 877 74 877 96.5 934.5 c 128,-1,40
 119 992 119 992 170.5 1036 c 128,-1,41
 222 1080 222 1080 305.5 1107 c 128,-1,42
 389 1134 389 1134 510 1134 c 0,43,44
 626 1134 626 1134 706 1104.5 c 128,-1,45
 786 1075 786 1075 835.5 1007 c 128,-1,46
 885 939 885 939 907 828.5 c 128,-1,47
 929 718 929 718 929 557 c 0,0,1
852 588 m 1,48,49
 852 724 852 724 834 816 c 128,-1,50
 816 908 816 908 775 963 c 128,-1,51
 734 1018 734 1018 668 1041.5 c 128,-1,52
 602 1065 602 1065 506 1065 c 0,53,54
 401 1065 401 1065 332 1043 c 128,-1,55
 263 1021 263 1021 222.5 985 c 128,-1,56
 182 949 182 949 166 903 c 128,-1,57
 150 857 150 857 150 808 c 0,58,59
 150 723 150 723 173 673.5 c 128,-1,60
 196 624 196 624 242.5 598 c 128,-1,61
 289 572 289 572 359 564.5 c 128,-1,62
 429 557 429 557 523 557 c 0,63,64
 601 557 601 557 661.5 561.5 c 128,-1,65
 722 566 722 566 765 572 c 0,66,67
 814 579 814 579 852 588 c 1,48,49
EndSplineSet
Substitution2: "'onum' Oldstyle Figures in Latin lookup 1 subtable" nine.old
Substitution2: "'aalt' Access All Alternates in Latin lookup 0 subtable" nine.old
EndChar

StartChar: less
Encoding: 60 60 35
Width: 775
GlyphClass: 2
Flags: W
HStem: 44 68<653 673.979>
VStem: 65 609
LayerCount: 2
Fore
SplineSet
65 335 m 0,0,1
 65 357 65 357 78.5 367 c 128,-1,2
 92 377 92 377 116 388 c 2,3,-1
 620 622 l 2,4,5
 626 624 626 624 630.5 625.5 c 128,-1,6
 635 627 635 627 640 627 c 0,7,8
 655 627 655 627 664.5 616 c 128,-1,9
 674 605 674 605 674 591 c 0,10,11
 674 569 674 569 653 559 c 2,12,-1
 166 335 l 1,13,-1
 653 112 l 2,14,15
 664 107 664 107 669 98 c 128,-1,16
 674 89 674 89 674 79 c 0,17,18
 674 66 674 66 664.5 55 c 128,-1,19
 655 44 655 44 640 44 c 0,20,21
 630 44 630 44 620 49 c 2,22,-1
 116 283 l 2,23,24
 92 294 92 294 78.5 304 c 128,-1,25
 65 314 65 314 65 335 c 0,0,1
EndSplineSet
EndChar

StartChar: equal
Encoding: 61 61 36
Width: 906
GlyphClass: 2
Flags: W
HStem: 470 58<130.674 772.811> 609 58<132.674 774.811>
VStem: 125 654
LayerCount: 2
Fore
SplineSet
779 499 m 256,0,1
 779 488 779 488 773 479 c 128,-1,2
 767 470 767 470 754 470 c 2,3,-1
 149 470 l 2,4,5
 136 470 136 470 130.5 479 c 128,-1,6
 125 488 125 488 125 499 c 256,7,8
 125 510 125 510 130.5 519 c 128,-1,9
 136 528 136 528 149 528 c 2,10,-1
 754 528 l 2,11,12
 767 528 767 528 773 519 c 128,-1,13
 779 510 779 510 779 499 c 256,0,1
781 638 m 256,14,15
 781 627 781 627 775 618 c 128,-1,16
 769 609 769 609 756 609 c 2,17,-1
 151 609 l 2,18,19
 138 609 138 609 132.5 618 c 128,-1,20
 127 627 127 627 127 638 c 256,21,22
 127 649 127 649 132.5 658 c 128,-1,23
 138 667 138 667 151 667 c 2,24,-1
 756 667 l 2,25,26
 769 667 769 667 775 658 c 128,-1,27
 781 649 781 649 781 638 c 256,14,15
EndSplineSet
EndChar

StartChar: question
Encoding: 63 63 38
Width: 888
GlyphClass: 2
Flags: W
HStem: -10 115<219.502 302.951> 480 64<295 560.504> 1066 69<175.812 625.782>
VStem: 203 118<5.98669 87.9821> 223 72<194.08 480> 762 66<678.744 945.28>
LayerCount: 2
Fore
SplineSet
295 264 m 2,0,1
 295 235 295 235 291 214.5 c 128,-1,2
 287 194 287 194 262 194 c 0,3,4
 247 194 247 194 239.5 199.5 c 128,-1,5
 232 205 232 205 228 214.5 c 128,-1,6
 224 224 224 224 223.5 236.5 c 128,-1,7
 223 249 223 249 223 262 c 2,8,-1
 223 512 l 2,9,10
 223 524 223 524 231.5 534 c 128,-1,11
 240 544 240 544 258 544 c 0,12,13
 366 544 366 544 445.5 554 c 128,-1,14
 525 564 525 564 581 581.5 c 128,-1,15
 637 599 637 599 672.5 623 c 128,-1,16
 708 647 708 647 727.5 675.5 c 128,-1,17
 747 704 747 704 754.5 736 c 128,-1,18
 762 768 762 768 762 801 c 0,19,20
 762 859 762 859 746.5 908 c 128,-1,21
 731 957 731 957 691.5 992 c 128,-1,22
 652 1027 652 1027 584.5 1046.5 c 128,-1,23
 517 1066 517 1066 414 1066 c 0,24,25
 360 1066 360 1066 308 1058 c 128,-1,26
 256 1050 256 1050 214 1041 c 0,27,28
 166 1030 166 1030 122 1016 c 0,29,30
 109 1011 109 1011 96 1011 c 0,31,32
 79 1011 79 1011 69.5 1018.5 c 128,-1,33
 60 1026 60 1026 60 1037 c 256,34,35
 60 1048 60 1048 70.5 1059.5 c 128,-1,36
 81 1071 81 1071 104 1080 c 1,37,38
 150 1095 150 1095 201 1107 c 0,39,40
 245 1118 245 1118 300.5 1126.5 c 128,-1,41
 356 1135 356 1135 414 1135 c 0,42,43
 532 1135 532 1135 611.5 1110 c 128,-1,44
 691 1085 691 1085 739 1040.5 c 128,-1,45
 787 996 787 996 807.5 936 c 128,-1,46
 828 876 828 876 828 807 c 0,47,48
 828 769 828 769 822.5 730.5 c 128,-1,49
 817 692 817 692 798.5 656 c 128,-1,50
 780 620 780 620 744.5 589 c 128,-1,51
 709 558 709 558 650 534.5 c 128,-1,52
 591 511 591 511 504 496.5 c 128,-1,53
 417 482 417 482 295 480 c 1,54,-1
 295 264 l 2,0,1
203 46 m 0,55,56
 203 72 203 72 219 88.5 c 128,-1,57
 235 105 235 105 261 105 c 0,58,59
 286 105 286 105 303.5 88.5 c 128,-1,60
 321 72 321 72 321 46 c 0,61,62
 321 21 321 21 303.5 5.5 c 128,-1,63
 286 -10 286 -10 261 -10 c 0,64,65
 235 -10 235 -10 219 5.5 c 128,-1,66
 203 21 203 21 203 46 c 0,55,56
EndSplineSet
EndChar

StartChar: at
Encoding: 64 64 39
Width: 1334
GlyphClass: 2
Flags: W
HStem: -119 59<476.868 934> -48 57<983.47 1071.81> 116 60<1002.48 1106.92> 132 66<493.278 793.573> 735 66<573.484 889.943> 761 20G<977 993.5> 972 59<507.697 938.077>
VStem: 73 77<218.352 663.408> 325 79<277.944 587.282> 921 73<178.292 253 321 539.027> 1192 76<290.782 764.456>
LayerCount: 2
Fore
SplineSet
1055 -48 m 0,0,1
 1012 -68 1012 -68 959 -84 c 0,2,3
 914 -98 914 -98 853.5 -108.5 c 128,-1,4
 793 -119 793 -119 721 -119 c 0,5,6
 551 -119 551 -119 428.5 -80 c 128,-1,7
 306 -41 306 -41 227 33 c 128,-1,8
 148 107 148 107 110.5 214 c 128,-1,9
 73 321 73 321 73 457 c 0,10,11
 73 584 73 584 117 689.5 c 128,-1,12
 161 795 161 795 244.5 871 c 128,-1,13
 328 947 328 947 448.5 989 c 128,-1,14
 569 1031 569 1031 723 1031 c 0,15,16
 990 1031 990 1031 1129 913.5 c 128,-1,17
 1268 796 1268 796 1268 573 c 0,18,19
 1268 469 1268 469 1253.5 384.5 c 128,-1,20
 1239 300 1239 300 1210 240.5 c 128,-1,21
 1181 181 1181 181 1138 148.5 c 128,-1,22
 1095 116 1095 116 1038 116 c 0,23,24
 983 116 983 116 952 149.5 c 128,-1,25
 921 183 921 183 921 253 c 1,26,27
 892 218 892 218 851 192 c 0,28,29
 816 169 816 169 761.5 150.5 c 128,-1,30
 707 132 707 132 634 132 c 0,31,32
 549 132 549 132 490 156 c 128,-1,33
 431 180 431 180 394.5 220.5 c 128,-1,34
 358 261 358 261 341.5 314 c 128,-1,35
 325 367 325 367 325 424 c 0,36,37
 325 527 325 527 361.5 599 c 128,-1,38
 398 671 398 671 455.5 716 c 128,-1,39
 513 761 513 761 584 781 c 128,-1,40
 655 801 655 801 724 801 c 0,41,42
 784 801 784 801 826.5 790 c 128,-1,43
 869 779 869 779 897 765 c 0,44,45
 930 749 930 749 950 730 c 1,46,47
 955 755 955 755 962 768 c 128,-1,48
 969 781 969 781 985 781 c 0,49,50
 1002 781 1002 781 1012.5 767.5 c 128,-1,51
 1023 754 1023 754 1023 718 c 0,52,53
 1023 712 1023 712 1022.5 695.5 c 128,-1,54
 1022 679 1022 679 1019.5 637.5 c 128,-1,55
 1017 596 1017 596 1012 523 c 128,-1,56
 1007 450 1007 450 998 331 c 0,57,58
 997 318 997 318 995.5 300 c 128,-1,59
 994 282 994 282 994 262 c 0,60,61
 994 246 994 246 996 230.5 c 128,-1,62
 998 215 998 215 1003 203 c 128,-1,63
 1008 191 1008 191 1018 183.5 c 128,-1,64
 1028 176 1028 176 1043 176 c 0,65,66
 1077 176 1077 176 1104.5 203 c 128,-1,67
 1132 230 1132 230 1151.5 281 c 128,-1,68
 1171 332 1171 332 1181.5 406 c 128,-1,69
 1192 480 1192 480 1192 575 c 0,70,71
 1192 770 1192 770 1073.5 871 c 128,-1,72
 955 972 955 972 723 972 c 0,73,74
 588 972 588 972 481.5 934.5 c 128,-1,75
 375 897 375 897 301.5 829.5 c 128,-1,76
 228 762 228 762 189 667 c 128,-1,77
 150 572 150 572 150 457 c 0,78,79
 150 336 150 336 180.5 240 c 128,-1,80
 211 144 211 144 279 77.5 c 128,-1,81
 347 11 347 11 456 -24.5 c 128,-1,82
 565 -60 565 -60 723 -60 c 0,83,84
 787 -60 787 -60 844 -50 c 128,-1,85
 901 -40 901 -40 944 -28 c 0,86,87
 994 -14 994 -14 1037 5 c 0,88,89
 1042 7 1042 7 1046 8 c 128,-1,90
 1050 9 1050 9 1054 9 c 0,91,92
 1066 9 1066 9 1072 2 c 128,-1,93
 1078 -5 1078 -5 1078 -15 c 0,94,95
 1078 -24 1078 -24 1072.5 -33.5 c 128,-1,96
 1067 -43 1067 -43 1055 -48 c 0,0,1
945 686 m 1,97,98
 913 699 913 699 878 710 c 0,99,100
 848 719 848 719 809 727 c 128,-1,101
 770 735 770 735 730 735 c 0,102,103
 670 735 670 735 612 717 c 128,-1,104
 554 699 554 699 507.5 662 c 128,-1,105
 461 625 461 625 432.5 568 c 128,-1,106
 404 511 404 511 404 433 c 0,107,108
 404 315 404 315 460.5 256.5 c 128,-1,109
 517 198 517 198 639 198 c 0,110,111
 706 198 706 198 759 217 c 128,-1,112
 812 236 812 236 848.5 259.5 c 128,-1,113
 885 283 885 283 904 302 c 2,114,-1
 923 321 l 1,115,-1
 945 686 l 1,97,98
EndSplineSet
EndChar

StartChar: A
Encoding: 65 65 40
Width: 1275
GlyphClass: 2
Flags: W
HStem: 348 49<301 970> 1094 20G<624 636.5>
LayerCount: 2
Fore
SplineSet
970 397 m 1,0,-1
 639 1014 l 1,1,-1
 301 397 l 1,2,-1
 970 397 l 1,0,-1
997 348 m 1,3,-1
 280 348 l 1,4,5
 264 317 264 317 244.5 278 c 128,-1,6
 225 239 225 239 204 198.5 c 128,-1,7
 183 158 183 158 161 119 c 128,-1,8
 139 80 139 80 119.5 49.5 c 128,-1,9
 100 19 100 19 84 0.5 c 128,-1,10
 68 -18 68 -18 57 -18 c 0,11,12
 38 -18 38 -18 29 -7 c 128,-1,13
 20 4 20 4 20 12 c 0,14,15
 20 25 20 25 26.5 37 c 128,-1,16
 33 49 33 49 41 63 c 2,17,-1
 589 1065 l 2,18,19
 600 1084 600 1084 609 1098 c 128,-1,20
 618 1112 618 1112 630 1114 c 1,21,22
 643 1114 643 1114 650 1111.5 c 128,-1,23
 657 1109 657 1109 665 1098 c 2,24,-1
 686 1065 l 1,25,-1
 1235 63 l 2,26,27
 1243 49 1243 49 1249 36 c 128,-1,28
 1255 23 1255 23 1255 12 c 256,29,30
 1255 1 1255 1 1246 -8.5 c 128,-1,31
 1237 -18 1237 -18 1220 -18 c 256,32,33
 1203 -18 1203 -18 1191.5 -4 c 128,-1,34
 1180 10 1180 10 1169 29 c 2,35,-1
 997 348 l 1,3,-1
EndSplineSet
EndChar

StartChar: B
Encoding: 66 66 41
Width: 1315
GlyphClass: 2
Flags: W
HStem: 0 66<214 1021.52> 564 55<214 948.706> 1048 66<214 967.648>
VStem: 129 85<66 564 619 1048> 1103 85<702.151 962.688> 1162 85<162.385 451.624>
LayerCount: 2
Fore
SplineSet
1247 326 m 1,0,1
 1247 224 1247 224 1208 160.5 c 128,-1,2
 1169 97 1169 97 1100.5 61.5 c 128,-1,3
 1032 26 1032 26 939 13 c 128,-1,4
 846 0 846 0 739 0 c 2,5,-1
 163 0 l 2,6,7
 146 0 146 0 137.5 10 c 128,-1,8
 129 20 129 20 129 35 c 2,9,-1
 129 1077 l 2,10,11
 129 1095 129 1095 140 1104.5 c 128,-1,12
 151 1114 151 1114 168 1114 c 2,13,-1
 626 1114 l 2,14,15
 698 1114 698 1114 768 1112.5 c 128,-1,16
 838 1111 838 1111 900.5 1102.5 c 128,-1,17
 963 1094 963 1094 1015.5 1077 c 128,-1,18
 1068 1060 1068 1060 1106.5 1029 c 128,-1,19
 1145 998 1145 998 1166.5 951 c 128,-1,20
 1188 904 1188 904 1188 836 c 0,21,22
 1188 772 1188 772 1168.5 729 c 128,-1,23
 1149 686 1149 686 1120 659.5 c 128,-1,24
 1091 633 1091 633 1057 619 c 128,-1,25
 1023 605 1023 605 994 599.5 c 128,-1,26
 965 594 965 594 945.5 594 c 128,-1,27
 926 594 926 594 927 594 c 0,28,29
 988 588 988 588 1045 573 c 128,-1,30
 1102 558 1102 558 1147 527.5 c 128,-1,31
 1192 497 1192 497 1219 448 c 128,-1,32
 1246 399 1246 399 1247 326 c 1,0,1
1103 836 m 0,33,34
 1103 887 1103 887 1086 926.5 c 128,-1,35
 1069 966 1069 966 1021 993 c 128,-1,36
 973 1020 973 1020 887 1034 c 128,-1,37
 801 1048 801 1048 663 1048 c 2,38,-1
 214 1048 l 1,39,-1
 214 619 l 1,40,-1
 687 619 l 2,41,42
 795 619 795 619 873.5 627.5 c 128,-1,43
 952 636 952 636 1003 660 c 128,-1,44
 1054 684 1054 684 1078.5 726.5 c 128,-1,45
 1103 769 1103 769 1103 836 c 0,33,34
1162 326 m 0,46,47
 1162 395 1162 395 1128.5 441 c 128,-1,48
 1095 487 1095 487 1033.5 514 c 128,-1,49
 972 541 972 541 884 552.5 c 128,-1,50
 796 564 796 564 687 564 c 2,51,-1
 214 564 l 1,52,-1
 214 66 l 1,53,-1
 777 66 l 2,54,55
 912 66 912 66 989.5 88 c 128,-1,56
 1067 110 1067 110 1105 146 c 128,-1,57
 1143 182 1143 182 1152.5 229 c 128,-1,58
 1162 276 1162 276 1162 326 c 0,46,47
EndSplineSet
EndChar

StartChar: C
Encoding: 67 67 42
Width: 1420
GlyphClass: 2
Flags: W
HStem: -21 66<503.307 1100.64> 1069 66<503.307 1100.64>
VStem: 70 85<313.005 800.995>
LayerCount: 2
Fore
SplineSet
70 557 m 256,0,1
 70 713 70 713 117.5 822.5 c 128,-1,2
 165 932 165 932 259 1001.5 c 128,-1,3
 353 1071 353 1071 493.5 1103 c 128,-1,4
 634 1135 634 1135 820 1135 c 0,5,6
 949 1135 949 1135 1072 1111.5 c 128,-1,7
 1195 1088 1195 1088 1320 1036 c 0,8,9
 1341 1027 1341 1027 1347 1013.5 c 128,-1,10
 1353 1000 1353 1000 1348.5 988.5 c 128,-1,11
 1344 977 1344 977 1330.5 971 c 128,-1,12
 1317 965 1317 965 1299 973 c 0,13,14
 1184 1021 1184 1021 1060 1045 c 128,-1,15
 936 1069 936 1069 820 1069 c 0,16,17
 642 1069 642 1069 516 1039.5 c 128,-1,18
 390 1010 390 1010 309.5 947.5 c 128,-1,19
 229 885 229 885 192 788.5 c 128,-1,20
 155 692 155 692 155 557 c 256,21,22
 155 422 155 422 192 325.5 c 128,-1,23
 229 229 229 229 309.5 166.5 c 128,-1,24
 390 104 390 104 516 74.5 c 128,-1,25
 642 45 642 45 820 45 c 0,26,27
 936 45 936 45 1060 69 c 128,-1,28
 1184 93 1184 93 1299 141 c 0,29,30
 1317 148 1317 148 1330.5 142.5 c 128,-1,31
 1344 137 1344 137 1348.5 125.5 c 128,-1,32
 1353 114 1353 114 1347 100.5 c 128,-1,33
 1341 87 1341 87 1320 78 c 0,34,35
 1195 26 1195 26 1072 2.5 c 128,-1,36
 949 -21 949 -21 820 -21 c 0,37,38
 634 -21 634 -21 493.5 11 c 128,-1,39
 353 43 353 43 259 112.5 c 128,-1,40
 165 182 165 182 117.5 291.5 c 128,-1,41
 70 401 70 401 70 557 c 256,0,1
EndSplineSet
EndChar

StartChar: D
Encoding: 68 68 43
Width: 1592
GlyphClass: 2
Flags: W
HStem: 0 66<214 1145.93> 1048 66<214 1145.93>
VStem: 129 85<66 1048> 1431 85<298.329 815.521>
LayerCount: 2
Fore
SplineSet
1516 559 m 0,0,1
 1516 399 1516 399 1474 292 c 128,-1,2
 1432 185 1432 185 1349 120 c 128,-1,3
 1266 55 1266 55 1142.5 27.5 c 128,-1,4
 1019 0 1019 0 856 0 c 2,5,-1
 168 0 l 2,6,7
 153 0 153 0 145.5 0.5 c 128,-1,8
 138 1 138 1 134 4.5 c 128,-1,9
 130 8 130 8 129.5 15 c 128,-1,10
 129 22 129 22 129 35 c 2,11,-1
 129 1077 l 2,12,13
 129 1092 129 1092 129.5 1099.5 c 128,-1,14
 130 1107 130 1107 134 1110 c 128,-1,15
 138 1113 138 1113 146.5 1113.5 c 128,-1,16
 155 1114 155 1114 170 1114 c 2,17,-1
 856 1114 l 2,18,19
 1019 1114 1019 1114 1142.5 1086 c 128,-1,20
 1266 1058 1266 1058 1349 992.5 c 128,-1,21
 1432 927 1432 927 1474 821 c 128,-1,22
 1516 715 1516 715 1516 559 c 0,0,1
1431 559 m 0,23,24
 1431 688 1431 688 1402 780.5 c 128,-1,25
 1373 873 1373 873 1306 932.5 c 128,-1,26
 1239 992 1239 992 1129 1020 c 128,-1,27
 1019 1048 1019 1048 856 1048 c 2,28,-1
 214 1048 l 1,29,-1
 214 66 l 1,30,-1
 856 66 l 2,31,32
 1019 66 1019 66 1129 94 c 128,-1,33
 1239 122 1239 122 1306 181.5 c 128,-1,34
 1373 241 1373 241 1402 334.5 c 128,-1,35
 1431 428 1431 428 1431 559 c 0,23,24
EndSplineSet
EndChar

StartChar: E
Encoding: 69 69 44
Width: 1258
GlyphClass: 2
Flags: W
HStem: 0 66<214 1148.81> 540 61<214 1119.81> 1048 66<214 1146.81>
VStem: 129 85<66 540 601 1048>
LayerCount: 2
Fore
SplineSet
1155 35 m 0,0,1
 1155 20 1155 20 1149 13 c 128,-1,2
 1143 6 1143 6 1132.5 3 c 128,-1,3
 1122 0 1122 0 1109 0 c 128,-1,4
 1096 0 1096 0 1081 0 c 2,5,-1
 168 0 l 2,6,7
 153 0 153 0 145.5 0.5 c 128,-1,8
 138 1 138 1 134 4.5 c 128,-1,9
 130 8 130 8 129.5 15 c 128,-1,10
 129 22 129 22 129 35 c 2,11,-1
 129 1077 l 2,12,13
 129 1092 129 1092 129.5 1099.5 c 128,-1,14
 130 1107 130 1107 133 1110 c 128,-1,15
 136 1113 136 1113 143.5 1113.5 c 128,-1,16
 151 1114 151 1114 166 1114 c 2,17,-1
 1079 1114 l 2,18,19
 1094 1114 1094 1114 1107 1114 c 128,-1,20
 1120 1114 1120 1114 1130.5 1111 c 128,-1,21
 1141 1108 1141 1108 1147 1101 c 128,-1,22
 1153 1094 1153 1094 1153 1079 c 0,23,24
 1153 1067 1153 1067 1147 1060.5 c 128,-1,25
 1141 1054 1141 1054 1130.5 1051 c 128,-1,26
 1120 1048 1120 1048 1107 1048 c 128,-1,27
 1094 1048 1094 1048 1079 1048 c 2,28,-1
 214 1048 l 1,29,-1
 214 601 l 1,30,-1
 1052 601 l 2,31,32
 1067 601 1067 601 1080 601 c 128,-1,33
 1093 601 1093 601 1103.5 599 c 128,-1,34
 1114 597 1114 597 1120 590.5 c 128,-1,35
 1126 584 1126 584 1126 572 c 0,36,37
 1126 557 1126 557 1120 550.5 c 128,-1,38
 1114 544 1114 544 1103.5 541.5 c 128,-1,39
 1093 539 1093 539 1080 539.5 c 128,-1,40
 1067 540 1067 540 1052 540 c 2,41,-1
 214 540 l 1,42,-1
 214 66 l 1,43,-1
 1081 66 l 2,44,45
 1096 66 1096 66 1109 66 c 128,-1,46
 1122 66 1122 66 1132.5 63 c 128,-1,47
 1143 60 1143 60 1149 53.5 c 128,-1,48
 1155 47 1155 47 1155 35 c 0,0,1
EndSplineSet
EndChar

StartChar: F
Encoding: 70 70 45
Width: 1223
GlyphClass: 2
Flags: W
HStem: 0 21G<165.5 185> 528 66<214 1066.95> 1048 66<214 1206.96>
VStem: 129 85<0.0214844 528 594 1048>
LayerCount: 2
Fore
SplineSet
214 70 m 2,0,1
 214 41 214 41 205.5 20.5 c 128,-1,2
 197 0 197 0 173 0 c 0,3,4
 158 0 158 0 149.5 5.5 c 128,-1,5
 141 11 141 11 136.5 20.5 c 128,-1,6
 132 30 132 30 130.5 42.5 c 128,-1,7
 129 55 129 55 129 68 c 2,8,-1
 129 1077 l 2,9,10
 129 1092 129 1092 129.5 1099.5 c 128,-1,11
 130 1107 130 1107 133 1110 c 128,-1,12
 136 1113 136 1113 143.5 1113.5 c 128,-1,13
 151 1114 151 1114 166 1114 c 2,14,-1
 1144 1114 l 2,15,16
 1157 1114 1157 1114 1168.5 1113.5 c 128,-1,17
 1180 1113 1180 1113 1188.5 1109.5 c 128,-1,18
 1197 1106 1197 1106 1202 1099 c 128,-1,19
 1207 1092 1207 1092 1207 1079 c 0,20,21
 1207 1056 1207 1056 1190 1052 c 128,-1,22
 1173 1048 1173 1048 1144 1048 c 2,23,-1
 214 1048 l 1,24,-1
 214 594 l 1,25,-1
 1001 594 l 2,26,27
 1030 594 1030 594 1048.5 590 c 128,-1,28
 1067 586 1067 586 1067 563 c 0,29,30
 1067 550 1067 550 1061.5 543 c 128,-1,31
 1056 536 1056 536 1047 532.5 c 128,-1,32
 1038 529 1038 529 1026 528.5 c 128,-1,33
 1014 528 1014 528 1001 528 c 2,34,-1
 214 528 l 1,35,-1
 214 70 l 2,0,1
EndSplineSet
EndChar

StartChar: G
Encoding: 71 71 46
Width: 1534
GlyphClass: 2
Flags: W
HStem: -21 66<503.307 1174.65> 536 70<809.704 1384> 1069 66<503.307 1100.64>
VStem: 70 85<313.005 800.995> 1384 72<109.953 536>
LayerCount: 2
Fore
SplineSet
820 45 m 0,0,1
 968 45 968 45 1108 65 c 128,-1,2
 1248 85 1248 85 1384 118 c 1,3,-1
 1384 536 l 1,4,-1
 874 536 l 2,5,6
 862 536 862 536 849.5 536.5 c 128,-1,7
 837 537 837 537 826.5 540.5 c 128,-1,8
 816 544 816 544 809.5 551 c 128,-1,9
 803 558 803 558 803 571 c 256,10,11
 803 584 803 584 809.5 591 c 128,-1,12
 816 598 816 598 826 601.5 c 128,-1,13
 836 605 836 605 848.5 605.5 c 128,-1,14
 861 606 861 606 874 606 c 2,15,-1
 1384 606 l 2,16,17
 1426 606 1426 606 1441 590 c 128,-1,18
 1456 574 1456 574 1456 536 c 2,19,-1
 1456 118 l 2,20,21
 1456 87 1456 87 1433 70.5 c 128,-1,22
 1410 54 1410 54 1384 49 c 0,23,24
 1236 20 1236 20 1097 -0.5 c 128,-1,25
 958 -21 958 -21 820 -21 c 0,26,27
 634 -21 634 -21 493.5 11 c 128,-1,28
 353 43 353 43 259 112.5 c 128,-1,29
 165 182 165 182 117.5 291.5 c 128,-1,30
 70 401 70 401 70 557 c 256,31,32
 70 713 70 713 117.5 822.5 c 128,-1,33
 165 932 165 932 259 1001.5 c 128,-1,34
 353 1071 353 1071 493.5 1103 c 128,-1,35
 634 1135 634 1135 820 1135 c 0,36,37
 949 1135 949 1135 1072 1111.5 c 128,-1,38
 1195 1088 1195 1088 1320 1036 c 0,39,40
 1341 1027 1341 1027 1347 1013.5 c 128,-1,41
 1353 1000 1353 1000 1348.5 988.5 c 128,-1,42
 1344 977 1344 977 1330.5 971 c 128,-1,43
 1317 965 1317 965 1299 973 c 0,44,45
 1184 1021 1184 1021 1060 1045 c 128,-1,46
 936 1069 936 1069 820 1069 c 0,47,48
 642 1069 642 1069 516 1039.5 c 128,-1,49
 390 1010 390 1010 309.5 947.5 c 128,-1,50
 229 885 229 885 192 788.5 c 128,-1,51
 155 692 155 692 155 557 c 256,52,53
 155 422 155 422 192 325.5 c 128,-1,54
 229 229 229 229 309.5 166.5 c 128,-1,55
 390 104 390 104 516 74.5 c 128,-1,56
 642 45 642 45 820 45 c 0,0,1
EndSplineSet
EndChar

StartChar: H
Encoding: 72 72 47
Width: 1303
GlyphClass: 2
Flags: W
HStem: 0 21G<166.5 185 1125.5 1140.5> 533 59<213 1090> 1094 20G<168.5 187 1124.5 1139.5>
VStem: 128 85<0.09375 533 592 1113.73> 1090 85<0.00585938 533 592 1113.99>
LayerCount: 2
Fore
SplineSet
128 1044 m 2,0,1
 128 1057 128 1057 129.5 1069.5 c 128,-1,2
 131 1082 131 1082 136.5 1092 c 128,-1,3
 142 1102 142 1102 151.5 1108 c 128,-1,4
 161 1114 161 1114 176 1114 c 0,5,6
 198 1114 198 1114 205.5 1091.5 c 128,-1,7
 213 1069 213 1069 213 1044 c 2,8,-1
 213 592 l 1,9,-1
 1090 592 l 1,10,-1
 1090 1044 l 2,11,12
 1090 1057 1090 1057 1091 1069.5 c 128,-1,13
 1092 1082 1092 1082 1096.5 1092 c 128,-1,14
 1101 1102 1101 1102 1109 1108 c 128,-1,15
 1117 1114 1117 1114 1132 1114 c 256,16,17
 1147 1114 1147 1114 1155.5 1108 c 128,-1,18
 1164 1102 1164 1102 1168.5 1092 c 128,-1,19
 1173 1082 1173 1082 1174 1069.5 c 128,-1,20
 1175 1057 1175 1057 1175 1044 c 2,21,-1
 1175 70 l 2,22,23
 1175 57 1175 57 1174 44.5 c 128,-1,24
 1173 32 1173 32 1168.5 22 c 128,-1,25
 1164 12 1164 12 1156 6 c 128,-1,26
 1148 0 1148 0 1133 0 c 256,27,28
 1118 0 1118 0 1109.5 6 c 128,-1,29
 1101 12 1101 12 1096.5 22 c 128,-1,30
 1092 32 1092 32 1091 44.5 c 128,-1,31
 1090 57 1090 57 1090 70 c 2,32,-1
 1090 533 l 1,33,-1
 213 533 l 1,34,-1
 213 70 l 2,35,36
 213 45 213 45 204.5 22.5 c 128,-1,37
 196 0 196 0 174 0 c 0,38,39
 159 0 159 0 149.5 6 c 128,-1,40
 140 12 140 12 135.5 22 c 128,-1,41
 131 32 131 32 129.5 44.5 c 128,-1,42
 128 57 128 57 128 70 c 2,43,-1
 128 1044 l 2,0,1
EndSplineSet
EndChar

StartChar: I
Encoding: 73 73 48
Width: 1092
GlyphClass: 2
Flags: W
HStem: 0 66<81.2196 504 589 1011.81> 1048 66<81.2196 504 589 1011.81>
VStem: 504 85<66 1048>
LayerCount: 2
Fore
SplineSet
504 1048 m 1,0,-1
 147 1048 l 2,1,2
 134 1048 134 1048 121 1048 c 128,-1,3
 108 1048 108 1048 97.5 1051 c 128,-1,4
 87 1054 87 1054 80.5 1060.5 c 128,-1,5
 74 1067 74 1067 74 1079 c 0,6,7
 74 1094 74 1094 81 1101 c 128,-1,8
 88 1108 88 1108 98.5 1111 c 128,-1,9
 109 1114 109 1114 122 1114 c 128,-1,10
 135 1114 135 1114 147 1114 c 2,11,-1
 946 1114 l 2,12,13
 961 1114 961 1114 974 1114 c 128,-1,14
 987 1114 987 1114 996.5 1111 c 128,-1,15
 1006 1108 1006 1108 1012 1101 c 128,-1,16
 1018 1094 1018 1094 1018 1081 c 256,17,18
 1018 1068 1018 1068 1012 1061 c 128,-1,19
 1006 1054 1006 1054 996.5 1051 c 128,-1,20
 987 1048 987 1048 974 1048 c 128,-1,21
 961 1048 961 1048 946 1048 c 2,22,-1
 589 1048 l 1,23,-1
 589 66 l 1,24,-1
 946 66 l 2,25,26
 961 66 961 66 974 66 c 128,-1,27
 987 66 987 66 996.5 63 c 128,-1,28
 1006 60 1006 60 1012 53 c 128,-1,29
 1018 46 1018 46 1018 33 c 256,30,31
 1018 20 1018 20 1012 13 c 128,-1,32
 1006 6 1006 6 996.5 3 c 128,-1,33
 987 0 987 0 974 0 c 128,-1,34
 961 0 961 0 946 0 c 2,35,-1
 147 0 l 2,36,37
 135 0 135 0 122 0 c 128,-1,38
 109 0 109 0 98.5 3 c 128,-1,39
 88 6 88 6 81 13 c 128,-1,40
 74 20 74 20 74 35 c 0,41,42
 74 47 74 47 80.5 53.5 c 128,-1,43
 87 60 87 60 97.5 63 c 128,-1,44
 108 66 108 66 121 66 c 128,-1,45
 134 66 134 66 147 66 c 2,46,-1
 504 66 l 1,47,-1
 504 1048 l 1,0,-1
EndSplineSet
EndChar

StartChar: J
Encoding: 74 74 49
Width: 1040
GlyphClass: 2
Flags: W
HStem: -20 69<237.493 661.678> 1094 20G<868.5 889.5>
VStem: 28 77<153.938 267.201> 838 85<245.32 1092.86>
LayerCount: 2
Fore
SplineSet
923 594 m 2,0,1
 923 438 923 438 902.5 322.5 c 128,-1,2
 882 207 882 207 832.5 131 c 128,-1,3
 783 55 783 55 700 17.5 c 128,-1,4
 617 -20 617 -20 492 -20 c 0,5,6
 407 -20 407 -20 331.5 -10 c 128,-1,7
 256 0 256 0 196 26 c 128,-1,8
 136 52 136 52 93.5 97.5 c 128,-1,9
 51 143 51 143 32 214 c 0,10,11
 28 226 28 226 28 238 c 0,12,13
 28 258 28 258 38 267.5 c 128,-1,14
 48 277 48 277 62 277 c 0,15,16
 75 277 75 277 87.5 267.5 c 128,-1,17
 100 258 100 258 105 240 c 0,18,19
 121 171 121 171 161.5 133 c 128,-1,20
 202 95 202 95 255.5 76 c 128,-1,21
 309 57 309 57 371 53 c 128,-1,22
 433 49 433 49 492 49 c 0,23,24
 598 49 598 49 665.5 84.5 c 128,-1,25
 733 120 733 120 771 189 c 128,-1,26
 809 258 809 258 823.5 359.5 c 128,-1,27
 838 461 838 461 838 594 c 2,28,-1
 838 1044 l 2,29,30
 838 1073 838 1073 846 1093.5 c 128,-1,31
 854 1114 854 1114 883 1114 c 0,32,33
 896 1114 896 1114 904 1107.5 c 128,-1,34
 912 1101 912 1101 916 1091 c 128,-1,35
 920 1081 920 1081 921.5 1068.5 c 128,-1,36
 923 1056 923 1056 923 1044 c 2,37,-1
 923 594 l 2,0,1
EndSplineSet
EndChar

StartChar: K
Encoding: 75 75 50
Width: 1126
GlyphClass: 2
Flags: W
HStem: 0 21G<165.5 185> 1094 20G<160.5 187>
VStem: 129 86<0.0200195 444 524 1091.31>
LayerCount: 2
Fore
SplineSet
485 621 m 1,0,-1
 1068 89 l 2,1,2
 1088 70 1088 70 1088 49 c 0,3,4
 1088 34 1088 34 1078 23 c 128,-1,5
 1068 12 1068 12 1053 12 c 0,6,7
 1036 12 1036 12 1020 27 c 2,8,-1
 422 580 l 1,9,-1
 215 444 l 1,10,-1
 215 70 l 2,11,12
 215 41 215 41 206 20.5 c 128,-1,13
 197 0 197 0 173 0 c 0,14,15
 158 0 158 0 149.5 5.5 c 128,-1,16
 141 11 141 11 136.5 20.5 c 128,-1,17
 132 30 132 30 130.5 42.5 c 128,-1,18
 129 55 129 55 129 68 c 2,19,-1
 129 1042 l 2,20,21
 129 1071 129 1071 137.5 1092.5 c 128,-1,22
 146 1114 146 1114 175 1114 c 0,23,24
 199 1114 199 1114 207 1092 c 128,-1,25
 215 1070 215 1070 215 1044 c 2,26,-1
 215 524 l 1,27,-1
 1014 1084 l 2,28,29
 1025 1092 1025 1092 1035.5 1095.5 c 128,-1,30
 1046 1099 1046 1099 1054 1099 c 0,31,32
 1070 1099 1070 1099 1078.5 1090 c 128,-1,33
 1087 1081 1087 1081 1087 1067 c 0,34,35
 1087 1045 1087 1045 1065 1029 c 2,36,-1
 485 621 l 1,0,-1
EndSplineSet
EndChar

StartChar: L
Encoding: 76 76 51
Width: 1146
GlyphClass: 2
Flags: W
HStem: 0 66<214 1103.17> 1094 20G<168.5 182>
VStem: 129 85<66 1113.84>
LayerCount: 2
Fore
SplineSet
170 0 m 2,0,1
 155 0 155 0 146.5 1 c 128,-1,2
 138 2 138 2 134 5.5 c 128,-1,3
 130 9 130 9 129.5 16.5 c 128,-1,4
 129 24 129 24 129 37 c 2,5,-1
 129 1044 l 2,6,7
 129 1057 129 1057 131 1069.5 c 128,-1,8
 133 1082 133 1082 138 1092 c 128,-1,9
 143 1102 143 1102 152 1108 c 128,-1,10
 161 1114 161 1114 176 1114 c 0,11,12
 188 1114 188 1114 195.5 1107.5 c 128,-1,13
 203 1101 203 1101 207 1091 c 128,-1,14
 211 1081 211 1081 212.5 1068.5 c 128,-1,15
 214 1056 214 1056 214 1044 c 2,16,-1
 214 66 l 1,17,-1
 1073 66 l 2,18,19
 1093 66 1093 66 1103.5 55.5 c 128,-1,20
 1114 45 1114 45 1114 33 c 0,21,22
 1114 20 1114 20 1103.5 10 c 128,-1,23
 1093 0 1093 0 1073 0 c 2,24,-1
 170 0 l 2,0,1
EndSplineSet
EndChar

StartChar: M
Encoding: 77 77 52
Width: 1708
GlyphClass: 2
Flags: W
HStem: 0 21G<157.5 184.5 1523.5 1550.5>
VStem: 129 85<21.1427 954> 1494 85<21.1427 954>
LayerCount: 2
Fore
SplineSet
854 139 m 1,0,-1
 1474 1067 l 2,1,2
 1489 1090 1489 1090 1505 1100 c 128,-1,3
 1521 1110 1521 1110 1535 1110 c 0,4,5
 1554 1110 1554 1110 1566.5 1094.5 c 128,-1,6
 1579 1079 1579 1079 1579 1056 c 2,7,-1
 1579 70 l 2,8,9
 1579 41 1579 41 1572 20.5 c 128,-1,10
 1565 0 1565 0 1536 0 c 0,11,12
 1511 0 1511 0 1502.5 20.5 c 128,-1,13
 1494 41 1494 41 1494 70 c 2,14,-1
 1494 954 l 1,15,-1
 903 86 l 2,16,17
 880 52 880 52 854 52 c 256,18,19
 828 52 828 52 805 86 c 2,20,-1
 214 954 l 1,21,-1
 214 70 l 2,22,23
 214 41 214 41 205.5 20.5 c 128,-1,24
 197 0 197 0 172 0 c 0,25,26
 143 0 143 0 136 20.5 c 128,-1,27
 129 41 129 41 129 70 c 2,28,-1
 129 1056 l 2,29,30
 129 1079 129 1079 141.5 1094.5 c 128,-1,31
 154 1110 154 1110 173 1110 c 0,32,33
 187 1110 187 1110 203 1100 c 128,-1,34
 219 1090 219 1090 234 1067 c 2,35,-1
 854 139 l 1,0,-1
EndSplineSet
EndChar

StartChar: N
Encoding: 78 78 53
Width: 1470
GlyphClass: 2
Flags: W
HStem: 0 21G<158.5 185 1295.5 1324> 1094 20G<1291.5 1312>
VStem: 129 85<21.1427 986> 1256 85<128 1113.99>
LayerCount: 2
Fore
SplineSet
1256 128 m 1,0,-1
 1256 1038 l 2,1,2
 1256 1053 1256 1053 1257 1066.5 c 128,-1,3
 1258 1080 1258 1080 1262.5 1090.5 c 128,-1,4
 1267 1101 1267 1101 1275.5 1107.5 c 128,-1,5
 1284 1114 1284 1114 1299 1114 c 0,6,7
 1325 1114 1325 1114 1333 1091.5 c 128,-1,8
 1341 1069 1341 1069 1341 1038 c 2,9,-1
 1341 64 l 2,10,11
 1341 0 1341 0 1307 0 c 0,12,13
 1284 0 1284 0 1250 31 c 2,14,-1
 214 986 l 1,15,-1
 214 70 l 2,16,17
 214 41 214 41 205.5 20.5 c 128,-1,18
 197 0 197 0 173 0 c 0,19,20
 144 0 144 0 136.5 20.5 c 128,-1,21
 129 41 129 41 129 70 c 2,22,-1
 129 1049 l 2,23,24
 129 1079 129 1079 140 1095 c 128,-1,25
 151 1111 151 1111 170 1111 c 0,26,27
 195 1111 195 1111 228 1081 c 2,28,-1
 1256 128 l 1,0,-1
EndSplineSet
EndChar

StartChar: O
Encoding: 79 79 54
Width: 1609
GlyphClass: 2
Flags: W
HStem: -21 66<496.472 1111.53> 1069 66<496.472 1111.53>
VStem: 70 85<316.593 797.165> 1454 85<316.593 797.165>
LayerCount: 2
Fore
SplineSet
1539 557 m 256,0,1
 1539 411 1539 411 1495.5 302.5 c 128,-1,2
 1452 194 1452 194 1361.5 122 c 128,-1,3
 1271 50 1271 50 1132.5 14.5 c 128,-1,4
 994 -21 994 -21 804 -21 c 256,5,6
 614 -21 614 -21 475.5 14.5 c 128,-1,7
 337 50 337 50 247 122 c 128,-1,8
 157 194 157 194 113.5 302.5 c 128,-1,9
 70 411 70 411 70 557 c 256,10,11
 70 703 70 703 113.5 811.5 c 128,-1,12
 157 920 157 920 247 992 c 128,-1,13
 337 1064 337 1064 475.5 1099.5 c 128,-1,14
 614 1135 614 1135 804 1135 c 256,15,16
 994 1135 994 1135 1132.5 1099.5 c 128,-1,17
 1271 1064 1271 1064 1361.5 992 c 128,-1,18
 1452 920 1452 920 1495.5 811.5 c 128,-1,19
 1539 703 1539 703 1539 557 c 256,0,1
155 557 m 0,20,21
 155 417 155 417 195 320 c 128,-1,22
 235 223 235 223 315.5 161.5 c 128,-1,23
 396 100 396 100 518 72.5 c 128,-1,24
 640 45 640 45 804 45 c 256,25,26
 968 45 968 45 1090 72.5 c 128,-1,27
 1212 100 1212 100 1293 161.5 c 128,-1,28
 1374 223 1374 223 1414 320 c 128,-1,29
 1454 417 1454 417 1454 557 c 0,30,31
 1454 696 1454 696 1414 793.5 c 128,-1,32
 1374 891 1374 891 1293 952.5 c 128,-1,33
 1212 1014 1212 1014 1090 1041.5 c 128,-1,34
 968 1069 968 1069 804 1069 c 256,35,36
 640 1069 640 1069 518 1041.5 c 128,-1,37
 396 1014 396 1014 315.5 952.5 c 128,-1,38
 235 891 235 891 195 793.5 c 128,-1,39
 155 696 155 696 155 557 c 0,20,21
EndSplineSet
EndChar

StartChar: P
Encoding: 80 80 55
Width: 1172
GlyphClass: 2
Flags: W
HStem: 0 21G<159.5 186> 355 55<213 519.601 684 853.896> 1048 66<213 841.451>
VStem: 128 85<23.2052 355 410 1048> 1037 85<531.93 905.086>
LayerCount: 2
Fore
SplineSet
1122 717 m 256,0,1
 1122 630 1122 630 1102.5 568 c 128,-1,2
 1083 506 1083 506 1045.5 464 c 128,-1,3
 1008 422 1008 422 954.5 397.5 c 128,-1,4
 901 373 901 373 833 361 c 128,-1,5
 765 349 765 349 684 346.5 c 128,-1,6
 603 344 603 344 511 347 c 2,7,-1
 213 355 l 1,8,-1
 213 76 l 2,9,10
 213 47 213 47 205.5 23.5 c 128,-1,11
 198 0 198 0 174 0 c 0,12,13
 145 0 145 0 136.5 22.5 c 128,-1,14
 128 45 128 45 128 76 c 2,15,-1
 128 1077 l 2,16,17
 128 1092 128 1092 130.5 1099.5 c 128,-1,18
 133 1107 133 1107 139 1110 c 128,-1,19
 145 1113 145 1113 154.5 1113.5 c 128,-1,20
 164 1114 164 1114 179 1114 c 2,21,-1
 511 1114 l 2,22,23
 602 1114 602 1114 682.5 1109 c 128,-1,24
 763 1104 763 1104 831 1088.5 c 128,-1,25
 899 1073 899 1073 953 1046 c 128,-1,26
 1007 1019 1007 1019 1044.5 974.5 c 128,-1,27
 1082 930 1082 930 1102 867 c 128,-1,28
 1122 804 1122 804 1122 717 c 256,0,1
1037 717 m 0,29,30
 1037 821 1037 821 1005.5 886 c 128,-1,31
 974 951 974 951 909.5 987 c 128,-1,32
 845 1023 845 1023 746 1035.5 c 128,-1,33
 647 1048 647 1048 511 1048 c 2,34,-1
 213 1048 l 1,35,-1
 213 410 l 1,36,-1
 511 410 l 2,37,38
 647 410 647 410 746.5 418.5 c 128,-1,39
 846 427 846 427 910.5 458.5 c 128,-1,40
 975 490 975 490 1006 551 c 128,-1,41
 1037 612 1037 612 1037 717 c 0,29,30
EndSplineSet
EndChar

StartChar: Q
Encoding: 81 81 56
Width: 1611
GlyphClass: 2
Flags: W
HStem: -21 66<496.472 1015.12> 1069 66<496.472 1111.53>
VStem: 70 85<316.593 797.165> 950.5 70.5<-176.987 -12.9375> 1454 85<316.593 797.165>
LayerCount: 2
Fore
SplineSet
1015 -102 m 2,0,1
 1021 -131 1021 -131 1021 -151.5 c 128,-1,2
 1021 -172 1021 -172 997 -177 c 0,3,4
 982 -180 982 -180 973.5 -176 c 128,-1,5
 965 -172 965 -172 959 -163.5 c 128,-1,6
 953 -155 953 -155 950.5 -143 c 128,-1,7
 948 -131 948 -131 945 -119 c 2,8,-1
 898 109 l 2,9,10
 895 124 895 124 893 136.5 c 128,-1,11
 891 149 891 149 893 159.5 c 128,-1,12
 895 170 895 170 901 177 c 128,-1,13
 907 184 907 184 922 187 c 0,14,15
 934 189 934 189 942 184.5 c 128,-1,16
 950 180 950 180 955 171.5 c 128,-1,17
 960 163 960 163 963 151 c 128,-1,18
 966 139 966 139 968 126 c 2,19,-1
 1015 -102 l 2,0,1
1539 557 m 256,20,21
 1539 411 1539 411 1495.5 302.5 c 128,-1,22
 1452 194 1452 194 1361.5 122 c 128,-1,23
 1271 50 1271 50 1132.5 14.5 c 128,-1,24
 994 -21 994 -21 804 -21 c 256,25,26
 614 -21 614 -21 475.5 14.5 c 128,-1,27
 337 50 337 50 247 122 c 128,-1,28
 157 194 157 194 113.5 302.5 c 128,-1,29
 70 411 70 411 70 557 c 256,30,31
 70 703 70 703 113.5 811.5 c 128,-1,32
 157 920 157 920 247 992 c 128,-1,33
 337 1064 337 1064 475.5 1099.5 c 128,-1,34
 614 1135 614 1135 804 1135 c 256,35,36
 994 1135 994 1135 1132.5 1099.5 c 128,-1,37
 1271 1064 1271 1064 1361.5 992 c 128,-1,38
 1452 920 1452 920 1495.5 811.5 c 128,-1,39
 1539 703 1539 703 1539 557 c 256,20,21
155 557 m 0,40,41
 155 417 155 417 195 320 c 128,-1,42
 235 223 235 223 315.5 161.5 c 128,-1,43
 396 100 396 100 518 72.5 c 128,-1,44
 640 45 640 45 804 45 c 256,45,46
 968 45 968 45 1090 72.5 c 128,-1,47
 1212 100 1212 100 1293 161.5 c 128,-1,48
 1374 223 1374 223 1414 320 c 128,-1,49
 1454 417 1454 417 1454 557 c 0,50,51
 1454 696 1454 696 1414 793.5 c 128,-1,52
 1374 891 1374 891 1293 952.5 c 128,-1,53
 1212 1014 1212 1014 1090 1041.5 c 128,-1,54
 968 1069 968 1069 804 1069 c 256,55,56
 640 1069 640 1069 518 1041.5 c 128,-1,57
 396 1014 396 1014 315.5 952.5 c 128,-1,58
 235 891 235 891 195 793.5 c 128,-1,59
 155 696 155 696 155 557 c 0,40,41
EndSplineSet
EndChar

StartChar: R
Encoding: 82 82 57
Width: 1174
GlyphClass: 2
Flags: W
HStem: 0 21G<160.5 181> 431 57<213 587 685 849.29> 1048 66<213 850.246>
VStem: 128 85<23.2052 431 488 1048> 1023 85<606.011 926.746>
LayerCount: 2
Fore
SplineSet
1108 758 m 0,0,1
 1108 693 1108 693 1090 644 c 128,-1,2
 1072 595 1072 595 1041.5 559 c 128,-1,3
 1011 523 1011 523 969.5 499 c 128,-1,4
 928 475 928 475 881 460 c 128,-1,5
 834 445 834 445 783.5 437.5 c 128,-1,6
 733 430 733 430 685 428 c 1,7,-1
 1053 84 l 2,8,9
 1070 68 1070 68 1070.5 51 c 128,-1,10
 1071 34 1071 34 1060 24 c 128,-1,11
 1049 14 1049 14 1029.5 16 c 128,-1,12
 1010 18 1010 18 988 39 c 2,13,-1
 587 422 l 1,14,-1
 213 431 l 1,15,-1
 213 76 l 2,16,17
 213 61 213 61 211.5 47.5 c 128,-1,18
 210 34 210 34 206 23.5 c 128,-1,19
 202 13 202 13 194.5 6.5 c 128,-1,20
 187 0 187 0 175 0 c 0,21,22
 146 0 146 0 137 22.5 c 128,-1,23
 128 45 128 45 128 76 c 2,24,-1
 128 1077 l 2,25,26
 128 1092 128 1092 128.5 1099.5 c 128,-1,27
 129 1107 129 1107 132 1110 c 128,-1,28
 135 1113 135 1113 142.5 1113.5 c 128,-1,29
 150 1114 150 1114 165 1114 c 2,30,-1
 455 1114 l 2,31,32
 547 1114 547 1114 631 1112 c 128,-1,33
 715 1110 715 1110 787.5 1099 c 128,-1,34
 860 1088 860 1088 919 1066.5 c 128,-1,35
 978 1045 978 1045 1020 1005 c 128,-1,36
 1062 965 1062 965 1085 905 c 128,-1,37
 1108 845 1108 845 1108 758 c 0,0,1
1023 758 m 0,38,39
 1023 861 1023 861 985.5 919.5 c 128,-1,40
 948 978 948 978 876 1006.5 c 128,-1,41
 804 1035 804 1035 698 1041.5 c 128,-1,42
 592 1048 592 1048 455 1048 c 2,43,-1
 213 1048 l 1,44,-1
 213 488 l 1,45,-1
 588 488 l 2,46,47
 675 488 675 488 754 496.5 c 128,-1,48
 833 505 833 505 892.5 533.5 c 128,-1,49
 952 562 952 562 987.5 615.5 c 128,-1,50
 1023 669 1023 669 1023 758 c 0,38,39
EndSplineSet
EndChar

StartChar: S
Encoding: 83 83 58
Width: 1448
GlyphClass: 2
Flags: W
HStem: -20 66<443.859 1096.01> 545.5 72<378.486 1083.26> 971 65<1193.61 1287.2> 1069 66<384.014 1032.09>
VStem: 80 85<724.623 938.783> 1312 85<183.623 422.859>
LayerCount: 2
Fore
SplineSet
1397 311 m 0,0,1
 1397 247 1397 247 1374 197.5 c 128,-1,2
 1351 148 1351 148 1310 111.5 c 128,-1,3
 1269 75 1269 75 1212.5 49.5 c 128,-1,4
 1156 24 1156 24 1090 8.5 c 128,-1,5
 1024 -7 1024 -7 949.5 -13.5 c 128,-1,6
 875 -20 875 -20 799 -20 c 0,7,8
 692 -20 692 -20 586 -9 c 128,-1,9
 480 2 480 2 388 18.5 c 128,-1,10
 296 35 296 35 225.5 54 c 128,-1,11
 155 73 155 73 119 90 c 0,12,13
 105 97 105 97 98.5 107.5 c 128,-1,14
 92 118 92 118 92 129 c 0,15,16
 92 141 92 141 98.5 149.5 c 128,-1,17
 105 158 105 158 118 158 c 0,18,19
 124 158 124 158 132 155 c 0,20,21
 171 139 171 139 244 120 c 128,-1,22
 317 101 317 101 409.5 84.5 c 128,-1,23
 502 68 502 68 606.5 57 c 128,-1,24
 711 46 711 46 814 46 c 0,25,26
 914 46 914 46 1004 59 c 128,-1,27
 1094 72 1094 72 1162.5 103 c 128,-1,28
 1231 134 1231 134 1271.5 185 c 128,-1,29
 1312 236 1312 236 1312 311 c 0,30,31
 1312 374 1312 374 1277.5 414.5 c 128,-1,32
 1243 455 1243 455 1184 479.5 c 128,-1,33
 1125 504 1125 504 1046 516.5 c 128,-1,34
 967 529 967 529 878.5 535.5 c 128,-1,35
 790 542 790 542 696 545.5 c 128,-1,36
 602 549 602 549 513.5 557 c 128,-1,37
 425 565 425 565 346 580 c 128,-1,38
 267 595 267 595 208 624 c 128,-1,39
 149 653 149 653 114.5 699 c 128,-1,40
 80 745 80 745 80 815 c 0,41,42
 80 879 80 879 104 928 c 128,-1,43
 128 977 128 977 170 1012.5 c 128,-1,44
 212 1048 212 1048 269.5 1071.5 c 128,-1,45
 327 1095 327 1095 394.5 1109 c 128,-1,46
 462 1123 462 1123 536 1129 c 128,-1,47
 610 1135 610 1135 686 1135 c 0,48,49
 778 1135 778 1135 868.5 1126.5 c 128,-1,50
 959 1118 959 1118 1038 1104 c 128,-1,51
 1117 1090 1117 1090 1180 1072 c 128,-1,52
 1243 1054 1243 1054 1281 1036 c 0,53,54
 1289 1032 1289 1032 1293 1024.5 c 128,-1,55
 1297 1017 1297 1017 1297 1009 c 0,56,57
 1297 995 1297 995 1287.5 983 c 128,-1,58
 1278 971 1278 971 1261 971 c 0,59,60
 1252 971 1252 971 1244 975 c 0,61,62
 1191 997 1191 997 1126.5 1014.5 c 128,-1,63
 1062 1032 1062 1032 990 1044 c 128,-1,64
 918 1056 918 1056 841.5 1062.5 c 128,-1,65
 765 1069 765 1069 690 1069 c 0,66,67
 586 1069 586 1069 491 1057 c 128,-1,68
 396 1045 396 1045 323.5 1016.5 c 128,-1,69
 251 988 251 988 208 940.5 c 128,-1,70
 165 893 165 893 165 821 c 0,71,72
 165 766 165 766 199.5 731.5 c 128,-1,73
 234 697 234 697 293 676 c 128,-1,74
 352 655 352 655 431 644.5 c 128,-1,75
 510 634 510 634 598.5 628 c 128,-1,76
 687 622 687 622 781 617.5 c 128,-1,77
 875 613 875 613 963.5 602.5 c 128,-1,78
 1052 592 1052 592 1131 573.5 c 128,-1,79
 1210 555 1210 555 1269 522 c 128,-1,80
 1328 489 1328 489 1362.5 437.5 c 128,-1,81
 1397 386 1397 386 1397 311 c 0,0,1
EndSplineSet
EndChar

StartChar: T
Encoding: 84 84 59
Width: 1359
GlyphClass: 2
Flags: W
HStem: 0 21G<669 689.5> 1048 66<33.2196 639 724 1326.81>
VStem: 639 85<0.00585938 1048>
LayerCount: 2
Fore
SplineSet
1333 1077 m 0,0,1
 1333 1065 1333 1065 1327 1058.5 c 128,-1,2
 1321 1052 1321 1052 1311.5 1050 c 128,-1,3
 1302 1048 1302 1048 1289 1048 c 128,-1,4
 1276 1048 1276 1048 1261 1048 c 2,5,-1
 724 1048 l 1,6,-1
 724 74 l 2,7,8
 724 59 724 59 723 46 c 128,-1,9
 722 33 722 33 717.5 22.5 c 128,-1,10
 713 12 713 12 705 6 c 128,-1,11
 697 0 697 0 682 0 c 0,12,13
 656 0 656 0 647.5 22.5 c 128,-1,14
 639 45 639 45 639 74 c 2,15,-1
 639 1048 l 1,16,-1
 100 1048 l 2,17,18
 87 1048 87 1048 73.5 1048 c 128,-1,19
 60 1048 60 1048 49.5 1050 c 128,-1,20
 39 1052 39 1052 32.5 1058.5 c 128,-1,21
 26 1065 26 1065 26 1077 c 0,22,23
 26 1092 26 1092 33 1099.5 c 128,-1,24
 40 1107 40 1107 50.5 1110 c 128,-1,25
 61 1113 61 1113 74.5 1113.5 c 128,-1,26
 88 1114 88 1114 100 1114 c 2,27,-1
 1261 1114 l 2,28,29
 1276 1114 1276 1114 1289 1113.5 c 128,-1,30
 1302 1113 1302 1113 1311.5 1110 c 128,-1,31
 1321 1107 1321 1107 1327 1099.5 c 128,-1,32
 1333 1092 1333 1092 1333 1077 c 0,0,1
EndSplineSet
EndChar

StartChar: U
Encoding: 85 85 60
Width: 1538
GlyphClass: 2
Flags: W
HStem: -21 66<493.567 1043.92> 1094 20G<153.5 173.5 1365.5 1385.5>
VStem: 116 85<290.057 1113.95> 1337 85<290.057 1113.98>
LayerCount: 2
Fore
SplineSet
769 45 m 0,0,1
 932 45 932 45 1041.5 76.5 c 128,-1,2
 1151 108 1151 108 1216.5 172 c 128,-1,3
 1282 236 1282 236 1309.5 332.5 c 128,-1,4
 1337 429 1337 429 1337 560 c 2,5,-1
 1337 1044 l 2,6,7
 1337 1070 1337 1070 1345 1092 c 128,-1,8
 1353 1114 1353 1114 1378 1114 c 0,9,10
 1393 1114 1393 1114 1401.5 1108 c 128,-1,11
 1410 1102 1410 1102 1414.5 1092 c 128,-1,12
 1419 1082 1419 1082 1420.5 1069.5 c 128,-1,13
 1422 1057 1422 1057 1422 1044 c 2,14,-1
 1422 560 l 2,15,16
 1422 404 1422 404 1381.5 293.5 c 128,-1,17
 1341 183 1341 183 1259 113 c 128,-1,18
 1177 43 1177 43 1054.5 11 c 128,-1,19
 932 -21 932 -21 769 -21 c 0,20,21
 605 -21 605 -21 483 11 c 128,-1,22
 361 43 361 43 279 113 c 128,-1,23
 197 183 197 183 156.5 293.5 c 128,-1,24
 116 404 116 404 116 560 c 2,25,-1
 116 1044 l 2,26,27
 116 1057 116 1057 117.5 1069.5 c 128,-1,28
 119 1082 119 1082 124 1092 c 128,-1,29
 129 1102 129 1102 137.5 1108 c 128,-1,30
 146 1114 146 1114 161 1114 c 0,31,32
 186 1114 186 1114 193.5 1092 c 128,-1,33
 201 1070 201 1070 201 1044 c 2,34,-1
 201 560 l 2,35,36
 201 429 201 429 228.5 332.5 c 128,-1,37
 256 236 256 236 321.5 172 c 128,-1,38
 387 108 387 108 496 76.5 c 128,-1,39
 605 45 605 45 769 45 c 0,0,1
EndSplineSet
EndChar

StartChar: V
Encoding: 86 86 61
Width: 1357
GlyphClass: 2
Flags: W
HStem: 1098 20G<47.5 64.5 1292 1308.5>
LayerCount: 2
Fore
SplineSet
679 98 m 1,0,-1
 1250 1069 l 2,1,2
 1261 1088 1261 1088 1273 1102 c 128,-1,3
 1285 1116 1285 1116 1299 1118 c 1,4,5
 1318 1118 1318 1118 1326 1106 c 128,-1,6
 1334 1094 1334 1094 1334 1083 c 256,7,8
 1334 1072 1334 1072 1327.5 1059.5 c 128,-1,9
 1321 1047 1321 1047 1313 1034 c 2,10,-1
 730 43 l 2,11,12
 719 25 719 25 705 16.5 c 128,-1,13
 691 8 691 8 677 8.5 c 128,-1,14
 663 9 663 9 649.5 18 c 128,-1,15
 636 27 636 27 627 43 c 2,16,-1
 42 1034 l 2,17,18
 34 1048 34 1048 28.5 1060.5 c 128,-1,19
 23 1073 23 1073 23 1085 c 0,20,21
 23 1093 23 1093 31 1105.5 c 128,-1,22
 39 1118 39 1118 56 1118 c 1,23,24
 73 1116 73 1116 84.5 1102 c 128,-1,25
 96 1088 96 1088 107 1069 c 2,26,-1
 679 98 l 1,0,-1
EndSplineSet
EndChar

StartChar: W
Encoding: 87 87 62
Width: 1653
GlyphClass: 2
Flags: W
HStem: 1096 20G<58 77.5 815 830 1577.5 1596>
VStem: 32 64.5<1034 1104.66> 1541 80<1061 1104.66>
LayerCount: 2
Fore
SplineSet
1207 123 m 1,0,-1
 1541 1061 l 2,1,2
 1549 1081 1549 1081 1559 1098.5 c 128,-1,3
 1569 1116 1569 1116 1586 1116 c 0,4,5
 1606 1116 1606 1116 1613.5 1105 c 128,-1,6
 1621 1094 1621 1094 1621 1083 c 256,7,8
 1621 1072 1621 1072 1617.5 1060 c 128,-1,9
 1614 1048 1614 1048 1609 1034 c 2,10,-1
 1256 51 l 1,11,12
 1245 28 1245 28 1236 13 c 128,-1,13
 1227 -2 1227 -2 1207 -2 c 256,14,15
 1187 -2 1187 -2 1177.5 13 c 128,-1,16
 1168 28 1168 28 1160 51 c 2,17,-1
 826 983 l 1,18,-1
 494 51 l 2,19,20
 486 28 486 28 475 13 c 128,-1,21
 464 -2 464 -2 445 -2 c 0,22,23
 425 -2 425 -2 415.5 13 c 128,-1,24
 406 28 406 28 398 51 c 2,25,-1
 46 1034 l 2,26,27
 41 1048 41 1048 36.5 1060 c 128,-1,28
 32 1072 32 1072 32 1083 c 256,29,30
 32 1094 32 1094 40 1105 c 128,-1,31
 48 1116 48 1116 68 1116 c 0,32,33
 87 1116 87 1116 96.5 1098.5 c 128,-1,34
 106 1081 106 1081 114 1061 c 2,35,-1
 445 123 l 1,36,-1
 779 1061 l 2,37,38
 787 1081 787 1081 796.5 1098.5 c 128,-1,39
 806 1116 806 1116 824 1116 c 0,40,41
 836 1116 836 1116 843.5 1112 c 128,-1,42
 851 1108 851 1108 856 1100.5 c 128,-1,43
 861 1093 861 1093 865.5 1083 c 128,-1,44
 870 1073 870 1073 875 1061 c 2,45,-1
 1207 123 l 1,0,-1
EndSplineSet
EndChar

StartChar: X
Encoding: 88 88 63
Width: 1214
GlyphClass: 2
Flags: W
LayerCount: 2
Fore
SplineSet
607 606 m 1,0,-1
 1103 1103 l 2,1,2
 1122 1122 1122 1122 1139 1122.5 c 128,-1,3
 1156 1123 1156 1123 1165.5 1113 c 128,-1,4
 1175 1103 1175 1103 1174 1085.5 c 128,-1,5
 1173 1068 1173 1068 1157 1052 c 2,6,-1
 659 557 l 1,7,-1
 1166 76 l 2,8,9
 1186 57 1186 57 1189.5 38.5 c 128,-1,10
 1193 20 1193 20 1184 10 c 128,-1,11
 1175 0 1175 0 1156.5 2 c 128,-1,12
 1138 4 1138 4 1116 25 c 2,13,-1
 607 508 l 1,14,-1
 98 25 l 2,15,16
 75 4 75 4 57 2 c 128,-1,17
 39 0 39 0 30 10 c 128,-1,18
 21 20 21 20 24.5 38.5 c 128,-1,19
 28 57 28 57 48 76 c 2,20,-1
 555 557 l 1,21,-1
 57 1052 l 2,22,23
 40 1068 40 1068 39.5 1085.5 c 128,-1,24
 39 1103 39 1103 48.5 1113 c 128,-1,25
 58 1123 58 1123 75 1122.5 c 128,-1,26
 92 1122 92 1122 111 1103 c 2,27,-1
 607 606 l 1,0,-1
EndSplineSet
EndChar

StartChar: Y
Encoding: 89 89 64
Width: 1107
GlyphClass: 2
Flags: W
VStem: 512 85<15.142 471>
LayerCount: 2
Fore
SplineSet
554 535 m 1,0,-1
 1011 1091 l 2,1,2
 1028 1112 1028 1112 1045.5 1114.5 c 128,-1,3
 1063 1117 1063 1117 1074.5 1108 c 128,-1,4
 1086 1099 1086 1099 1086.5 1081 c 128,-1,5
 1087 1063 1087 1063 1069 1042 c 2,6,-1
 597 471 l 1,7,-1
 597 63 l 2,8,9
 597 34 597 34 589.5 14 c 128,-1,10
 582 -6 582 -6 557 -6 c 0,11,12
 528 -6 528 -6 520 14.5 c 128,-1,13
 512 35 512 35 512 61 c 2,14,-1
 512 473 l 1,15,-1
 38 1042 l 2,16,17
 20 1063 20 1063 20.5 1081 c 128,-1,18
 21 1099 21 1099 32.5 1108.5 c 128,-1,19
 44 1118 44 1118 62 1115 c 128,-1,20
 80 1112 80 1112 97 1091 c 2,21,-1
 554 535 l 1,0,-1
EndSplineSet
EndChar

StartChar: Z
Encoding: 90 90 65
Width: 1357
GlyphClass: 2
Flags: W
HStem: 0 66<184 1258.62> 1048 66<98.3467 1175>
LayerCount: 2
Fore
SplineSet
184 66 m 1,0,-1
 1224 66 l 2,1,2
 1247 66 1247 66 1259 55.5 c 128,-1,3
 1271 45 1271 45 1271 33 c 0,4,5
 1271 20 1271 20 1259 10 c 128,-1,6
 1247 0 1247 0 1224 0 c 2,7,-1
 132 0 l 2,8,9
 97 0 97 0 78 4 c 128,-1,10
 59 8 59 8 59 33 c 0,11,12
 59 50 59 50 66.5 62 c 128,-1,13
 74 74 74 74 91 88 c 2,14,-1
 1175 1048 l 1,15,-1
 132 1048 l 2,16,17
 109 1048 109 1048 98 1058 c 128,-1,18
 87 1068 87 1068 87 1081 c 0,19,20
 87 1093 87 1093 98 1103.5 c 128,-1,21
 109 1114 109 1114 132 1114 c 2,22,-1
 1220 1114 l 2,23,24
 1255 1114 1255 1114 1278.5 1109 c 128,-1,25
 1302 1104 1302 1104 1302 1079 c 0,26,27
 1302 1065 1302 1065 1291 1051.5 c 128,-1,28
 1280 1038 1280 1038 1269 1026 c 1,29,-1
 184 66 l 1,0,-1
EndSplineSet
EndChar

StartChar: bracketleft
Encoding: 91 91 66
Width: 391
GlyphClass: 2
Flags: W
HStem: -209 70<187 321.685> 1253 70<187 326.327>
VStem: 115 72<-139 1253> 115.5 216.5<-202.808 -148.737 1267.74 1308.78>
LayerCount: 2
Fore
SplineSet
332 -174 m 0,0,1
 332 -197 332 -197 311 -203 c 128,-1,2
 290 -209 290 -209 261 -209 c 2,3,-1
 154 -209 l 2,4,5
 139 -209 139 -209 131 -203.5 c 128,-1,6
 123 -198 123 -198 119.5 -188.5 c 128,-1,7
 116 -179 116 -179 115.5 -166.5 c 128,-1,8
 115 -154 115 -154 115 -139 c 2,9,-1
 115 1253 l 2,10,11
 115 1268 115 1268 115.5 1280.5 c 128,-1,12
 116 1293 116 1293 120 1302.5 c 128,-1,13
 124 1312 124 1312 132.5 1317.5 c 128,-1,14
 141 1323 141 1323 156 1323 c 2,15,-1
 261 1323 l 2,16,17
 276 1323 276 1323 288.5 1322.5 c 128,-1,18
 301 1322 301 1322 311 1319 c 128,-1,19
 321 1316 321 1316 326.5 1309 c 128,-1,20
 332 1302 332 1302 332 1290 c 0,21,22
 332 1275 332 1275 326.5 1267.5 c 128,-1,23
 321 1260 321 1260 311 1257 c 128,-1,24
 301 1254 301 1254 288.5 1253.5 c 128,-1,25
 276 1253 276 1253 261 1253 c 2,26,-1
 187 1253 l 1,27,-1
 187 -139 l 1,28,29
 221 -139 221 -139 247.5 -138 c 128,-1,30
 274 -137 274 -137 293 -139 c 128,-1,31
 312 -141 312 -141 322 -148.5 c 128,-1,32
 332 -156 332 -156 332 -174 c 0,0,1
EndSplineSet
EndChar

StartChar: backslash
Encoding: 92 92 67
Width: 644
GlyphClass: 2
Flags: W
VStem: 514 82<-53.2028 -10>
LayerCount: 2
Fore
SplineSet
582 16 m 2,0,1
 590 -1 590 -1 593 -13 c 128,-1,2
 596 -25 596 -25 596 -33 c 0,3,4
 596 -44 596 -44 588 -53.5 c 128,-1,5
 580 -63 580 -63 561 -63 c 0,6,7
 543 -63 543 -63 532.5 -46.5 c 128,-1,8
 522 -30 522 -30 514 -10 c 2,9,-1
 62 1092 l 2,10,11
 54 1109 54 1109 50.5 1121 c 128,-1,12
 47 1133 47 1133 47 1141 c 0,13,14
 47 1152 47 1152 55.5 1163 c 128,-1,15
 64 1174 64 1174 84 1174 c 0,16,17
 93 1174 93 1174 99.5 1169 c 128,-1,18
 106 1164 106 1164 110.5 1156 c 128,-1,19
 115 1148 115 1148 119.5 1138 c 128,-1,20
 124 1128 124 1128 129 1118 c 2,21,-1
 582 16 l 2,0,1
EndSplineSet
EndChar

StartChar: bracketright
Encoding: 93 93 68
Width: 390
GlyphClass: 2
Flags: W
HStem: -209 70.5<68.8302 204> 1253 70<64.704 204>
VStem: 58 216.5<-207.871 -150.736 1267.74 1322.41> 204 71<-139 1253>
LayerCount: 2
Fore
SplineSet
58 -174 m 0,0,1
 58 -158 58 -158 68.5 -150.5 c 128,-1,2
 79 -143 79 -143 98 -140.5 c 128,-1,3
 117 -138 117 -138 144 -138.5 c 128,-1,4
 171 -139 171 -139 204 -139 c 1,5,-1
 204 1253 l 1,6,-1
 130 1253 l 2,7,8
 117 1253 117 1253 104 1253.5 c 128,-1,9
 91 1254 91 1254 81 1257 c 128,-1,10
 71 1260 71 1260 64.5 1267.5 c 128,-1,11
 58 1275 58 1275 58 1290 c 0,12,13
 58 1302 58 1302 64.5 1309 c 128,-1,14
 71 1316 71 1316 81 1319 c 128,-1,15
 91 1322 91 1322 104 1322.5 c 128,-1,16
 117 1323 117 1323 130 1323 c 2,17,-1
 234 1323 l 2,18,19
 249 1323 249 1323 257.5 1317.5 c 128,-1,20
 266 1312 266 1312 270 1302.5 c 128,-1,21
 274 1293 274 1293 274.5 1280.5 c 128,-1,22
 275 1268 275 1268 275 1253 c 2,23,-1
 275 -139 l 2,24,25
 275 -154 275 -154 274.5 -166.5 c 128,-1,26
 274 -179 274 -179 270.5 -188.5 c 128,-1,27
 267 -198 267 -198 259 -203.5 c 128,-1,28
 251 -209 251 -209 236 -209 c 2,29,-1
 130 -209 l 2,30,31
 117 -209 117 -209 104 -208 c 128,-1,32
 91 -207 91 -207 81 -203 c 128,-1,33
 71 -199 71 -199 64.5 -192.5 c 128,-1,34
 58 -186 58 -186 58 -174 c 0,0,1
EndSplineSet
EndChar

StartChar: asciicircum
Encoding: 94 94 69
Width: 619
GlyphClass: 2
Flags: W
HStem: 954 334
VStem: 39 541<981 1000>
LayerCount: 2
Fore
SplineSet
312 1204 m 1,0,-1
 172 1049 l 2,1,2
 163 1038 163 1038 150 1022 c 128,-1,3
 137 1006 137 1006 123 991 c 128,-1,4
 109 976 109 976 95.5 965 c 128,-1,5
 82 954 82 954 72 954 c 0,6,7
 58 954 58 954 48.5 966.5 c 128,-1,8
 39 979 39 979 39 987 c 0,9,10
 39 1000 39 1000 48.5 1012 c 128,-1,11
 58 1024 58 1024 70 1038 c 1,12,13
 78 1049 78 1049 96 1072 c 128,-1,14
 114 1095 114 1095 136.5 1123 c 128,-1,15
 159 1151 159 1151 184.5 1180 c 128,-1,16
 210 1209 210 1209 234 1233 c 128,-1,17
 258 1257 258 1257 278 1272.5 c 128,-1,18
 298 1288 298 1288 310 1288 c 0,19,20
 321 1288 321 1288 330.5 1283 c 128,-1,21
 340 1278 340 1278 348 1272 c 1,22,-1
 365 1255 l 1,23,-1
 551 1038 l 1,24,25
 564 1026 564 1026 572 1014 c 128,-1,26
 580 1002 580 1002 580 989 c 0,27,28
 580 981 580 981 572 967.5 c 128,-1,29
 564 954 564 954 547 954 c 0,30,31
 535 954 535 954 523 967 c 128,-1,32
 511 980 511 980 494 997 c 1,33,-1
 312 1204 l 1,0,-1
EndSplineSet
EndChar

StartChar: underscore
Encoding: 95 95 70
Width: 1511
GlyphClass: 2
Flags: W
HStem: 184 88<131.768 1378.72>
LayerCount: 2
Fore
SplineSet
1388 228 m 256,0,1
 1388 211 1388 211 1379 197.5 c 128,-1,2
 1370 184 1370 184 1350 184 c 2,3,-1
 160 184 l 2,4,5
 140 184 140 184 131.5 197.5 c 128,-1,6
 123 211 123 211 123 228 c 256,7,8
 123 245 123 245 131.5 258.5 c 128,-1,9
 140 272 140 272 160 272 c 2,10,-1
 1350 272 l 2,11,12
 1370 272 1370 272 1379 258.5 c 128,-1,13
 1388 245 1388 245 1388 228 c 256,0,1
EndSplineSet
EndChar

StartChar: grave
Encoding: 96 96 71
Width: 376
GlyphClass: 2
Flags: W
HStem: 46 331
VStem: 12 349
LayerCount: 2
Fore
SplineSet
353 90 m 2,0,1
 361 82 361 82 361 72 c 0,2,3
 361 61 361 61 353 53.5 c 128,-1,4
 345 46 345 46 334 46 c 0,5,6
 325 46 325 46 319 51 c 2,7,-1
 27 288 l 2,8,9
 12 300 12 300 12 316 c 0,10,11
 12 327 12 327 18 338 c 128,-1,12
 24 349 24 349 33 357.5 c 128,-1,13
 42 366 42 366 53.5 371.5 c 128,-1,14
 65 377 65 377 76 377 c 0,15,16
 90 377 90 377 101 366 c 2,17,-1
 353 90 l 2,0,1
EndSplineSet
EndChar

StartChar: a
Encoding: 97 97 72
Width: 1057
GlyphClass: 2
Flags: W
HStem: -10 59<257.938 688.576> 0 21G<915.5 934> 418 59<247.727 769.017> 727 59<294.608 731.546>
VStem: 58 80<125.921 342.447> 887 81<0.00634766 143 147.348 384.242 409 586.792>
LayerCount: 2
Fore
SplineSet
138 224 m 0,0,1
 138 176 138 176 162.5 143 c 128,-1,2
 187 110 187 110 231 89 c 128,-1,3
 275 68 275 68 335.5 58.5 c 128,-1,4
 396 49 396 49 468 49 c 0,5,6
 577 49 577 49 655.5 69 c 128,-1,7
 734 89 734 89 786 113 c 0,8,9
 847 141 847 141 887 178 c 1,10,-1
 887 379 l 1,11,12
 813 389 813 389 739 398 c 0,13,14
 675 406 675 406 601.5 412 c 128,-1,15
 528 418 528 418 464 418 c 0,16,17
 387 418 387 418 326.5 409 c 128,-1,18
 266 400 266 400 224 378 c 128,-1,19
 182 356 182 356 160 318.5 c 128,-1,20
 138 281 138 281 138 224 c 0,0,1
543 727 m 0,21,22
 448 727 448 727 377 715 c 128,-1,23
 306 703 306 703 255 686 c 128,-1,24
 204 669 204 669 171.5 651 c 128,-1,25
 139 633 139 633 121 621 c 0,26,27
 113 616 113 616 104 620 c 128,-1,28
 95 624 95 624 89 633 c 128,-1,29
 83 642 83 642 83 652.5 c 128,-1,30
 83 663 83 663 93 670 c 1,31,32
 102 679 102 679 132 698 c 128,-1,33
 162 717 162 717 216.5 736.5 c 128,-1,34
 271 756 271 756 352 771 c 128,-1,35
 433 786 433 786 544 786 c 0,36,37
 624 786 624 786 700.5 770.5 c 128,-1,38
 777 755 777 755 836.5 709 c 128,-1,39
 896 663 896 663 932 579 c 128,-1,40
 968 495 968 495 968 358 c 2,41,-1
 968 70 l 2,42,43
 968 58 968 58 967 46 c 128,-1,44
 966 34 966 34 961.5 23.5 c 128,-1,45
 957 13 957 13 949 6.5 c 128,-1,46
 941 0 941 0 927 0 c 0,47,48
 904 0 904 0 895.5 21 c 128,-1,49
 887 42 887 42 887 74 c 2,50,-1
 887 143 l 1,51,52
 853 99 853 99 797 66 c 0,53,54
 749 37 749 37 670 13.5 c 128,-1,55
 591 -10 591 -10 476 -10 c 0,56,57
 389 -10 389 -10 312.5 3 c 128,-1,58
 236 16 236 16 179.5 44 c 128,-1,59
 123 72 123 72 90.5 116.5 c 128,-1,60
 58 161 58 161 58 224 c 0,61,62
 58 297 58 297 88.5 345.5 c 128,-1,63
 119 394 119 394 173 423.5 c 128,-1,64
 227 453 227 453 299.5 465 c 128,-1,65
 372 477 372 477 456 477 c 0,66,67
 520 477 520 477 583.5 472.5 c 128,-1,68
 647 468 647 468 703.5 459.5 c 128,-1,69
 760 451 760 451 807.5 438.5 c 128,-1,70
 855 426 855 426 887 409 c 1,71,72
 887 511 887 511 858.5 573 c 128,-1,73
 830 635 830 635 782 669.5 c 128,-1,74
 734 704 734 704 672 715.5 c 128,-1,75
 610 727 610 727 543 727 c 0,21,22
EndSplineSet
EndChar

StartChar: b
Encoding: 98 98 73
Width: 1136
GlyphClass: 2
Flags: W
HStem: -10 59<389.582 822.205> 0 21G<132.5 147.5> 727 59<398.955 811.484> 1094 20G<135.5 150.5>
VStem: 101 80<6.18848 97 125.85 1105.23> 994 80<192.919 576.986>
LayerCount: 2
Fore
SplineSet
631 786 m 0,0,1
 721 786 721 786 801.5 767.5 c 128,-1,2
 882 749 882 749 942.5 704 c 128,-1,3
 1003 659 1003 659 1038.5 584 c 128,-1,4
 1074 509 1074 509 1074 396 c 0,5,6
 1074 284 1074 284 1044.5 206.5 c 128,-1,7
 1015 129 1015 129 958.5 81 c 128,-1,8
 902 33 902 33 819.5 11.5 c 128,-1,9
 737 -10 737 -10 631 -10 c 0,10,11
 531 -10 531 -10 448.5 6.5 c 128,-1,12
 366 23 366 23 306 43 c 0,13,14
 236 67 236 67 181 97 c 1,15,-1
 181 73 l 2,16,17
 181 58 181 58 180 45 c 128,-1,18
 179 32 179 32 175 22 c 128,-1,19
 171 12 171 12 163 6 c 128,-1,20
 155 0 155 0 140 0 c 256,21,22
 125 0 125 0 117.5 6 c 128,-1,23
 110 12 110 12 106 22 c 128,-1,24
 102 32 102 32 101.5 45 c 128,-1,25
 101 58 101 58 101 73 c 2,26,-1
 101 1065 l 2,27,28
 101 1097 101 1097 114.5 1105.5 c 128,-1,29
 128 1114 128 1114 143 1114 c 256,30,31
 158 1114 158 1114 169.5 1105.5 c 128,-1,32
 181 1097 181 1097 181 1065 c 2,33,-1
 181 587 l 1,34,35
 192 630 192 630 220.5 661 c 128,-1,36
 249 692 249 692 287.5 714 c 128,-1,37
 326 736 326 736 371.5 750 c 128,-1,38
 417 764 417 764 463 772 c 128,-1,39
 509 780 509 780 552.5 783 c 128,-1,40
 596 786 596 786 631 786 c 0,0,1
631 727 m 1,41,42
 571 726 571 726 500 717.5 c 128,-1,43
 429 709 429 709 364 687 c 128,-1,44
 299 665 299 665 249 626 c 128,-1,45
 199 587 199 587 181 524 c 1,46,-1
 181 140 l 1,47,48
 248 114 248 114 322 94 c 0,49,50
 385 77 385 77 465.5 63 c 128,-1,51
 546 49 546 49 631 49 c 0,52,53
 727 49 727 49 795.5 69 c 128,-1,54
 864 89 864 89 908.5 131.5 c 128,-1,55
 953 174 953 174 973.5 239.5 c 128,-1,56
 994 305 994 305 994 396 c 0,57,58
 994 490 994 490 965.5 554 c 128,-1,59
 937 618 937 618 888 656 c 128,-1,60
 839 694 839 694 772.5 710.5 c 128,-1,61
 706 727 706 727 631 727 c 1,41,42
EndSplineSet
EndChar

StartChar: c
Encoding: 99 99 74
Width: 1007
GlyphClass: 2
Flags: W
HStem: -10 59<341.87 776.818> 70 57<873.301 947.264> 649 57<873.301 947.264> 727 59<337.652 776.008>
VStem: 62 80<201.904 575.644>
LayerCount: 2
Fore
SplineSet
570 727 m 2,0,1
 455 727 455 727 374 708 c 128,-1,2
 293 689 293 689 241.5 647.5 c 128,-1,3
 190 606 190 606 166 541 c 128,-1,4
 142 476 142 476 142 385 c 0,5,6
 142 293 142 293 168.5 229 c 128,-1,7
 195 165 195 165 248.5 125 c 128,-1,8
 302 85 302 85 382 67 c 128,-1,9
 462 49 462 49 569 49 c 0,10,11
 617 49 617 49 666.5 56 c 128,-1,12
 716 63 716 63 761 74 c 128,-1,13
 806 85 806 85 844 97.5 c 128,-1,14
 882 110 882 110 906 122 c 0,15,16
 916 127 916 127 927 127 c 0,17,18
 940 127 940 127 947.5 119.5 c 128,-1,19
 955 112 955 112 955 101 c 0,20,21
 955 93 955 93 950 84.5 c 128,-1,22
 945 76 945 76 934 70 c 0,23,24
 847 25 847 25 752.5 7.5 c 128,-1,25
 658 -10 658 -10 570 -10 c 0,26,27
 456 -10 456 -10 362.5 8 c 128,-1,28
 269 26 269 26 202.5 71 c 128,-1,29
 136 116 136 116 99 192 c 128,-1,30
 62 268 62 268 62 385 c 0,31,32
 62 501 62 501 96 578 c 128,-1,33
 130 655 130 655 195 701.5 c 128,-1,34
 260 748 260 748 354.5 767 c 128,-1,35
 449 786 449 786 570 786 c 0,36,37
 658 786 658 786 752.5 768.5 c 128,-1,38
 847 751 847 751 934 706 c 0,39,40
 945 700 945 700 950 691.5 c 128,-1,41
 955 683 955 683 955 675 c 0,42,43
 955 664 955 664 947.5 656.5 c 128,-1,44
 940 649 940 649 927 649 c 0,45,46
 916 649 916 649 906 654 c 0,47,48
 882 666 882 666 844 678.5 c 128,-1,49
 806 691 806 691 761 702 c 128,-1,50
 716 713 716 713 666.5 720 c 128,-1,51
 617 727 617 727 569 727 c 2,52,-1
 570 727 l 2,0,1
EndSplineSet
EndChar

StartChar: d
Encoding: 100 100 75
Width: 1137
GlyphClass: 2
Flags: W
HStem: -10 59<325.516 738.045> 0 21G<988.5 1004> 727 59<314.795 758.526> 1094 20G<987.5 1002.5>
VStem: 63 80<198.849 583.081> 956 80<11.3489 638.168 659 1107.81>
LayerCount: 2
Fore
SplineSet
506 -10 m 0,0,1
 416 -10 416 -10 335.5 8.5 c 128,-1,2
 255 27 255 27 194.5 72 c 128,-1,3
 134 117 134 117 98.5 192 c 128,-1,4
 63 267 63 267 63 380 c 0,5,6
 63 492 63 492 92.5 569.5 c 128,-1,7
 122 647 122 647 178.5 695 c 128,-1,8
 235 743 235 743 317.5 764.5 c 128,-1,9
 400 786 400 786 506 786 c 0,10,11
 635 786 635 786 721.5 766 c 128,-1,12
 808 746 808 746 860 722 c 0,13,14
 921 694 921 694 956 659 c 1,15,-1
 956 1043 l 2,16,17
 956 1056 956 1056 956.5 1069 c 128,-1,18
 957 1082 957 1082 961 1092 c 128,-1,19
 965 1102 965 1102 972.5 1108 c 128,-1,20
 980 1114 980 1114 995 1114 c 256,21,22
 1010 1114 1010 1114 1018 1108.5 c 128,-1,23
 1026 1103 1026 1103 1030 1094 c 128,-1,24
 1034 1085 1034 1085 1035 1072.5 c 128,-1,25
 1036 1060 1036 1060 1036 1045 c 2,26,-1
 1036 54 l 2,27,28
 1036 22 1036 22 1023.5 11 c 128,-1,29
 1011 0 1011 0 997 0 c 0,30,31
 980 0 980 0 968 10 c 128,-1,32
 956 20 956 20 956 52 c 2,33,-1
 956 191 l 1,34,35
 945 148 945 148 916.5 116.5 c 128,-1,36
 888 85 888 85 849.5 63 c 128,-1,37
 811 41 811 41 765.5 27 c 128,-1,38
 720 13 720 13 674 4.5 c 128,-1,39
 628 -4 628 -4 584.5 -7 c 128,-1,40
 541 -10 541 -10 506 -10 c 0,0,1
506 49 m 1,41,42
 566 50 566 50 637 58.5 c 128,-1,43
 708 67 708 67 773 89 c 128,-1,44
 838 111 838 111 888 150 c 128,-1,45
 938 189 938 189 956 252 c 1,46,-1
 956 612 l 1,47,48
 917 643 917 643 855 669 c 0,49,50
 802 691 802 691 716 709 c 128,-1,51
 630 727 630 727 506 727 c 0,52,53
 410 727 410 727 341.5 707 c 128,-1,54
 273 687 273 687 228.5 644.5 c 128,-1,55
 184 602 184 602 163.5 536.5 c 128,-1,56
 143 471 143 471 143 380 c 0,57,58
 143 285 143 285 171.5 221.5 c 128,-1,59
 200 158 200 158 249 120 c 128,-1,60
 298 82 298 82 364.5 65.5 c 128,-1,61
 431 49 431 49 506 49 c 1,41,42
EndSplineSet
EndChar

StartChar: e
Encoding: 101 101 76
Width: 1021
GlyphClass: 2
Flags: W
HStem: -10 59<309.225 737.392> 379 52<143 897> 727 59<330.012 738.811>
VStem: 62 80<197.117 389 431 580.005> 897 59<431.5 599.06>
LayerCount: 2
Fore
SplineSet
489 49 m 0,0,1
 584 49 584 49 655 61 c 128,-1,2
 726 73 726 73 777 90 c 128,-1,3
 828 107 828 107 860.5 125 c 128,-1,4
 893 143 893 143 911 155 c 0,5,6
 919 160 919 160 928 156 c 128,-1,7
 937 152 937 152 943 143 c 128,-1,8
 949 134 949 134 949 123.5 c 128,-1,9
 949 113 949 113 939 106 c 1,10,11
 930 97 930 97 900 78 c 128,-1,12
 870 59 870 59 815.5 39.5 c 128,-1,13
 761 20 761 20 680 5 c 128,-1,14
 599 -10 599 -10 488 -10 c 0,15,16
 372 -10 372 -10 291 19 c 128,-1,17
 210 48 210 48 159 100 c 128,-1,18
 108 152 108 152 85 225 c 128,-1,19
 62 298 62 298 62 385 c 0,20,21
 62 501 62 501 99 578 c 128,-1,22
 136 655 136 655 200.5 701.5 c 128,-1,23
 265 748 265 748 352.5 767 c 128,-1,24
 440 786 440 786 541 786 c 0,25,26
 749 786 749 786 852.5 706.5 c 128,-1,27
 956 627 956 627 956 479 c 0,28,29
 956 466 956 466 952 448.5 c 128,-1,30
 948 431 948 431 941.5 415.5 c 128,-1,31
 935 400 935 400 927 389.5 c 128,-1,32
 919 379 919 379 912 379 c 2,33,-1
 638 379 l 1,34,-1
 142 389 l 1,35,36
 144 296 144 296 167 231.5 c 128,-1,37
 190 167 190 167 233 126.5 c 128,-1,38
 276 86 276 86 340 67.5 c 128,-1,39
 404 49 404 49 489 49 c 0,0,1
541 727 m 0,40,41
 448 727 448 727 376 711 c 128,-1,42
 304 695 304 695 253.5 659.5 c 128,-1,43
 203 624 203 624 175 568 c 128,-1,44
 147 512 147 512 143 431 c 1,45,-1
 897 431 l 1,46,-1
 897 485 l 2,47,48
 897 535 897 535 878.5 579 c 128,-1,49
 860 623 860 623 818 656 c 128,-1,50
 776 689 776 689 708 708 c 128,-1,51
 640 727 640 727 541 727 c 0,40,41
EndSplineSet
EndChar

StartChar: f
Encoding: 102 102 77
Width: 645
GlyphClass: 2
Flags: W
HStem: 0 21G<171 186.5> 727 48<29.2205 138 218 625.264> 1047 58<277.346 576.458>
VStem: 138 80<8.77136 727 775 998.28>
LayerCount: 2
Fore
SplineSet
218 775 m 1,0,-1
 603 775 l 2,1,2
 618 775 618 775 625.5 767.5 c 128,-1,3
 633 760 633 760 633 751 c 256,4,5
 633 742 633 742 625.5 734.5 c 128,-1,6
 618 727 618 727 603 727 c 2,7,-1
 218 727 l 1,8,-1
 218 49 l 2,9,10
 218 17 218 17 206.5 8.5 c 128,-1,11
 195 0 195 0 178 0 c 0,12,13
 164 0 164 0 151 8.5 c 128,-1,14
 138 17 138 17 138 49 c 2,15,-1
 138 727 l 1,16,-1
 50 727 l 2,17,18
 36 727 36 727 29 734.5 c 128,-1,19
 22 742 22 742 22 751 c 256,20,21
 22 760 22 760 29 767.5 c 128,-1,22
 36 775 36 775 50 775 c 2,23,-1
 139 775 l 1,24,-1
 139 816 l 2,25,26
 139 897 139 897 155.5 952.5 c 128,-1,27
 172 1008 172 1008 202.5 1041.5 c 128,-1,28
 233 1075 233 1075 276 1090 c 128,-1,29
 319 1105 319 1105 373 1105 c 0,30,31
 403 1105 403 1105 430 1103.5 c 128,-1,32
 457 1102 457 1102 484.5 1097.5 c 128,-1,33
 512 1093 512 1093 542.5 1085.5 c 128,-1,34
 573 1078 573 1078 609 1066 c 0,35,36
 618 1063 618 1063 624.5 1059.5 c 128,-1,37
 631 1056 631 1056 635 1050 c 0,38,39
 648 1030 648 1030 629 1017 c 1,40,41
 624 1012 624 1012 613.5 1010.5 c 128,-1,42
 603 1009 603 1009 590 1014 c 0,43,44
 536 1033 536 1033 485.5 1040 c 128,-1,45
 435 1047 435 1047 387 1047 c 0,46,47
 348 1047 348 1047 316.5 1038.5 c 128,-1,48
 285 1030 285 1030 263 1005 c 128,-1,49
 241 980 241 980 229.5 934.5 c 128,-1,50
 218 889 218 889 218 816 c 2,51,-1
 218 775 l 1,0,-1
EndSplineSet
EndChar

StartChar: g
Encoding: 103 103 78
Width: 1123
GlyphClass: 2
Flags: W
HStem: -340 70<319.855 783.785> -10 59<316.503 773.503> 717 69<326.414 791.189> 746 20G<965 981.5>
VStem: 63 80<184.457 569.808> 942 80<-150.07 96 126.445 765.427>
LayerCount: 2
Fore
SplineSet
589 717 m 0,0,1
 470 717 470 717 385.5 699.5 c 128,-1,2
 301 682 301 682 247 642.5 c 128,-1,3
 193 603 193 603 168 539 c 128,-1,4
 143 475 143 475 143 383 c 256,5,6
 143 291 143 291 164 227 c 128,-1,7
 185 163 185 163 232.5 123.5 c 128,-1,8
 280 84 280 84 357.5 66.5 c 128,-1,9
 435 49 435 49 548 49 c 0,10,11
 600 49 600 49 652.5 55 c 128,-1,12
 705 61 705 61 755.5 73 c 128,-1,13
 806 85 806 85 853.5 104 c 128,-1,14
 901 123 901 123 942 150 c 1,15,-1
 942 524 l 1,16,17
 928 578 928 578 888 621 c 0,18,19
 870 639 870 639 844.5 656 c 128,-1,20
 819 673 819 673 782.5 686.5 c 128,-1,21
 746 700 746 700 698 708.5 c 128,-1,22
 650 717 650 717 589 717 c 0,0,1
563 -270 m 0,23,24
 645 -270 645 -270 714.5 -255.5 c 128,-1,25
 784 -241 784 -241 834.5 -211 c 128,-1,26
 885 -181 885 -181 913.5 -134.5 c 128,-1,27
 942 -88 942 -88 942 -23 c 2,28,-1
 942 96 l 1,29,30
 899 66 899 66 850 45.5 c 128,-1,31
 801 25 801 25 749.5 13 c 128,-1,32
 698 1 698 1 645.5 -4.5 c 128,-1,33
 593 -10 593 -10 544 -10 c 0,34,35
 430 -10 430 -10 341 7.5 c 128,-1,36
 252 25 252 25 190 69 c 128,-1,37
 128 113 128 113 95.5 189.5 c 128,-1,38
 63 266 63 266 63 383 c 256,39,40
 63 500 63 500 100 577.5 c 128,-1,41
 137 655 137 655 205 701.5 c 128,-1,42
 273 748 273 748 368.5 767 c 128,-1,43
 464 786 464 786 581 786 c 0,44,45
 645 786 645 786 694.5 777.5 c 128,-1,46
 744 769 744 769 781 755.5 c 128,-1,47
 818 742 818 742 844 725 c 128,-1,48
 870 708 870 708 888 690 c 0,49,50
 928 649 928 649 942 594 c 1,51,52
 942 616 942 616 940 645.5 c 128,-1,53
 938 675 938 675 939.5 702 c 128,-1,54
 941 729 941 729 948.5 747.5 c 128,-1,55
 956 766 956 766 974 766 c 0,56,57
 989 766 989 766 998 759.5 c 128,-1,58
 1007 753 1007 753 1012.5 743 c 128,-1,59
 1018 733 1018 733 1020 720.5 c 128,-1,60
 1022 708 1022 708 1022 696 c 2,61,-1
 1022 -23 l 2,62,63
 1022 -181 1022 -181 902.5 -260.5 c 128,-1,64
 783 -340 783 -340 563 -340 c 0,65,66
 470 -340 470 -340 403 -328 c 128,-1,67
 336 -316 336 -316 288 -299 c 0,68,69
 262 -290 262 -290 239 -279.5 c 128,-1,70
 216 -269 216 -269 196 -258 c 1,71,72
 185 -255 185 -255 176 -246 c 1,73,74
 168 -240 168 -240 161.5 -232 c 128,-1,75
 155 -224 155 -224 155 -213 c 0,76,77
 155 -194 155 -194 168.5 -186 c 128,-1,78
 182 -178 182 -178 188 -178 c 0,79,80
 196 -178 196 -178 207.5 -182.5 c 128,-1,81
 219 -187 219 -187 233 -197 c 0,82,83
 265 -219 265 -219 313 -233 c 1,84,85
 355 -247 355 -247 415.5 -258.5 c 128,-1,86
 476 -270 476 -270 563 -270 c 0,23,24
EndSplineSet
EndChar

StartChar: h
Encoding: 104 104 79
Width: 1085
GlyphClass: 2
Flags: W
HStem: 0 21G<136 149 947.5 961> 727 59<391.947 787.985> 1094 20G<136 149>
VStem: 101 80<0.0396729 1113.96> 913 80<0.0396729 625.922>
LayerCount: 2
Fore
SplineSet
993 72 m 2,0,1
 993 59 993 59 991.5 46 c 128,-1,2
 990 33 990 33 986 23 c 128,-1,3
 982 13 982 13 974.5 6.5 c 128,-1,4
 967 0 967 0 955 0 c 0,5,6
 940 0 940 0 932 6.5 c 128,-1,7
 924 13 924 13 919.5 23 c 128,-1,8
 915 33 915 33 914 46 c 128,-1,9
 913 59 913 59 913 72 c 2,10,-1
 913 418 l 2,11,12
 913 496 913 496 901 554 c 128,-1,13
 889 612 889 612 855.5 650.5 c 128,-1,14
 822 689 822 689 762 708 c 128,-1,15
 702 727 702 727 606 727 c 0,16,17
 548 727 548 727 481 717.5 c 128,-1,18
 414 708 414 708 353.5 684.5 c 128,-1,19
 293 661 293 661 246 622 c 128,-1,20
 199 583 199 583 181 524 c 1,21,-1
 181 72 l 2,22,23
 181 59 181 59 179.5 46 c 128,-1,24
 178 33 178 33 174 23 c 128,-1,25
 170 13 170 13 162.5 6.5 c 128,-1,26
 155 0 155 0 143 0 c 0,27,28
 129 0 129 0 120.5 6.5 c 128,-1,29
 112 13 112 13 107.5 23 c 128,-1,30
 103 33 103 33 102 46 c 128,-1,31
 101 59 101 59 101 72 c 2,32,-1
 101 1044 l 2,33,34
 101 1056 101 1056 102 1068.5 c 128,-1,35
 103 1081 103 1081 107.5 1091 c 128,-1,36
 112 1101 112 1101 120.5 1107.5 c 128,-1,37
 129 1114 129 1114 143 1114 c 0,38,39
 155 1114 155 1114 162.5 1108 c 128,-1,40
 170 1102 170 1102 174 1092 c 128,-1,41
 178 1082 178 1082 179.5 1069.5 c 128,-1,42
 181 1057 181 1057 181 1044 c 2,43,-1
 181 594 l 1,44,45
 192 634 192 634 218.5 664 c 128,-1,46
 245 694 245 694 280.5 715.5 c 128,-1,47
 316 737 316 737 359 750.5 c 128,-1,48
 402 764 402 764 445.5 772 c 128,-1,49
 489 780 489 780 530.5 783 c 128,-1,50
 572 786 572 786 606 786 c 0,51,52
 714 786 714 786 788 767.5 c 128,-1,53
 862 749 862 749 907.5 706 c 128,-1,54
 953 663 953 663 973 592.5 c 128,-1,55
 993 522 993 522 993 418 c 2,56,-1
 993 72 l 2,0,1
EndSplineSet
EndChar

StartChar: i
Encoding: 105 105 80
Width: 311
GlyphClass: 2
Flags: W
HStem: 0 21G<148 162.5> 755 20G<148 167.5> 865 105<117.471 193.498>
VStem: 102 108<879.44 954.014> 115 80<0.0012207 774.995>
LayerCount: 2
Fore
SplineSet
195 63 m 2,0,1
 195 50 195 50 194 38.5 c 128,-1,2
 193 27 193 27 189.5 18.5 c 128,-1,3
 186 10 186 10 178 5 c 128,-1,4
 170 0 170 0 155 0 c 0,5,6
 141 0 141 0 133 4.5 c 128,-1,7
 125 9 125 9 121 17 c 128,-1,8
 117 25 117 25 116 36.5 c 128,-1,9
 115 48 115 48 115 63 c 2,10,-1
 115 705 l 2,11,12
 115 720 115 720 116 732.5 c 128,-1,13
 117 745 117 745 121 754.5 c 128,-1,14
 125 764 125 764 133 769.5 c 128,-1,15
 141 775 141 775 155 775 c 0,16,17
 180 775 180 775 187.5 754 c 128,-1,18
 195 733 195 733 195 707 c 2,19,-1
 195 63 l 2,0,1
102 916 m 256,20,21
 102 939 102 939 117 954.5 c 128,-1,22
 132 970 132 970 155 970 c 256,23,24
 178 970 178 970 194 954.5 c 128,-1,25
 210 939 210 939 210 916 c 256,26,27
 210 893 210 893 194 879 c 128,-1,28
 178 865 178 865 155 865 c 256,29,30
 132 865 132 865 117 879 c 128,-1,31
 102 893 102 893 102 916 c 256,20,21
EndSplineSet
EndChar

StartChar: j
Encoding: 106 106 81
Width: 314
GlyphClass: 2
Flags: W
HStem: -266 69<-161.995 42.2598> 746 20G<145 165.5> 865 105<126.471 202.498>
VStem: 111 108<879.44 954.014> 117 80<-129.87 765.983>
LayerCount: 2
Fore
SplineSet
197 94 m 2,0,1
 197 59 197 59 195.5 19 c 128,-1,2
 194 -21 194 -21 185.5 -61 c 128,-1,3
 177 -101 177 -101 159 -138 c 128,-1,4
 141 -175 141 -175 108.5 -203.5 c 128,-1,5
 76 -232 76 -232 26 -249 c 128,-1,6
 -24 -266 -24 -266 -96 -266 c 0,7,8
 -109 -266 -109 -266 -121 -265.5 c 128,-1,9
 -133 -265 -133 -265 -142 -261.5 c 128,-1,10
 -151 -258 -151 -258 -156.5 -251 c 128,-1,11
 -162 -244 -162 -244 -162 -231 c 256,12,13
 -162 -218 -162 -218 -156.5 -211 c 128,-1,14
 -151 -204 -151 -204 -142 -201 c 128,-1,15
 -133 -198 -133 -198 -121 -197.5 c 128,-1,16
 -109 -197 -109 -197 -96 -197 c 0,17,18
 -13 -197 -13 -197 30.5 -171 c 128,-1,19
 74 -145 74 -145 93.5 -103.5 c 128,-1,20
 113 -62 113 -62 115 -10 c 128,-1,21
 117 42 117 42 117 94 c 2,22,-1
 117 705 l 2,23,24
 117 731 117 731 124.5 748.5 c 128,-1,25
 132 766 132 766 158 766 c 0,26,27
 173 766 173 766 180.5 761.5 c 128,-1,28
 188 757 188 757 192 748.5 c 128,-1,29
 196 740 196 740 196.5 729 c 128,-1,30
 197 718 197 718 197 705 c 2,31,-1
 197 94 l 2,0,1
111 916 m 256,32,33
 111 939 111 939 126 954.5 c 128,-1,34
 141 970 141 970 164 970 c 256,35,36
 187 970 187 970 203 954.5 c 128,-1,37
 219 939 219 939 219 916 c 256,38,39
 219 893 219 893 203 879 c 128,-1,40
 187 865 187 865 164 865 c 256,41,42
 141 865 141 865 126 879 c 128,-1,43
 111 893 111 893 111 916 c 256,32,33
EndSplineSet
EndChar

StartChar: k
Encoding: 107 107 82
Width: 935
GlyphClass: 2
Flags: W
HStem: 0 21G<134.5 148> 662 55<873 889.749>
VStem: 101 80<10.8312 348 410 1099.69>
LayerCount: 2
Fore
SplineSet
873 61 m 2,0,1
 886 48 886 48 886 32 c 0,2,3
 886 19 886 19 877 10.5 c 128,-1,4
 868 2 868 2 854 2 c 0,5,6
 846 2 846 2 837 5.5 c 128,-1,7
 828 9 828 9 820 18 c 2,8,-1
 397 446 l 1,9,-1
 181 348 l 1,10,-1
 181 44 l 2,11,12
 181 21 181 21 168 10.5 c 128,-1,13
 155 0 155 0 141 0 c 0,14,15
 128 0 128 0 114.5 10.5 c 128,-1,16
 101 21 101 21 101 44 c 2,17,-1
 101 1070 l 2,18,19
 101 1090 101 1090 115.5 1100 c 128,-1,20
 130 1110 130 1110 143 1110 c 0,21,22
 157 1110 157 1110 169 1100 c 128,-1,23
 181 1090 181 1090 181 1070 c 2,24,-1
 181 410 l 1,25,-1
 847 714 l 2,26,27
 853 717 853 717 860 717 c 0,28,29
 873 717 873 717 881.5 707 c 128,-1,30
 890 697 890 697 890 686 c 0,31,32
 890 679 890 679 886 672.5 c 128,-1,33
 882 666 882 666 873 662 c 2,34,-1
 458 470 l 1,35,-1
 873 61 l 2,0,1
EndSplineSet
EndChar

StartChar: l
Encoding: 108 108 83
Width: 345
GlyphClass: 2
Flags: W
HStem: 0 21G<165.5 185.5> 1094 20G<167.5 181>
VStem: 132 80<0.0200195 1113.93>
LayerCount: 2
Fore
SplineSet
212 70 m 2,0,1
 212 41 212 41 205 20.5 c 128,-1,2
 198 0 198 0 173 0 c 0,3,4
 158 0 158 0 150 5.5 c 128,-1,5
 142 11 142 11 138 20.5 c 128,-1,6
 134 30 134 30 133 42.5 c 128,-1,7
 132 55 132 55 132 68 c 2,8,-1
 132 1042 l 2,9,10
 132 1057 132 1057 133 1070 c 128,-1,11
 134 1083 134 1083 138.5 1092.5 c 128,-1,12
 143 1102 143 1102 151.5 1108 c 128,-1,13
 160 1114 160 1114 175 1114 c 0,14,15
 187 1114 187 1114 194.5 1108 c 128,-1,16
 202 1102 202 1102 206 1092 c 128,-1,17
 210 1082 210 1082 211 1069.5 c 128,-1,18
 212 1057 212 1057 212 1044 c 2,19,-1
 212 70 l 2,0,1
EndSplineSet
EndChar

StartChar: m
Encoding: 109 109 84
Width: 1518
GlyphClass: 2
Flags: W
HStem: 0 21G<142.5 152 762.5 769 1382.5 1389> 727 59<370.238 656.982 979.576 1261.2>
VStem: 101 80<8.77209 755.229> 724 80<0.0244141 671.46> 1345 80<0.00610352 653.12>
LayerCount: 2
Fore
SplineSet
1345 489 m 2,0,1
 1345 558 1345 558 1329.5 604 c 128,-1,2
 1314 650 1314 650 1287 677.5 c 128,-1,3
 1260 705 1260 705 1224 716 c 128,-1,4
 1188 727 1188 727 1147 727 c 0,5,6
 1079 727 1079 727 1027 713.5 c 128,-1,7
 975 700 975 700 934.5 675 c 128,-1,8
 894 650 894 650 862.5 613.5 c 128,-1,9
 831 577 831 577 804 532 c 1,10,-1
 804 52 l 2,11,12
 804 34 804 34 800.5 24 c 128,-1,13
 797 14 797 14 791 8.5 c 128,-1,14
 785 3 785 3 778.5 1.5 c 128,-1,15
 772 0 772 0 766 0 c 0,16,17
 759 0 759 0 751.5 1 c 128,-1,18
 744 2 744 2 738 7 c 128,-1,19
 732 12 732 12 728 22.5 c 128,-1,20
 724 33 724 33 724 52 c 2,21,-1
 724 532 l 2,22,23
 724 623 724 623 681.5 675 c 128,-1,24
 639 727 639 727 545 727 c 0,25,26
 474 727 474 727 413 711 c 128,-1,27
 352 695 352 695 304.5 668 c 128,-1,28
 257 641 257 641 225 605 c 128,-1,29
 193 569 193 569 181 528 c 1,30,-1
 181 52 l 2,31,32
 181 17 181 17 169.5 8.5 c 128,-1,33
 158 0 158 0 146 0 c 0,34,35
 139 0 139 0 131 1 c 128,-1,36
 123 2 123 2 116.5 7 c 128,-1,37
 110 12 110 12 105.5 22.5 c 128,-1,38
 101 33 101 33 101 52 c 2,39,-1
 101 715 l 2,40,41
 101 731 101 731 105.5 740.5 c 128,-1,42
 110 750 110 750 116.5 755.5 c 128,-1,43
 123 761 123 761 130.5 762.5 c 128,-1,44
 138 764 138 764 145 764 c 0,45,46
 162 764 162 764 171 755.5 c 128,-1,47
 180 747 180 747 180 715 c 2,48,-1
 180 594 l 1,49,50
 196 639 196 639 230.5 675 c 128,-1,51
 265 711 265 711 312.5 735.5 c 128,-1,52
 360 760 360 760 419 773 c 128,-1,53
 478 786 478 786 543 786 c 0,54,55
 619 786 619 786 666 764.5 c 128,-1,56
 713 743 713 743 740 712 c 128,-1,57
 767 681 767 681 778.5 648 c 128,-1,58
 790 615 790 615 795 592 c 1,59,60
 812 623 812 623 838.5 657.5 c 128,-1,61
 865 692 865 692 906 720.5 c 128,-1,62
 947 749 947 749 1004 767.5 c 128,-1,63
 1061 786 1061 786 1139 786 c 0,64,65
 1286 786 1286 786 1355.5 715 c 128,-1,66
 1425 644 1425 644 1425 489 c 2,67,-1
 1425 52 l 2,68,69
 1425 34 1425 34 1421 24 c 128,-1,70
 1417 14 1417 14 1411.5 8.5 c 128,-1,71
 1406 3 1406 3 1399 1.5 c 128,-1,72
 1392 0 1392 0 1386 0 c 0,73,74
 1379 0 1379 0 1371.5 1 c 128,-1,75
 1364 2 1364 2 1358 7 c 128,-1,76
 1352 12 1352 12 1348.5 22.5 c 128,-1,77
 1345 33 1345 33 1345 52 c 2,78,-1
 1345 489 l 2,0,1
EndSplineSet
EndChar

StartChar: n
Encoding: 110 110 85
Width: 1083
GlyphClass: 2
Flags: W
HStem: 0 21G<136 149 943.5 957> 727 59<388.355 783.485>
VStem: 100 80<0.101562 763.898> 912 80<0.0142822 623.135>
LayerCount: 2
Fore
SplineSet
992 72 m 2,0,1
 992 59 992 59 990 46 c 128,-1,2
 988 33 988 33 983.5 23 c 128,-1,3
 979 13 979 13 971 6.5 c 128,-1,4
 963 0 963 0 951 0 c 0,5,6
 936 0 936 0 928.5 6.5 c 128,-1,7
 921 13 921 13 917 23 c 128,-1,8
 913 33 913 33 912.5 46 c 128,-1,9
 912 59 912 59 912 72 c 2,10,-1
 912 418 l 2,11,12
 912 496 912 496 899.5 554 c 128,-1,13
 887 612 887 612 852.5 650.5 c 128,-1,14
 818 689 818 689 757.5 708 c 128,-1,15
 697 727 697 727 601 727 c 0,16,17
 543 727 543 727 476.5 717.5 c 128,-1,18
 410 708 410 708 350 684.5 c 128,-1,19
 290 661 290 661 244 622 c 128,-1,20
 198 583 198 583 180 524 c 1,21,-1
 180 72 l 2,22,23
 180 59 180 59 179 46 c 128,-1,24
 178 33 178 33 174 23 c 128,-1,25
 170 13 170 13 162.5 6.5 c 128,-1,26
 155 0 155 0 143 0 c 0,27,28
 129 0 129 0 120.5 6.5 c 128,-1,29
 112 13 112 13 107.5 23 c 128,-1,30
 103 33 103 33 101.5 46 c 128,-1,31
 100 59 100 59 100 72 c 2,32,-1
 100 694 l 2,33,34
 100 706 100 706 101.5 718.5 c 128,-1,35
 103 731 103 731 107.5 741 c 128,-1,36
 112 751 112 751 120.5 757.5 c 128,-1,37
 129 764 129 764 143 764 c 0,38,39
 155 764 155 764 162.5 758 c 128,-1,40
 170 752 170 752 174 742 c 128,-1,41
 178 732 178 732 179 719.5 c 128,-1,42
 180 707 180 707 180 694 c 2,43,-1
 180 594 l 1,44,45
 208 658 208 658 258.5 696.5 c 128,-1,46
 309 735 309 735 368 754.5 c 128,-1,47
 427 774 427 774 488.5 780 c 128,-1,48
 550 786 550 786 601 786 c 0,49,50
 709 786 709 786 783.5 767.5 c 128,-1,51
 858 749 858 749 904.5 706 c 128,-1,52
 951 663 951 663 971.5 592.5 c 128,-1,53
 992 522 992 522 992 418 c 2,54,-1
 992 72 l 2,0,1
EndSplineSet
EndChar

StartChar: o
Encoding: 111 111 86
Width: 1116
GlyphClass: 2
Flags: W
HStem: -10 59<342.414 773.586> 727 59<332.918 783.082>
VStem: 61 80<201.788 577.9> 975 80<201.788 577.9>
LayerCount: 2
Fore
SplineSet
558 -10 m 256,0,1
 420 -10 420 -10 325 17.5 c 128,-1,2
 230 45 230 45 171.5 96 c 128,-1,3
 113 147 113 147 87 220 c 128,-1,4
 61 293 61 293 61 385 c 0,5,6
 61 491 61 491 90.5 566.5 c 128,-1,7
 120 642 120 642 181.5 691 c 128,-1,8
 243 740 243 740 336.5 763 c 128,-1,9
 430 786 430 786 558 786 c 256,10,11
 686 786 686 786 779.5 763 c 128,-1,12
 873 740 873 740 934.5 691 c 128,-1,13
 996 642 996 642 1025.5 566.5 c 128,-1,14
 1055 491 1055 491 1055 385 c 0,15,16
 1055 293 1055 293 1029 220 c 128,-1,17
 1003 147 1003 147 944.5 96 c 128,-1,18
 886 45 886 45 791 17.5 c 128,-1,19
 696 -10 696 -10 558 -10 c 256,0,1
558 49 m 256,20,21
 649 49 649 49 715 62.5 c 128,-1,22
 781 76 781 76 827.5 100 c 128,-1,23
 874 124 874 124 902.5 156 c 128,-1,24
 931 188 931 188 947.5 225.5 c 128,-1,25
 964 263 964 263 969.5 303.5 c 128,-1,26
 975 344 975 344 975 385 c 0,27,28
 975 478 975 478 951 543 c 128,-1,29
 927 608 927 608 876 649 c 128,-1,30
 825 690 825 690 746 708.5 c 128,-1,31
 667 727 667 727 558 727 c 256,32,33
 449 727 449 727 370 708.5 c 128,-1,34
 291 690 291 690 240 649 c 128,-1,35
 189 608 189 608 165 543 c 128,-1,36
 141 478 141 478 141 385 c 0,37,38
 141 344 141 344 146.5 303.5 c 128,-1,39
 152 263 152 263 168.5 225.5 c 128,-1,40
 185 188 185 188 213.5 156 c 128,-1,41
 242 124 242 124 288.5 100 c 128,-1,42
 335 76 335 76 401 62.5 c 128,-1,43
 467 49 467 49 558 49 c 256,20,21
EndSplineSet
EndChar

StartChar: p
Encoding: 112 112 87
Width: 1137
GlyphClass: 2
Flags: W
HStem: -337 21G<133.5 148.5> -10 59<390.582 823.205> 727 59<400.016 812.484>
VStem: 102 80<-330.296 97 125.85 755.229> 995 80<192.919 576.986>
LayerCount: 2
Fore
SplineSet
632 786 m 0,0,1
 722 786 722 786 802.5 767.5 c 128,-1,2
 883 749 883 749 943.5 704 c 128,-1,3
 1004 659 1004 659 1039.5 584 c 128,-1,4
 1075 509 1075 509 1075 396 c 0,5,6
 1075 284 1075 284 1045.5 206.5 c 128,-1,7
 1016 129 1016 129 959.5 81 c 128,-1,8
 903 33 903 33 820.5 11.5 c 128,-1,9
 738 -10 738 -10 632 -10 c 0,10,11
 532 -10 532 -10 449.5 6.5 c 128,-1,12
 367 23 367 23 307 43 c 0,13,14
 237 67 237 67 182 97 c 1,15,-1
 180 -267 l 2,16,17
 180 -280 180 -280 179.5 -292.5 c 128,-1,18
 179 -305 179 -305 175 -315 c 128,-1,19
 171 -325 171 -325 163.5 -331 c 128,-1,20
 156 -337 156 -337 141 -337 c 256,21,22
 126 -337 126 -337 118.5 -330.5 c 128,-1,23
 111 -324 111 -324 107 -313.5 c 128,-1,24
 103 -303 103 -303 102.5 -289.5 c 128,-1,25
 102 -276 102 -276 102 -261 c 2,26,-1
 102 715 l 2,27,28
 102 747 102 747 113.5 755.5 c 128,-1,29
 125 764 125 764 139 764 c 0,30,31
 156 764 156 764 166.5 755.5 c 128,-1,32
 177 747 177 747 177 715 c 2,33,-1
 177 585 l 1,34,35
 189 628 189 628 217.5 659.5 c 128,-1,36
 246 691 246 691 284.5 713 c 128,-1,37
 323 735 323 735 369.5 749 c 128,-1,38
 416 763 416 763 462.5 771.5 c 128,-1,39
 509 780 509 780 553 783 c 128,-1,40
 597 786 597 786 632 786 c 0,0,1
632 727 m 1,41,42
 572 726 572 726 501 717.5 c 128,-1,43
 430 709 430 709 365 687 c 128,-1,44
 300 665 300 665 250 626 c 128,-1,45
 200 587 200 587 182 524 c 1,46,-1
 182 140 l 1,47,48
 249 114 249 114 323 94 c 0,49,50
 386 77 386 77 466.5 63 c 128,-1,51
 547 49 547 49 632 49 c 0,52,53
 728 49 728 49 796.5 69 c 128,-1,54
 865 89 865 89 909.5 131.5 c 128,-1,55
 954 174 954 174 974.5 239.5 c 128,-1,56
 995 305 995 305 995 396 c 0,57,58
 995 490 995 490 966.5 554 c 128,-1,59
 938 618 938 618 889 656 c 128,-1,60
 840 694 840 694 773.5 710.5 c 128,-1,61
 707 727 707 727 632 727 c 1,41,42
EndSplineSet
EndChar

StartChar: q
Encoding: 113 113 88
Width: 1136
GlyphClass: 2
Flags: W
HStem: -338 21G<986.5 1001.5> -10 59<313.795 759.756> 727 59<324.516 737.045>
VStem: 62 80<192.919 576.986> 955 80<-331.812 117 137.148 764.651>
LayerCount: 2
Fore
SplineSet
505 786 m 0,0,1
 540 786 540 786 583.5 783 c 128,-1,2
 627 780 627 780 673 771.5 c 128,-1,3
 719 763 719 763 764.5 749 c 128,-1,4
 810 735 810 735 848.5 713 c 128,-1,5
 887 691 887 691 915 659.5 c 128,-1,6
 943 628 943 628 955 585 c 1,7,-1
 955 724 l 2,8,9
 955 756 955 756 967 766 c 128,-1,10
 979 776 979 776 996 776 c 0,11,12
 1010 776 1010 776 1022.5 765 c 128,-1,13
 1035 754 1035 754 1035 722 c 2,14,-1
 1035 -269 l 2,15,16
 1035 -284 1035 -284 1034 -296.5 c 128,-1,17
 1033 -309 1033 -309 1029 -318 c 128,-1,18
 1025 -327 1025 -327 1017 -332.5 c 128,-1,19
 1009 -338 1009 -338 994 -338 c 256,20,21
 979 -338 979 -338 971.5 -332 c 128,-1,22
 964 -326 964 -326 960 -316 c 128,-1,23
 956 -306 956 -306 955.5 -293 c 128,-1,24
 955 -280 955 -280 955 -267 c 2,25,-1
 955 117 l 1,26,27
 920 81 920 81 859 53 c 0,28,29
 807 29 807 29 720.5 9.5 c 128,-1,30
 634 -10 634 -10 505 -10 c 0,31,32
 399 -10 399 -10 316.5 11.5 c 128,-1,33
 234 33 234 33 177.5 81 c 128,-1,34
 121 129 121 129 91.5 206.5 c 128,-1,35
 62 284 62 284 62 396 c 0,36,37
 62 509 62 509 97.5 584 c 128,-1,38
 133 659 133 659 193.5 704 c 128,-1,39
 254 749 254 749 334.5 767.5 c 128,-1,40
 415 786 415 786 505 786 c 0,0,1
505 727 m 1,41,42
 430 727 430 727 363.5 710.5 c 128,-1,43
 297 694 297 694 248 656 c 128,-1,44
 199 618 199 618 170.5 554 c 128,-1,45
 142 490 142 490 142 396 c 0,46,47
 142 305 142 305 162.5 239.5 c 128,-1,48
 183 174 183 174 227.5 131.5 c 128,-1,49
 272 89 272 89 340.5 69 c 128,-1,50
 409 49 409 49 505 49 c 0,51,52
 630 49 630 49 715 66.5 c 128,-1,53
 800 84 800 84 854 106 c 0,54,55
 916 132 916 132 955 164 c 1,56,-1
 955 524 l 1,57,58
 937 587 937 587 887 626 c 128,-1,59
 837 665 837 665 772 687 c 128,-1,60
 707 709 707 709 636 717.5 c 128,-1,61
 565 726 565 726 505 727 c 1,41,42
EndSplineSet
EndChar

StartChar: r
Encoding: 114 114 89
Width: 781
GlyphClass: 2
Flags: W
HStem: 0 21G<134 153.5> 722 64<357.519 744.139> 746 20G<140 156>
VStem: 100 80<22.6885 765.548>
LayerCount: 2
Fore
SplineSet
740 762 m 256,0,1
 754 758 754 758 758.5 746 c 128,-1,2
 763 734 763 734 759.5 722 c 128,-1,3
 756 710 756 710 744.5 702 c 128,-1,4
 733 694 733 694 715 699 c 0,5,6
 676 710 676 710 640 716 c 128,-1,7
 604 722 604 722 563 722 c 0,8,9
 495 722 495 722 433.5 710.5 c 128,-1,10
 372 699 372 699 321.5 675.5 c 128,-1,11
 271 652 271 652 234.5 615.5 c 128,-1,12
 198 579 198 579 180 530 c 1,13,-1
 180 70 l 2,14,15
 180 44 180 44 173 22 c 128,-1,16
 166 0 166 0 141 0 c 0,17,18
 127 0 127 0 118.5 6 c 128,-1,19
 110 12 110 12 106 22 c 128,-1,20
 102 32 102 32 101 44.5 c 128,-1,21
 100 57 100 57 100 70 c 2,22,-1
 100 696 l 2,23,24
 100 709 100 709 102 721.5 c 128,-1,25
 104 734 104 734 109 744 c 128,-1,26
 114 754 114 754 123.5 760 c 128,-1,27
 133 766 133 766 147 766 c 0,28,29
 165 766 165 766 172.5 747.5 c 128,-1,30
 180 729 180 729 181.5 702 c 128,-1,31
 183 675 183 675 181.5 645.5 c 128,-1,32
 180 616 180 616 180 594 c 1,33,34
 198 655 198 655 243.5 693 c 128,-1,35
 289 731 289 731 345 751.5 c 128,-1,36
 401 772 401 772 459.5 779 c 128,-1,37
 518 786 518 786 563 786 c 0,38,39
 601 786 601 786 628.5 783.5 c 128,-1,40
 656 781 656 781 676 777.5 c 128,-1,41
 696 774 696 774 711 770 c 128,-1,42
 726 766 726 766 740 762 c 256,0,1
EndSplineSet
EndChar

StartChar: s
Encoding: 115 115 90
Width: 1062
GlyphClass: 2
Flags: W
HStem: -10 59<258.754 800.559> 350.5 68.5<229.492 849.447> 631 61<879.449 961.901> 727 59<269.208 747.531>
VStem: 59 80<479.598 648.17> 932 80<125.128 291.316>
LayerCount: 2
Fore
SplineSet
932 209 m 0,0,1
 932 262 932 262 894.5 291 c 128,-1,2
 857 320 857 320 795.5 333.5 c 128,-1,3
 734 347 734 347 655.5 350.5 c 128,-1,4
 577 354 577 354 495.5 356.5 c 128,-1,5
 414 359 414 359 335.5 365.5 c 128,-1,6
 257 372 257 372 195.5 392.5 c 128,-1,7
 134 413 134 413 96.5 451.5 c 128,-1,8
 59 490 59 490 59 557 c 0,9,10
 59 626 59 626 96.5 670 c 128,-1,11
 134 714 134 714 195 740 c 128,-1,12
 256 766 256 766 333 776 c 128,-1,13
 410 786 410 786 490 786 c 0,14,15
 618 786 618 786 733.5 764 c 128,-1,16
 849 742 849 742 944 692 c 0,17,18
 954 687 954 687 957.5 679.5 c 128,-1,19
 961 672 961 672 962 664 c 1,20,21
 962 651 962 651 954 641 c 128,-1,22
 946 631 946 631 936 631 c 0,23,24
 930 631 930 631 928 633 c 0,25,26
 843 676 843 676 734 701.5 c 128,-1,27
 625 727 625 727 494 727 c 0,28,29
 426 727 426 727 362 718.5 c 128,-1,30
 298 710 298 710 248.5 690.5 c 128,-1,31
 199 671 199 671 169 638.5 c 128,-1,32
 139 606 139 606 139 557 c 0,33,34
 139 507 139 507 176.5 480 c 128,-1,35
 214 453 214 453 275.5 440.5 c 128,-1,36
 337 428 337 428 415.5 425 c 128,-1,37
 494 422 494 422 575.5 419 c 128,-1,38
 657 416 657 416 735.5 408.5 c 128,-1,39
 814 401 814 401 875.5 379.5 c 128,-1,40
 937 358 937 358 974.5 317.5 c 128,-1,41
 1012 277 1012 277 1012 209 c 0,42,43
 1012 148 1012 148 974 106 c 128,-1,44
 936 64 936 64 873 38.5 c 128,-1,45
 810 13 810 13 727.5 1.5 c 128,-1,46
 645 -10 645 -10 557 -10 c 0,47,48
 503 -10 503 -10 440.5 -7.5 c 128,-1,49
 378 -5 378 -5 316 4.5 c 128,-1,50
 254 14 254 14 196 33.5 c 128,-1,51
 138 53 138 53 95 87 c 0,52,53
 81 97 81 97 81 113 c 0,54,55
 81 126 81 126 88.5 135.5 c 128,-1,56
 96 145 96 145 107 145 c 0,57,58
 114 145 114 145 119 141 c 0,59,60
 161 112 161 112 209.5 94 c 128,-1,61
 258 76 258 76 312 66 c 128,-1,62
 366 56 366 56 425 52.5 c 128,-1,63
 484 49 484 49 547 49 c 0,64,65
 622 49 622 49 691.5 56.5 c 128,-1,66
 761 64 761 64 814.5 82.5 c 128,-1,67
 868 101 868 101 900 131.5 c 128,-1,68
 932 162 932 162 932 209 c 0,0,1
EndSplineSet
EndChar

StartChar: t
Encoding: 116 116 91
Width: 680
GlyphClass: 2
Flags: W
HStem: -10 59<295.081 537.153> 26 95<532.52 653.124> 727 48<35.2205 144 224 631.264>
VStem: 144 80<109.961 727 775 1096.23>
LayerCount: 2
Fore
SplineSet
609 775 m 2,0,1
 624 775 624 775 631.5 767.5 c 128,-1,2
 639 760 639 760 639 751 c 256,3,4
 639 742 639 742 631.5 734.5 c 128,-1,5
 624 727 624 727 609 727 c 2,6,-1
 224 727 l 1,7,-1
 224 279 l 2,8,9
 224 206 224 206 239 161 c 128,-1,10
 254 116 254 116 279.5 91 c 128,-1,11
 305 66 305 66 339.5 57.5 c 128,-1,12
 374 49 374 49 413 49 c 0,13,14
 461 49 461 49 507 66 c 128,-1,15
 553 83 553 83 613 115 c 0,16,17
 625 121 625 121 636 121 c 0,18,19
 649 121 649 121 656.5 113.5 c 128,-1,20
 664 106 664 106 664 95 c 0,21,22
 664 75 664 75 642 63 c 0,23,24
 600 40 600 40 567.5 26 c 128,-1,25
 535 12 535 12 507.5 4 c 128,-1,26
 480 -4 480 -4 454.5 -7 c 128,-1,27
 429 -10 429 -10 399 -10 c 0,28,29
 345 -10 345 -10 298.5 5 c 128,-1,30
 252 20 252 20 217.5 53.5 c 128,-1,31
 183 87 183 87 163.5 142.5 c 128,-1,32
 144 198 144 198 144 279 c 2,33,-1
 144 727 l 1,34,-1
 56 727 l 2,35,36
 42 727 42 727 35 734.5 c 128,-1,37
 28 742 28 742 28 751 c 256,38,39
 28 760 28 760 35 767.5 c 128,-1,40
 42 775 42 775 56 775 c 2,41,-1
 144 775 l 1,42,-1
 144 1056 l 2,43,44
 144 1088 144 1088 157 1096.5 c 128,-1,45
 170 1105 170 1105 184 1105 c 0,46,47
 201 1105 201 1105 212.5 1096.5 c 128,-1,48
 224 1088 224 1088 224 1056 c 2,49,-1
 224 775 l 1,50,-1
 609 775 l 2,0,1
EndSplineSet
EndChar

StartChar: u
Encoding: 117 117 92
Width: 1064
GlyphClass: 2
Flags: W
HStem: -10 59<291.484 679.437> 0 21G<918.5 932> 746 20G<125.5 139.5 914.5 928.5>
VStem: 92 80<145.656 765.998> 884 80<0.0366211 141 151.516 765.922>
LayerCount: 2
Fore
SplineSet
884 141 m 1,0,1
 847 98 847 98 791 65 c 0,2,3
 743 36 743 36 668.5 13 c 128,-1,4
 594 -10 594 -10 490 -10 c 0,5,6
 383 -10 383 -10 307.5 10.5 c 128,-1,7
 232 31 232 31 184 74.5 c 128,-1,8
 136 118 136 118 114 185.5 c 128,-1,9
 92 253 92 253 92 348 c 2,10,-1
 92 694 l 2,11,12
 92 707 92 707 93.5 720 c 128,-1,13
 95 733 95 733 99 743 c 128,-1,14
 103 753 103 753 111 759.5 c 128,-1,15
 119 766 119 766 132 766 c 0,16,17
 147 766 147 766 155 759.5 c 128,-1,18
 163 753 163 753 166.5 743 c 128,-1,19
 170 733 170 733 171 720 c 128,-1,20
 172 707 172 707 172 694 c 2,21,-1
 172 348 l 2,22,23
 172 264 172 264 186 207 c 128,-1,24
 200 150 200 150 235.5 115 c 128,-1,25
 271 80 271 80 332.5 64.5 c 128,-1,26
 394 49 394 49 490 49 c 0,27,28
 577 49 577 49 648.5 69 c 128,-1,29
 720 89 720 89 773 113 c 0,30,31
 835 141 835 141 884 178 c 1,32,-1
 884 694 l 2,33,34
 884 707 884 707 885 720 c 128,-1,35
 886 733 886 733 889.5 743 c 128,-1,36
 893 753 893 753 900.5 759.5 c 128,-1,37
 908 766 908 766 921 766 c 0,38,39
 936 766 936 766 944.5 759.5 c 128,-1,40
 953 753 953 753 957.5 743 c 128,-1,41
 962 733 962 733 963 720 c 128,-1,42
 964 707 964 707 964 694 c 2,43,-1
 964 70 l 2,44,45
 964 57 964 57 962.5 44.5 c 128,-1,46
 961 32 961 32 957 22 c 128,-1,47
 953 12 953 12 945.5 6 c 128,-1,48
 938 0 938 0 926 0 c 0,49,50
 911 0 911 0 902.5 6 c 128,-1,51
 894 12 894 12 889.5 22 c 128,-1,52
 885 32 885 32 884 44.5 c 128,-1,53
 883 57 883 57 883 70 c 2,54,-1
 884 141 l 1,0,1
EndSplineSet
EndChar

StartChar: v
Encoding: 118 118 93
Width: 940
GlyphClass: 2
Flags: W
LayerCount: 2
Fore
SplineSet
470 -10 m 256,0,1
 450 -10 450 -10 437.5 4 c 128,-1,2
 425 18 425 18 419 29 c 2,3,-1
 29 708 l 2,4,5
 15 733 15 733 19 750.5 c 128,-1,6
 23 768 23 768 36.5 775 c 128,-1,7
 50 782 50 782 67.5 776 c 128,-1,8
 85 770 85 770 97 748 c 2,9,-1
 470 73 l 1,10,-1
 843 748 l 2,11,12
 855 770 855 770 872.5 776 c 128,-1,13
 890 782 890 782 903.5 775 c 128,-1,14
 917 768 917 768 921 750.5 c 128,-1,15
 925 733 925 733 911 708 c 2,16,-1
 521 29 l 2,17,18
 515 18 515 18 502.5 4 c 128,-1,19
 490 -10 490 -10 470 -10 c 256,0,1
EndSplineSet
EndChar

StartChar: w
Encoding: 119 119 94
Width: 1204
GlyphClass: 2
Flags: W
HStem: 757 20G<63 77.5 592 610.5 1126.5 1141>
VStem: 30 86<693.248 764.107>
LayerCount: 2
Fore
SplineSet
876 90 m 1,0,-1
 1088 737 l 2,1,2
 1096 759 1096 759 1108 768 c 128,-1,3
 1120 777 1120 777 1133 777 c 0,4,5
 1149 777 1149 777 1161.5 764.5 c 128,-1,6
 1174 752 1174 752 1174 731 c 0,7,8
 1174 720 1174 720 1170 709 c 2,9,-1
 934 49 l 2,10,11
 925 23 925 23 909 9 c 128,-1,12
 893 -5 893 -5 876 -5 c 0,13,14
 860 -5 860 -5 845.5 7.5 c 128,-1,15
 831 20 831 20 821 49 c 2,16,-1
 602 687 l 1,17,-1
 383 49 l 2,18,19
 373 20 373 20 358.5 7.5 c 128,-1,20
 344 -5 344 -5 328 -5 c 0,21,22
 311 -5 311 -5 295 9 c 128,-1,23
 279 23 279 23 270 49 c 2,24,-1
 34 709 l 2,25,26
 30 720 30 720 30 731 c 0,27,28
 30 752 30 752 42.5 764.5 c 128,-1,29
 55 777 55 777 71 777 c 0,30,31
 84 777 84 777 96 768 c 128,-1,32
 108 759 108 759 116 737 c 2,33,-1
 328 90 l 1,34,-1
 540 725 l 2,35,36
 549 753 549 753 566 766 c 128,-1,37
 583 779 583 779 601 779 c 0,38,39
 620 779 620 779 637.5 765 c 128,-1,40
 655 751 655 751 664 725 c 2,41,-1
 876 90 l 1,0,-1
EndSplineSet
EndChar

StartChar: x
Encoding: 120 120 95
Width: 914
GlyphClass: 2
Flags: W
HStem: 755 20G<59.75 77.25 836 854>
LayerCount: 2
Fore
SplineSet
858 70 m 2,0,1
 877 52 877 52 879.5 34.5 c 128,-1,2
 882 17 882 17 873 7 c 128,-1,3
 864 -3 864 -3 846.5 -2.5 c 128,-1,4
 829 -2 829 -2 808 17 c 2,5,-1
 457 337 l 1,6,-1
 106 17 l 2,7,8
 85 -2 85 -2 67.5 -2.5 c 128,-1,9
 50 -3 50 -3 41 7 c 128,-1,10
 32 17 32 17 34 34.5 c 128,-1,11
 36 52 36 52 56 70 c 2,12,-1
 403 387 l 1,13,-1
 52 707 l 2,14,15
 34 723 34 723 33 739.5 c 128,-1,16
 32 756 32 756 41.5 765.5 c 128,-1,17
 51 775 51 775 68.5 775 c 128,-1,18
 86 775 86 775 106 757 c 2,19,-1
 457 436 l 1,20,-1
 808 757 l 2,21,22
 827 775 827 775 845 775 c 128,-1,23
 863 775 863 775 872.5 765.5 c 128,-1,24
 882 756 882 756 881 739.5 c 128,-1,25
 880 723 880 723 862 707 c 2,26,-1
 511 387 l 1,27,-1
 858 70 l 2,0,1
EndSplineSet
EndChar

StartChar: y
Encoding: 121 121 96
Width: 1071
GlyphClass: 2
Flags: W
HStem: -334 59<321.36 722.488> -10 59<288.65 702.466> 746 20G<124.5 138.5 923 936.5>
VStem: 92 80<147.185 765.986> 891 80<-105.357 765.96>
LayerCount: 2
Fore
SplineSet
532 -275 m 0,0,1
 635 -275 635 -275 704 -252.5 c 128,-1,2
 773 -230 773 -230 814.5 -178.5 c 128,-1,3
 856 -127 856 -127 873.5 -41.5 c 128,-1,4
 891 44 891 44 891 170 c 1,5,6
 880 129 880 129 855 100 c 128,-1,7
 830 71 830 71 796 51 c 128,-1,8
 762 31 762 31 721 19 c 128,-1,9
 680 7 680 7 638 0.5 c 128,-1,10
 596 -6 596 -6 555.5 -8 c 128,-1,11
 515 -10 515 -10 481 -10 c 0,12,13
 373 -10 373 -10 299 9.5 c 128,-1,14
 225 29 225 29 179 75.5 c 128,-1,15
 133 122 133 122 112.5 198 c 128,-1,16
 92 274 92 274 92 387 c 2,17,-1
 92 694 l 2,18,19
 92 707 92 707 93 720 c 128,-1,20
 94 733 94 733 98 743 c 128,-1,21
 102 753 102 753 110 759.5 c 128,-1,22
 118 766 118 766 131 766 c 0,23,24
 146 766 146 766 154 759.5 c 128,-1,25
 162 753 162 753 166 743 c 128,-1,26
 170 733 170 733 171 720 c 128,-1,27
 172 707 172 707 172 694 c 2,28,-1
 172 387 l 2,29,30
 172 289 172 289 184.5 224 c 128,-1,31
 197 159 197 159 231 120 c 128,-1,32
 265 81 265 81 325.5 65 c 128,-1,33
 386 49 386 49 481 49 c 0,34,35
 538 49 538 49 603 57 c 128,-1,36
 668 65 668 65 726.5 86 c 128,-1,37
 785 107 785 107 829.5 144 c 128,-1,38
 874 181 874 181 891 240 c 1,39,-1
 891 694 l 2,40,41
 891 707 891 707 892.5 720 c 128,-1,42
 894 733 894 733 898 743 c 128,-1,43
 902 753 902 753 909.5 759.5 c 128,-1,44
 917 766 917 766 929 766 c 0,45,46
 944 766 944 766 952 759.5 c 128,-1,47
 960 753 960 753 964.5 743 c 128,-1,48
 969 733 969 733 970 720 c 128,-1,49
 971 707 971 707 971 694 c 2,50,-1
 971 203 l 2,51,52
 971 49 971 49 946.5 -54 c 128,-1,53
 922 -157 922 -157 869 -219.5 c 128,-1,54
 816 -282 816 -282 733 -308 c 128,-1,55
 650 -334 650 -334 532 -334 c 0,56,57
 448 -334 448 -334 390.5 -325 c 128,-1,58
 333 -316 333 -316 293.5 -302.5 c 128,-1,59
 254 -289 254 -289 228 -272 c 128,-1,60
 202 -255 202 -255 183 -240 c 0,61,62
 178 -236 178 -236 176 -230 c 128,-1,63
 174 -224 174 -224 174.5 -218 c 128,-1,64
 175 -212 175 -212 177 -207 c 128,-1,65
 179 -202 179 -202 181 -199 c 0,66,67
 186 -193 186 -193 198.5 -189 c 128,-1,68
 211 -185 211 -185 223 -194 c 0,69,70
 242 -208 242 -208 267.5 -222.5 c 128,-1,71
 293 -237 293 -237 329.5 -248.5 c 128,-1,72
 366 -260 366 -260 415 -267.5 c 128,-1,73
 464 -275 464 -275 532 -275 c 0,0,1
EndSplineSet
EndChar

StartChar: z
Encoding: 122 122 97
Width: 971
GlyphClass: 2
Flags: W
HStem: 0 70<170 902.812> 702 70<71.673 793>
LayerCount: 2
Fore
SplineSet
117 0 m 2,0,1
 102 0 102 0 89 0.5 c 128,-1,2
 76 1 76 1 66.5 4 c 128,-1,3
 57 7 57 7 51 14 c 128,-1,4
 45 21 45 21 45 33 c 0,5,6
 45 49 45 49 55 59 c 2,7,-1
 424 381 l 1,8,9
 608 540 608 540 793 702 c 1,10,-1
 139 702 l 2,11,12
 124 702 124 702 111 702.5 c 128,-1,13
 98 703 98 703 88 706 c 128,-1,14
 78 709 78 709 72 716 c 128,-1,15
 66 723 66 723 66 735 c 0,16,17
 66 750 66 750 71.5 757.5 c 128,-1,18
 77 765 77 765 87 768 c 128,-1,19
 97 771 97 771 109.5 771.5 c 128,-1,20
 122 772 122 772 137 772 c 2,21,-1
 846 772 l 2,22,23
 861 772 861 772 874 771.5 c 128,-1,24
 887 771 887 771 897.5 768 c 128,-1,25
 908 765 908 765 914 757.5 c 128,-1,26
 920 750 920 750 920 735 c 256,27,28
 920 720 920 720 907 711 c 1,29,-1
 170 70 l 1,30,-1
 836 70 l 2,31,32
 851 70 851 70 864 69.5 c 128,-1,33
 877 69 877 69 887 66 c 128,-1,34
 897 63 897 63 903 55.5 c 128,-1,35
 909 48 909 48 909 33 c 0,36,37
 909 21 909 21 902.5 14 c 128,-1,38
 896 7 896 7 886 4 c 128,-1,39
 876 1 876 1 863.5 0.5 c 128,-1,40
 851 0 851 0 838 0 c 2,41,-1
 117 0 l 2,0,1
EndSplineSet
EndChar

StartChar: braceleft
Encoding: 123 123 98
Width: 605
GlyphClass: 2
Flags: W
HStem: 23 63<437.375 590.748> 718 64<17.2522 150.277> 1413 64<437.116 590.748>
VStem: 9 590
LayerCount: 2
Fore
SplineSet
42 782 m 0,0,1
 108 782 108 782 149 801.5 c 128,-1,2
 190 821 190 821 214.5 854.5 c 128,-1,3
 239 888 239 888 249.5 932.5 c 128,-1,4
 260 977 260 977 264.5 1027 c 128,-1,5
 269 1077 269 1077 271.5 1129.5 c 128,-1,6
 274 1182 274 1182 281 1232 c 128,-1,7
 288 1282 288 1282 304 1326.5 c 128,-1,8
 320 1371 320 1371 352 1404.5 c 128,-1,9
 384 1438 384 1438 435.5 1457.5 c 128,-1,10
 487 1477 487 1477 566 1477 c 0,11,12
 583 1477 583 1477 591 1466.5 c 128,-1,13
 599 1456 599 1456 599 1444 c 0,14,15
 599 1431 599 1431 591 1422 c 128,-1,16
 583 1413 583 1413 566 1413 c 2,17,-1
 549 1413 l 2,18,19
 482 1413 482 1413 442.5 1385.5 c 128,-1,20
 403 1358 403 1358 382 1313 c 128,-1,21
 361 1268 361 1268 353.5 1210 c 128,-1,22
 346 1152 346 1152 341 1091 c 128,-1,23
 336 1030 336 1030 329.5 971 c 128,-1,24
 323 912 323 912 304 864.5 c 128,-1,25
 285 817 285 817 249.5 786 c 128,-1,26
 214 755 214 755 151 750 c 1,27,28
 214 745 214 745 249.5 713.5 c 128,-1,29
 285 682 285 682 304 634.5 c 128,-1,30
 323 587 323 587 329.5 528 c 128,-1,31
 336 469 336 469 341 408 c 128,-1,32
 346 347 346 347 353.5 289 c 128,-1,33
 361 231 361 231 382 186 c 128,-1,34
 403 141 403 141 442.5 113.5 c 128,-1,35
 482 86 482 86 549 86 c 0,36,37
 554 86 554 86 558.5 86.5 c 128,-1,38
 563 87 563 87 568 87 c 0,39,40
 584 87 584 87 591.5 77 c 128,-1,41
 599 67 599 67 599 56 c 0,42,43
 599 43 599 43 591 33 c 128,-1,44
 583 23 583 23 566 23 c 0,45,46
 487 23 487 23 435.5 42.5 c 128,-1,47
 384 62 384 62 352 95.5 c 128,-1,48
 320 129 320 129 304 173.5 c 128,-1,49
 288 218 288 218 281 268 c 128,-1,50
 274 318 274 318 271.5 370.5 c 128,-1,51
 269 423 269 423 264.5 473 c 128,-1,52
 260 523 260 523 249.5 567.5 c 128,-1,53
 239 612 239 612 214.5 645.5 c 128,-1,54
 190 679 190 679 149 698.5 c 128,-1,55
 108 718 108 718 42 718 c 0,56,57
 25 718 25 718 17 728 c 128,-1,58
 9 738 9 738 9 750 c 256,59,60
 9 762 9 762 17 772 c 128,-1,61
 25 782 25 782 42 782 c 0,0,1
EndSplineSet
EndChar

StartChar: bar
Encoding: 124 124 99
Width: 304
GlyphClass: 2
Flags: W
VStem: 116 72<-127.327 1290.33>
LayerCount: 2
Fore
SplineSet
188 -63 m 2,0,1
 188 -78 188 -78 187.5 -90.5 c 128,-1,2
 187 -103 187 -103 183.5 -112.5 c 128,-1,3
 180 -122 180 -122 173 -127.5 c 128,-1,4
 166 -133 166 -133 153 -133 c 0,5,6
 138 -133 138 -133 130.5 -127.5 c 128,-1,7
 123 -122 123 -122 120 -112.5 c 128,-1,8
 117 -103 117 -103 116.5 -91 c 128,-1,9
 116 -79 116 -79 116 -66 c 2,10,-1
 116 1225 l 2,11,12
 116 1240 116 1240 116.5 1252.5 c 128,-1,13
 117 1265 117 1265 120 1275 c 128,-1,14
 123 1285 123 1285 130.5 1290.5 c 128,-1,15
 138 1296 138 1296 153 1296 c 0,16,17
 166 1296 166 1296 173 1290 c 128,-1,18
 180 1284 180 1284 183.5 1274.5 c 128,-1,19
 187 1265 187 1265 187.5 1252.5 c 128,-1,20
 188 1240 188 1240 188 1227 c 2,21,-1
 188 -63 l 2,0,1
EndSplineSet
EndChar

StartChar: braceright
Encoding: 125 125 100
Width: 605
GlyphClass: 2
Flags: W
HStem: 23 64<15.2522 170.617> 718 64<455.723 588.748> 1413 64<15.2522 168.884>
VStem: 7 590
CounterMasks: 1 e0
LayerCount: 2
Fore
SplineSet
564 782 m 0,0,1
 581 782 581 782 589 772 c 128,-1,2
 597 762 597 762 597 750 c 256,3,4
 597 738 597 738 589 728 c 128,-1,5
 581 718 581 718 564 718 c 0,6,7
 498 718 498 718 457 698.5 c 128,-1,8
 416 679 416 679 391.5 645.5 c 128,-1,9
 367 612 367 612 356.5 567.5 c 128,-1,10
 346 523 346 523 341.5 473 c 128,-1,11
 337 423 337 423 334.5 370.5 c 128,-1,12
 332 318 332 318 325 268 c 128,-1,13
 318 218 318 218 302 173.5 c 128,-1,14
 286 129 286 129 254 95.5 c 128,-1,15
 222 62 222 62 170.5 42.5 c 128,-1,16
 119 23 119 23 40 23 c 0,17,18
 23 23 23 23 15 33 c 128,-1,19
 7 43 7 43 7 56 c 0,20,21
 7 67 7 67 14.5 77 c 128,-1,22
 22 87 22 87 38 87 c 0,23,24
 43 87 43 87 47.5 86.5 c 128,-1,25
 52 86 52 86 57 86 c 0,26,27
 124 86 124 86 163.5 113.5 c 128,-1,28
 203 141 203 141 224 186 c 128,-1,29
 245 231 245 231 252.5 289 c 128,-1,30
 260 347 260 347 265 408 c 128,-1,31
 270 469 270 469 276.5 528 c 128,-1,32
 283 587 283 587 302 634.5 c 128,-1,33
 321 682 321 682 356.5 713.5 c 128,-1,34
 392 745 392 745 455 750 c 1,35,36
 392 755 392 755 356.5 786 c 128,-1,37
 321 817 321 817 302 864.5 c 128,-1,38
 283 912 283 912 276.5 971 c 128,-1,39
 270 1030 270 1030 265 1091 c 128,-1,40
 260 1152 260 1152 252.5 1210 c 128,-1,41
 245 1268 245 1268 224 1313 c 128,-1,42
 203 1358 203 1358 163.5 1385.5 c 128,-1,43
 124 1413 124 1413 57 1413 c 2,44,-1
 40 1413 l 2,45,46
 23 1413 23 1413 15 1422 c 128,-1,47
 7 1431 7 1431 7 1444 c 0,48,49
 7 1456 7 1456 15 1466.5 c 128,-1,50
 23 1477 23 1477 40 1477 c 0,51,52
 119 1477 119 1477 170.5 1457.5 c 128,-1,53
 222 1438 222 1438 254 1404.5 c 128,-1,54
 286 1371 286 1371 302 1326.5 c 128,-1,55
 318 1282 318 1282 325 1232 c 128,-1,56
 332 1182 332 1182 334.5 1129.5 c 128,-1,57
 337 1077 337 1077 341.5 1027 c 128,-1,58
 346 977 346 977 356.5 932.5 c 128,-1,59
 367 888 367 888 391.5 854.5 c 128,-1,60
 416 821 416 821 457 801.5 c 128,-1,61
 498 782 498 782 564 782 c 0,0,1
EndSplineSet
EndChar

StartChar: asciitilde
Encoding: 126 126 101
Width: 969
GlyphClass: 2
Flags: W
HStem: 403 72<573.693 771.241> 612 72<204 400.307>
VStem: 89 71<440 566.979> 814 73<518.021 647>
LayerCount: 2
Fore
SplineSet
668 475 m 0,0,1
 696 475 696 475 722.5 482.5 c 128,-1,2
 749 490 749 490 769.5 509 c 128,-1,3
 790 528 790 528 802 561.5 c 128,-1,4
 814 595 814 595 814 647 c 1,5,-1
 887 647 l 1,6,7
 887 569 887 569 863 521 c 128,-1,8
 839 473 839 473 805 446.5 c 128,-1,9
 771 420 771 420 733.5 411.5 c 128,-1,10
 696 403 696 403 668 403 c 0,11,12
 623 403 623 403 588.5 418.5 c 128,-1,13
 554 434 554 434 525.5 457 c 128,-1,14
 497 480 497 480 472.5 507.5 c 128,-1,15
 448 535 448 535 422.5 558 c 128,-1,16
 397 581 397 581 369 596.5 c 128,-1,17
 341 612 341 612 306 612 c 0,18,19
 278 612 278 612 252 605 c 128,-1,20
 226 598 226 598 205.5 578.5 c 128,-1,21
 185 559 185 559 172.5 525.5 c 128,-1,22
 160 492 160 492 160 440 c 1,23,-1
 89 440 l 1,24,25
 89 518 89 518 112.5 565.5 c 128,-1,26
 136 613 136 613 169.5 639.5 c 128,-1,27
 203 666 203 666 240.5 675 c 128,-1,28
 278 684 278 684 306 684 c 0,29,30
 351 684 351 684 385.5 668.5 c 128,-1,31
 420 653 420 653 448.5 630 c 128,-1,32
 477 607 477 607 501.5 579.5 c 128,-1,33
 526 552 526 552 551.5 529 c 128,-1,34
 577 506 577 506 605 490.5 c 128,-1,35
 633 475 633 475 668 475 c 0,0,1
EndSplineSet
EndChar

StartChar: cent
Encoding: 162 162 104
Width: 1044
GlyphClass: 2
Flags: W
HStem: -10 59<341.513 497 569 776.008> 70 57<873.301 947.264> 649 57<873.301 947.264> 727 59<338.746 497 569 778.611>
VStem: 62 80<201.997 575.464> 497 72<-127.327 -10 51 725 786 944.327>
LayerCount: 2
Fore
SplineSet
569 -63 m 2,0,1
 569 -78 569 -78 568.5 -90.5 c 128,-1,2
 568 -103 568 -103 564.5 -112.5 c 128,-1,3
 561 -122 561 -122 554 -127.5 c 128,-1,4
 547 -133 547 -133 534 -133 c 0,5,6
 519 -133 519 -133 511.5 -127.5 c 128,-1,7
 504 -122 504 -122 501 -112.5 c 128,-1,8
 498 -103 498 -103 497.5 -91 c 128,-1,9
 497 -79 497 -79 497 -66 c 2,10,-1
 497 -8 l 1,11,12
 398 -3 398 -3 318 18.5 c 128,-1,13
 238 40 238 40 181 86 c 128,-1,14
 124 132 124 132 93 205 c 128,-1,15
 62 278 62 278 62 385 c 256,16,17
 62 492 62 492 91 565.5 c 128,-1,18
 120 639 120 639 175.5 686 c 128,-1,19
 231 733 231 733 312 756 c 128,-1,20
 393 779 393 779 497 784 c 1,21,-1
 497 879 l 2,22,23
 497 894 497 894 497.5 906.5 c 128,-1,24
 498 919 498 919 501 929 c 128,-1,25
 504 939 504 939 511.5 944.5 c 128,-1,26
 519 950 519 950 534 950 c 0,27,28
 547 950 547 950 554 944 c 128,-1,29
 561 938 561 938 564.5 928.5 c 128,-1,30
 568 919 568 919 568.5 906.5 c 128,-1,31
 569 894 569 894 569 881 c 2,32,-1
 569 786 l 1,33,-1
 570 786 l 2,34,35
 658 786 658 786 752.5 768.5 c 128,-1,36
 847 751 847 751 934 706 c 0,37,38
 945 700 945 700 950 691.5 c 128,-1,39
 955 683 955 683 955 675 c 0,40,41
 955 664 955 664 947.5 656.5 c 128,-1,42
 940 649 940 649 927 649 c 0,43,44
 916 649 916 649 906 654 c 0,45,46
 882 666 882 666 844.5 678.5 c 128,-1,47
 807 691 807 691 762 702 c 128,-1,48
 717 713 717 713 667.5 720 c 128,-1,49
 618 727 618 727 570 727 c 2,50,-1
 569 727 l 1,51,-1
 569 49 l 1,52,53
 617 49 617 49 666.5 56 c 128,-1,54
 716 63 716 63 761 74 c 128,-1,55
 806 85 806 85 844 97.5 c 128,-1,56
 882 110 882 110 906 122 c 0,57,58
 916 127 916 127 927 127 c 0,59,60
 940 127 940 127 947.5 119.5 c 128,-1,61
 955 112 955 112 955 101 c 0,62,63
 955 93 955 93 950 84.5 c 128,-1,64
 945 76 945 76 934 70 c 0,65,66
 847 25 847 25 752.5 7.5 c 128,-1,67
 658 -10 658 -10 570 -10 c 2,68,-1
 569 -10 l 1,69,-1
 569 -63 l 2,0,1
142 385 m 256,70,71
 142 301 142 301 164 240.5 c 128,-1,72
 186 180 186 180 230.5 139.5 c 128,-1,73
 275 99 275 99 341.5 78 c 128,-1,74
 408 57 408 57 497 51 c 1,75,-1
 497 725 l 1,76,77
 402 719 402 719 334.5 696.5 c 128,-1,78
 267 674 267 674 224.5 632.5 c 128,-1,79
 182 591 182 591 162 530 c 128,-1,80
 142 469 142 469 142 385 c 256,70,71
EndSplineSet
EndChar

StartChar: sterling
Encoding: 163 163 105
Width: 987
GlyphClass: 2
Flags: W
HStem: -1 64<152.022 336.319 640.766 911.773> 138 63<153.053 369.25> 521 71<100.831 334 412 772.995> 1085 65<491.047 759.106>
VStem: 61 74<70.6878 129.615> 327 69<592 974.056> 372 71<171.531 518.822>
LayerCount: 2
Fore
SplineSet
212 201 m 0,0,1
 271 201 271 201 320.5 191.5 c 128,-1,2
 370 182 370 182 416.5 167.5 c 128,-1,3
 463 153 463 153 508 136 c 128,-1,4
 553 119 553 119 603.5 104.5 c 128,-1,5
 654 90 654 90 712 80.5 c 128,-1,6
 770 71 770 71 842 71 c 0,7,8
 874 71 874 71 893 65 c 128,-1,9
 912 59 912 59 912 36 c 0,10,11
 912 9 912 9 893 4.5 c 128,-1,12
 874 0 874 0 844 0 c 0,13,14
 761 0 761 0 696.5 10 c 128,-1,15
 632 20 632 20 579 35.5 c 128,-1,16
 526 51 526 51 481 69 c 128,-1,17
 436 87 436 87 393.5 102.5 c 128,-1,18
 351 118 351 118 307 128 c 128,-1,19
 263 138 263 138 212 138 c 0,20,21
 170 138 170 138 152.5 126 c 128,-1,22
 135 114 135 114 135 100 c 256,23,24
 135 86 135 86 151.5 74.5 c 128,-1,25
 168 63 168 63 209 63 c 0,26,27
 257 63 257 63 288 70.5 c 128,-1,28
 319 78 319 78 338 95.5 c 128,-1,29
 357 113 357 113 364.5 141.5 c 128,-1,30
 372 170 372 170 372 212 c 0,31,32
 372 222 372 222 370.5 240.5 c 128,-1,33
 369 259 369 259 367 283 c 128,-1,34
 365 307 365 307 362 333.5 c 128,-1,35
 359 360 359 360 356 387 c 0,36,37
 349 449 349 449 340 521 c 1,38,-1
 134 521 l 2,39,40
 111 521 111 521 100.5 532 c 128,-1,41
 90 543 90 543 90 556 c 0,42,43
 90 570 90 570 100.5 581 c 128,-1,44
 111 592 111 592 134 592 c 2,45,-1
 334 592 l 1,46,47
 332 626 332 626 330 659 c 0,48,49
 328 687 328 687 327.5 716.5 c 128,-1,50
 327 746 327 746 327 766 c 0,51,52
 327 869 327 869 347 941.5 c 128,-1,53
 367 1014 367 1014 402 1060.5 c 128,-1,54
 437 1107 437 1107 486 1128.5 c 128,-1,55
 535 1150 535 1150 594 1150 c 0,56,57
 626 1150 626 1150 660 1146.5 c 128,-1,58
 694 1143 694 1143 730 1132.5 c 128,-1,59
 766 1122 766 1122 803 1103.5 c 128,-1,60
 840 1085 840 1085 878 1055 c 0,61,62
 896 1040 896 1040 896 1020 c 0,63,64
 896 1007 896 1007 888.5 998 c 128,-1,65
 881 989 881 989 868 989 c 0,66,67
 862 989 862 989 855 991.5 c 128,-1,68
 848 994 848 994 840 1001 c 0,69,70
 808 1028 808 1028 776 1044.5 c 128,-1,71
 744 1061 744 1061 713.5 1070 c 128,-1,72
 683 1079 683 1079 654.5 1082 c 128,-1,73
 626 1085 626 1085 601 1085 c 0,74,75
 556 1085 556 1085 518 1068.5 c 128,-1,76
 480 1052 480 1052 453 1015 c 128,-1,77
 426 978 426 978 411 920 c 128,-1,78
 396 862 396 862 396 778 c 0,79,80
 396 757 396 757 397.5 725.5 c 128,-1,81
 399 694 399 694 401 664 c 0,82,83
 403 629 403 629 406 592 c 1,84,-1
 703 592 l 2,85,86
 718 592 718 592 730.5 591.5 c 128,-1,87
 743 591 743 591 752.5 587.5 c 128,-1,88
 762 584 762 584 767.5 577 c 128,-1,89
 773 570 773 570 773 557 c 0,90,91
 773 531 773 531 753.5 526 c 128,-1,92
 734 521 734 521 703 521 c 2,93,-1
 412 521 l 1,94,95
 420 448 420 448 427 386 c 0,96,97
 430 360 430 360 433 333.5 c 128,-1,98
 436 307 436 307 438 285 c 128,-1,99
 440 263 440 263 441.5 246.5 c 128,-1,100
 443 230 443 230 443 223 c 0,101,102
 443 155 443 155 424 112 c 128,-1,103
 405 69 405 69 373 43.5 c 128,-1,104
 341 18 341 18 299.5 8.5 c 128,-1,105
 258 -1 258 -1 212 -1 c 0,106,107
 173 -1 173 -1 144.5 7.5 c 128,-1,108
 116 16 116 16 97.5 30 c 128,-1,109
 79 44 79 44 70 62 c 128,-1,110
 61 80 61 80 61 99 c 256,111,112
 61 118 61 118 70 136.5 c 128,-1,113
 79 155 79 155 97.5 169 c 128,-1,114
 116 183 116 183 144.5 192 c 128,-1,115
 173 201 173 201 212 201 c 0,0,1
EndSplineSet
EndChar

StartChar: currency
Encoding: 164 164 106
Width: 958
GlyphClass: 2
Flags: W
HStem: 381 73<336.44 623.691> 1041 75<330.582 625.822>
VStem: 96 82<602.401 897.015> 781 81<602.021 893.018>
LayerCount: 2
Fore
SplineSet
786 494 m 0,0,1
 798 485 798 485 812 472.5 c 128,-1,2
 826 460 826 460 838 448 c 128,-1,3
 850 436 850 436 858 425.5 c 128,-1,4
 866 415 866 415 866 410 c 1,5,-1
 860 395 l 1,6,-1
 848 385 l 2,7,8
 842 379 842 379 835 379 c 1,9,-1
 817 385 l 1,10,-1
 727 469 l 1,11,12
 676 426 676 426 611.5 403.5 c 128,-1,13
 547 381 547 381 479 381 c 256,14,15
 411 381 411 381 346.5 403.5 c 128,-1,16
 282 426 282 426 231 469 c 1,17,-1
 215 453 l 2,18,19
 205 443 205 443 191.5 430 c 128,-1,20
 178 417 178 417 164.5 406 c 128,-1,21
 151 395 151 395 140 387 c 128,-1,22
 129 379 129 379 125 379 c 1,23,-1
 108 385 l 1,24,25
 92 398 92 398 92 410 c 1,26,27
 103 427 103 427 113 436.5 c 128,-1,28
 123 446 123 446 135 457 c 2,29,-1
 188 508 l 1,30,31
 96 614 96 614 96 748 c 0,32,33
 96 814 96 814 118 876 c 128,-1,34
 140 938 140 938 188 987 c 1,35,36
 180 992 180 992 164.5 1005.5 c 128,-1,37
 149 1019 149 1019 132.5 1034.5 c 128,-1,38
 116 1050 116 1050 104 1064.5 c 128,-1,39
 92 1079 92 1079 92 1087 c 1,40,-1
 98 1102 l 1,41,42
 103 1107 103 1107 108.5 1112.5 c 128,-1,43
 114 1118 114 1118 125 1118 c 1,44,-1
 141 1112 l 1,45,-1
 231 1028 l 1,46,47
 282 1071 282 1071 346.5 1093.5 c 128,-1,48
 411 1116 411 1116 479 1116 c 256,49,50
 547 1116 547 1116 611.5 1093.5 c 128,-1,51
 676 1071 676 1071 727 1028 c 1,52,53
 732 1033 732 1033 746.5 1048 c 128,-1,54
 761 1063 761 1063 778 1078.5 c 128,-1,55
 795 1094 795 1094 811 1106 c 128,-1,56
 827 1118 827 1118 835 1118 c 1,57,58
 836 1117 836 1117 841 1115 c 128,-1,59
 846 1113 846 1113 851.5 1109 c 128,-1,60
 857 1105 857 1105 861.5 1099.5 c 128,-1,61
 866 1094 866 1094 866 1087 c 1,62,-1
 860 1071 l 1,63,-1
 770 987 l 1,64,65
 818 938 818 938 840 876 c 128,-1,66
 862 814 862 814 862 748 c 0,67,68
 862 692 862 692 843.5 633.5 c 128,-1,69
 825 575 825 575 788 530 c 2,70,-1
 770 508 l 1,71,72
 775 506 775 506 777.5 502.5 c 128,-1,73
 780 499 780 499 786 494 c 0,0,1
781 748 m 256,74,75
 781 808 781 808 757.5 861 c 128,-1,76
 734 914 734 914 693.5 954 c 128,-1,77
 653 994 653 994 598 1017.5 c 128,-1,78
 543 1041 543 1041 480 1041 c 256,79,80
 417 1041 417 1041 362 1018.5 c 128,-1,81
 307 996 307 996 266 956.5 c 128,-1,82
 225 917 225 917 201.5 863.5 c 128,-1,83
 178 810 178 810 178 748 c 0,84,85
 178 688 178 688 202 634.5 c 128,-1,86
 226 581 226 581 267 541 c 128,-1,87
 308 501 308 501 363 477.5 c 128,-1,88
 418 454 418 454 480 454 c 0,89,90
 543 454 543 454 597.5 477.5 c 128,-1,91
 652 501 652 501 693 541 c 128,-1,92
 734 581 734 581 757.5 634.5 c 128,-1,93
 781 688 781 688 781 748 c 256,74,75
EndSplineSet
EndChar

StartChar: yen
Encoding: 165 165 107
Width: 975
GlyphClass: 2
Flags: W
HStem: 241 58<169.674 811.811> 380 58<171.674 813.811>
VStem: 445 85<15.142 471>
LayerCount: 2
Fore
SplineSet
487 543 m 1,0,-1
 848 1081 l 2,1,2
 862 1102 862 1102 878 1105.5 c 128,-1,3
 894 1109 894 1109 904.5 1100.5 c 128,-1,4
 915 1092 915 1092 916 1073.5 c 128,-1,5
 917 1055 917 1055 902 1032 c 2,6,-1
 530 471 l 1,7,-1
 530 63 l 2,8,9
 530 34 530 34 522.5 14 c 128,-1,10
 515 -6 515 -6 490 -6 c 0,11,12
 461 -6 461 -6 453 14.5 c 128,-1,13
 445 35 445 35 445 61 c 2,14,-1
 445 473 l 1,15,-1
 71 1032 l 2,16,17
 55 1055 55 1055 56.5 1073.5 c 128,-1,18
 58 1092 58 1092 69 1100 c 128,-1,19
 80 1108 80 1108 96 1104.5 c 128,-1,20
 112 1101 112 1101 126 1081 c 2,21,-1
 487 543 l 1,0,-1
818 270 m 256,22,23
 818 259 818 259 812 250 c 128,-1,24
 806 241 806 241 793 241 c 2,25,-1
 188 241 l 2,26,27
 175 241 175 241 169.5 250 c 128,-1,28
 164 259 164 259 164 270 c 256,29,30
 164 281 164 281 169.5 290 c 128,-1,31
 175 299 175 299 188 299 c 2,32,-1
 793 299 l 2,33,34
 806 299 806 299 812 290 c 128,-1,35
 818 281 818 281 818 270 c 256,22,23
820 409 m 256,36,37
 820 398 820 398 814 389 c 128,-1,38
 808 380 808 380 795 380 c 2,39,-1
 190 380 l 2,40,41
 177 380 177 380 171.5 389 c 128,-1,42
 166 398 166 398 166 409 c 256,43,44
 166 420 166 420 171.5 429 c 128,-1,45
 177 438 177 438 190 438 c 2,46,-1
 795 438 l 2,47,48
 808 438 808 438 814 429 c 128,-1,49
 820 420 820 420 820 409 c 256,36,37
EndSplineSet
EndChar

StartChar: brokenbar
Encoding: 166 166 108
Width: 307
GlyphClass: 2
Flags: W
VStem: 117 72<-126.92 544.928 625.078 1290.33>
LayerCount: 2
Fore
SplineSet
189 694 m 2,0,1
 189 665 189 665 185 645 c 128,-1,2
 181 625 181 625 156 625 c 0,3,4
 141 625 141 625 133.5 630.5 c 128,-1,5
 126 636 126 636 122 645.5 c 128,-1,6
 118 655 118 655 117.5 667 c 128,-1,7
 117 679 117 679 117 692 c 2,8,-1
 117 1225 l 2,9,10
 117 1240 117 1240 117.5 1252.5 c 128,-1,11
 118 1265 118 1265 122 1275 c 128,-1,12
 126 1285 126 1285 133.5 1290.5 c 128,-1,13
 141 1296 141 1296 156 1296 c 0,14,15
 168 1296 168 1296 175 1290 c 128,-1,16
 182 1284 182 1284 185 1274.5 c 128,-1,17
 188 1265 188 1265 188.5 1252.5 c 128,-1,18
 189 1240 189 1240 189 1227 c 2,19,-1
 189 694 l 2,0,1
189 -57 m 2,20,21
 189 -86 189 -86 185 -106.5 c 128,-1,22
 181 -127 181 -127 156 -127 c 0,23,24
 141 -127 141 -127 133.5 -121.5 c 128,-1,25
 126 -116 126 -116 122 -106.5 c 128,-1,26
 118 -97 118 -97 117.5 -84.5 c 128,-1,27
 117 -72 117 -72 117 -59 c 2,28,-1
 117 473 l 2,29,30
 117 488 117 488 117.5 501 c 128,-1,31
 118 514 118 514 122 523.5 c 128,-1,32
 126 533 126 533 133.5 539 c 128,-1,33
 141 545 141 545 156 545 c 0,34,35
 168 545 168 545 175 539 c 128,-1,36
 182 533 182 533 185 523 c 128,-1,37
 188 513 188 513 188.5 500.5 c 128,-1,38
 189 488 189 488 189 475 c 2,39,-1
 189 -57 l 2,20,21
EndSplineSet
EndChar

StartChar: section
Encoding: 167 167 109
Width: 1108
GlyphClass: 2
Flags: W
HStem: -10 59<280.754 822.559> 356.5 62.5<259.725 835.09> 721 63<278.869 848.984> 996 61<901.449 983.901> 1092 59<291.208 769.531>
VStem: 81 80<479.34 646.278 844.62 1013.17> 954 80<125.128 291.355 491.535 656.073>
LayerCount: 2
Fore
SplineSet
954 209 m 0,0,1
 954 262 954 262 916.5 291 c 128,-1,2
 879 320 879 320 817.5 333.5 c 128,-1,3
 756 347 756 347 677.5 350.5 c 128,-1,4
 599 354 599 354 517.5 356.5 c 128,-1,5
 436 359 436 359 357.5 365.5 c 128,-1,6
 279 372 279 372 217.5 392.5 c 128,-1,7
 156 413 156 413 118.5 451.5 c 128,-1,8
 81 490 81 490 81 557 c 0,9,10
 81 595 81 595 93.5 625.5 c 128,-1,11
 106 656 106 656 128.5 679 c 128,-1,12
 151 702 151 702 182 719 c 128,-1,13
 213 736 213 736 250 748 c 1,14,15
 212 757 212 757 181 771 c 128,-1,16
 150 785 150 785 128 806 c 128,-1,17
 106 827 106 827 93.5 855.5 c 128,-1,18
 81 884 81 884 81 922 c 0,19,20
 81 991 81 991 118.5 1035 c 128,-1,21
 156 1079 156 1079 217 1105 c 128,-1,22
 278 1131 278 1131 355 1141 c 128,-1,23
 432 1151 432 1151 512 1151 c 0,24,25
 640 1151 640 1151 755.5 1129 c 128,-1,26
 871 1107 871 1107 966 1057 c 0,27,28
 976 1052 976 1052 979.5 1044.5 c 128,-1,29
 983 1037 983 1037 984 1029 c 1,30,31
 984 1016 984 1016 976 1006 c 128,-1,32
 968 996 968 996 958 996 c 0,33,34
 952 996 952 996 950 998 c 0,35,36
 865 1041 865 1041 756 1066.5 c 128,-1,37
 647 1092 647 1092 516 1092 c 0,38,39
 448 1092 448 1092 384 1083.5 c 128,-1,40
 320 1075 320 1075 270.5 1055.5 c 128,-1,41
 221 1036 221 1036 191 1003.5 c 128,-1,42
 161 971 161 971 161 922 c 0,43,44
 161 872 161 872 198.5 845 c 128,-1,45
 236 818 236 818 297.5 805.5 c 128,-1,46
 359 793 359 793 437.5 790 c 128,-1,47
 516 787 516 787 597.5 784 c 128,-1,48
 679 781 679 781 757.5 773.5 c 128,-1,49
 836 766 836 766 897.5 744.5 c 128,-1,50
 959 723 959 723 996.5 682.5 c 128,-1,51
 1034 642 1034 642 1034 574 c 0,52,53
 1034 538 1034 538 1021 509.5 c 128,-1,54
 1008 481 1008 481 984 459 c 128,-1,55
 960 437 960 437 926.5 420.5 c 128,-1,56
 893 404 893 404 853 392 c 1,57,58
 893 383 893 383 926 368 c 128,-1,59
 959 353 959 353 983 331 c 128,-1,60
 1007 309 1007 309 1020.5 279 c 128,-1,61
 1034 249 1034 249 1034 209 c 0,62,63
 1034 148 1034 148 996 106 c 128,-1,64
 958 64 958 64 895 38.5 c 128,-1,65
 832 13 832 13 749.5 1.5 c 128,-1,66
 667 -10 667 -10 579 -10 c 0,67,68
 525 -10 525 -10 462.5 -7.5 c 128,-1,69
 400 -5 400 -5 338 4.5 c 128,-1,70
 276 14 276 14 218 33.5 c 128,-1,71
 160 53 160 53 117 87 c 0,72,73
 103 97 103 97 103 113 c 0,74,75
 103 126 103 126 110.5 135.5 c 128,-1,76
 118 145 118 145 129 145 c 0,77,78
 136 145 136 145 141 141 c 0,79,80
 183 112 183 112 231.5 94 c 128,-1,81
 280 76 280 76 334 66 c 128,-1,82
 388 56 388 56 447 52.5 c 128,-1,83
 506 49 506 49 569 49 c 0,84,85
 644 49 644 49 713.5 56.5 c 128,-1,86
 783 64 783 64 836.5 82.5 c 128,-1,87
 890 101 890 101 922 131.5 c 128,-1,88
 954 162 954 162 954 209 c 0,0,1
954 574 m 0,89,90
 954 627 954 627 917 655.5 c 128,-1,91
 880 684 880 684 819 698 c 128,-1,92
 758 712 758 712 680 715.5 c 128,-1,93
 602 719 602 719 521 721 c 1,94,95
 453 721 453 721 388 713.5 c 128,-1,96
 323 706 323 706 272.5 687.5 c 128,-1,97
 222 669 222 669 191.5 637.5 c 128,-1,98
 161 606 161 606 161 557 c 0,99,100
 161 506 161 506 198.5 479.5 c 128,-1,101
 236 453 236 453 297.5 440 c 128,-1,102
 359 427 359 427 437 424.5 c 128,-1,103
 515 422 515 422 597 419 c 1,104,105
 667 420 667 420 732 428 c 128,-1,106
 797 436 797 436 846 453.5 c 128,-1,107
 895 471 895 471 924.5 500.5 c 128,-1,108
 954 530 954 530 954 574 c 0,89,90
EndSplineSet
EndChar

StartChar: copyright
Encoding: 169 169 111
Width: 1181
GlyphClass: 2
Flags: W
HStem: 92 61<416.791 770.606> 241 60<445.021 743.919> 306 56<771.724 840.723> 750 56<771.724 840.723> 811 60<445.021 743.919> 959 61<416.791 770.606>
VStem: 75 73<384.988 727.012> 248 68<418.409 693.364> 1040 66<392.924 719.076>
LayerCount: 2
Fore
SplineSet
248 556 m 256,0,1
 248 639 248 639 276 698.5 c 128,-1,2
 304 758 304 758 350 796.5 c 128,-1,3
 396 835 396 835 456 853 c 128,-1,4
 516 871 516 871 581 871 c 0,5,6
 645 871 645 871 708.5 854.5 c 128,-1,7
 772 838 772 838 827 806 c 0,8,9
 841 798 841 798 841 782 c 0,10,11
 841 770 841 770 832.5 760 c 128,-1,12
 824 750 824 750 813 750 c 0,13,14
 805 750 805 750 800 754 c 0,15,16
 755 781 755 781 699 796 c 128,-1,17
 643 811 643 811 586 811 c 0,18,19
 534 811 534 811 485.5 797 c 128,-1,20
 437 783 437 783 399.5 752.5 c 128,-1,21
 362 722 362 722 339 673.5 c 128,-1,22
 316 625 316 625 316 556 c 256,23,24
 316 487 316 487 339 438.5 c 128,-1,25
 362 390 362 390 399.5 359.5 c 128,-1,26
 437 329 437 329 485.5 315 c 128,-1,27
 534 301 534 301 586 301 c 0,28,29
 643 301 643 301 699 316 c 128,-1,30
 755 331 755 331 800 358 c 0,31,32
 805 362 805 362 813 362 c 0,33,34
 824 362 824 362 832.5 352 c 128,-1,35
 841 342 841 342 841 330 c 0,36,37
 841 314 841 314 827 306 c 0,38,39
 772 274 772 274 708.5 257.5 c 128,-1,40
 645 241 645 241 581 241 c 0,41,42
 516 241 516 241 456 259 c 128,-1,43
 396 277 396 277 350 315 c 128,-1,44
 304 353 304 353 276 413 c 128,-1,45
 248 473 248 473 248 556 c 256,0,1
1040 556 m 256,46,47
 1040 656 1040 656 1001.5 731.5 c 128,-1,48
 963 807 963 807 900.5 857.5 c 128,-1,49
 838 908 838 908 758 933.5 c 128,-1,50
 678 959 678 959 594 959 c 256,51,52
 510 959 510 959 430 933.5 c 128,-1,53
 350 908 350 908 287.5 857.5 c 128,-1,54
 225 807 225 807 186.5 731.5 c 128,-1,55
 148 656 148 656 148 556 c 256,56,57
 148 456 148 456 186.5 380.5 c 128,-1,58
 225 305 225 305 287.5 254.5 c 128,-1,59
 350 204 350 204 430 178.5 c 128,-1,60
 510 153 510 153 594 153 c 256,61,62
 678 153 678 153 758 178.5 c 128,-1,63
 838 204 838 204 900.5 254.5 c 128,-1,64
 963 305 963 305 1001.5 380.5 c 128,-1,65
 1040 456 1040 456 1040 556 c 256,46,47
1106 556 m 256,66,67
 1106 441 1106 441 1061.5 354 c 128,-1,68
 1017 267 1017 267 944.5 209 c 128,-1,69
 872 151 872 151 779.5 121.5 c 128,-1,70
 687 92 687 92 590 92 c 0,71,72
 494 92 494 92 401.5 121.5 c 128,-1,73
 309 151 309 151 236.5 209 c 128,-1,74
 164 267 164 267 119.5 354 c 128,-1,75
 75 441 75 441 75 556 c 256,76,77
 75 671 75 671 119.5 758 c 128,-1,78
 164 845 164 845 236.5 903 c 128,-1,79
 309 961 309 961 401.5 990.5 c 128,-1,80
 494 1020 494 1020 590 1020 c 0,81,82
 687 1020 687 1020 779.5 990.5 c 128,-1,83
 872 961 872 961 944.5 903 c 128,-1,84
 1017 845 1017 845 1061.5 758 c 128,-1,85
 1106 671 1106 671 1106 556 c 256,66,67
EndSplineSet
EndChar

StartChar: logicalnot
Encoding: 172 172 114
Width: 731
GlyphClass: 2
Flags: W
HStem: 459 45<143.705 578 596 610> 459 23<578 610>
VStem: 578 45<306.705 482>
LayerCount: 2
Fore
SplineSet
623 327 m 2,0,1
 623 313 623 313 616 306.5 c 128,-1,2
 609 300 609 300 600 300 c 0,3,4
 592 300 592 300 585 306.5 c 128,-1,5
 578 313 578 313 578 327 c 2,6,-1
 578 482 l 1,7,-1
 623 482 l 1,8,-1
 623 327 l 2,0,1
596 504 m 2,9,10
 610 504 610 504 616.5 497 c 128,-1,11
 623 490 623 490 623 481 c 0,12,13
 623 473 623 473 616.5 466 c 128,-1,14
 610 459 610 459 596 459 c 2,15,-1
 164 459 l 2,16,17
 150 459 150 459 143.5 466 c 128,-1,18
 137 473 137 473 137 481 c 0,19,20
 137 490 137 490 143.5 497 c 128,-1,21
 150 504 150 504 164 504 c 2,22,-1
 596 504 l 2,9,10
EndSplineSet
EndChar

StartChar: registered
Encoding: 174 174 116
Width: 1181
GlyphClass: 2
Flags: W
HStem: 92 61<416.791 770.606> 497 45<430 601 674 762.969> 815 50<430 763.983> 959 61<416.791 770.606>
VStem: 75 73<384.988 727.012> 363 67<261.799 497 542 815> 819 65<581.407 765.233> 1040 66<392.924 719.076>
LayerCount: 2
Fore
SplineSet
884 674 m 0,0,1
 884 621 884 621 862 586.5 c 128,-1,2
 840 552 840 552 808 532 c 128,-1,3
 776 512 776 512 739.5 503.5 c 128,-1,4
 703 495 703 495 674 495 c 1,5,-1
 837 304 l 1,6,7
 847 295 847 295 845.5 282.5 c 128,-1,8
 844 270 844 270 836.5 261 c 128,-1,9
 829 252 829 252 817 249.5 c 128,-1,10
 805 247 805 247 793 259 c 1,11,-1
 601 493 l 1,12,-1
 430 497 l 1,13,-1
 430 290 l 2,14,15
 430 271 430 271 419.5 261.5 c 128,-1,16
 409 252 409 252 396.5 252 c 128,-1,17
 384 252 384 252 373.5 261.5 c 128,-1,18
 363 271 363 271 363 290 c 2,19,-1
 363 830 l 2,20,21
 363 846 363 846 371 855.5 c 128,-1,22
 379 865 379 865 396 865 c 2,23,-1
 527 865 l 2,24,25
 602 865 602 865 667.5 862 c 128,-1,26
 733 859 733 859 781 841.5 c 128,-1,27
 829 824 829 824 856.5 785 c 128,-1,28
 884 746 884 746 884 674 c 0,0,1
819 674 m 0,29,30
 819 729 819 729 799.5 758 c 128,-1,31
 780 787 780 787 742.5 799.5 c 128,-1,32
 705 812 705 812 650.5 813.5 c 128,-1,33
 596 815 596 815 527 815 c 2,34,-1
 430 815 l 1,35,-1
 430 542 l 1,36,-1
 601 542 l 2,37,38
 643 542 643 542 682 544 c 128,-1,39
 721 546 721 546 751.5 558.5 c 128,-1,40
 782 571 782 571 800.5 597.5 c 128,-1,41
 819 624 819 624 819 674 c 0,29,30
1040 556 m 256,42,43
 1040 656 1040 656 1001.5 731.5 c 128,-1,44
 963 807 963 807 900.5 857.5 c 128,-1,45
 838 908 838 908 758 933.5 c 128,-1,46
 678 959 678 959 594 959 c 256,47,48
 510 959 510 959 430 933.5 c 128,-1,49
 350 908 350 908 287.5 857.5 c 128,-1,50
 225 807 225 807 186.5 731.5 c 128,-1,51
 148 656 148 656 148 556 c 256,52,53
 148 456 148 456 186.5 380.5 c 128,-1,54
 225 305 225 305 287.5 254.5 c 128,-1,55
 350 204 350 204 430 178.5 c 128,-1,56
 510 153 510 153 594 153 c 256,57,58
 678 153 678 153 758 178.5 c 128,-1,59
 838 204 838 204 900.5 254.5 c 128,-1,60
 963 305 963 305 1001.5 380.5 c 128,-1,61
 1040 456 1040 456 1040 556 c 256,42,43
1106 556 m 256,62,63
 1106 441 1106 441 1061.5 354 c 128,-1,64
 1017 267 1017 267 944.5 209 c 128,-1,65
 872 151 872 151 779.5 121.5 c 128,-1,66
 687 92 687 92 590 92 c 0,67,68
 494 92 494 92 401.5 121.5 c 128,-1,69
 309 151 309 151 236.5 209 c 128,-1,70
 164 267 164 267 119.5 354 c 128,-1,71
 75 441 75 441 75 556 c 256,72,73
 75 671 75 671 119.5 758 c 128,-1,74
 164 845 164 845 236.5 903 c 128,-1,75
 309 961 309 961 401.5 990.5 c 128,-1,76
 494 1020 494 1020 590 1020 c 0,77,78
 687 1020 687 1020 779.5 990.5 c 128,-1,79
 872 961 872 961 944.5 903 c 128,-1,80
 1017 845 1017 845 1061.5 758 c 128,-1,81
 1106 671 1106 671 1106 556 c 256,62,63
EndSplineSet
EndChar

StartChar: macron
Encoding: 175 175 117
Width: 745
GlyphClass: 2
Flags: W
HStem: 67 60<170.251 726.749>
VStem: 162 573<76.282 117.718>
LayerCount: 2
Fore
SplineSet
707 127 m 2,0,1
 719 127 719 127 727 118 c 128,-1,2
 735 109 735 109 735 97 c 256,3,4
 735 85 735 85 727 76 c 128,-1,5
 719 67 719 67 707 67 c 2,6,-1
 190 67 l 2,7,8
 178 67 178 67 170 76 c 128,-1,9
 162 85 162 85 162 97 c 256,10,11
 162 109 162 109 170 118 c 128,-1,12
 178 127 178 127 190 127 c 2,13,-1
 707 127 l 2,0,1
EndSplineSet
EndChar

StartChar: plusminus
Encoding: 177 177 119
Width: 829
GlyphClass: 2
Flags: W
HStem: 0 54<95.7682 733.232> 457 54<95.7682 384 444 733.232> 755 20G<408 419.5>
VStem: 384 60<199.737 457 511 766.748>
LayerCount: 2
Fore
SplineSet
384 511 m 1,0,-1
 384 742 l 2,1,2
 384 759 384 759 393 767 c 128,-1,3
 402 775 402 775 414 775 c 0,4,5
 425 775 425 775 434.5 767 c 128,-1,6
 444 759 444 759 444 742 c 2,7,-1
 444 511 l 1,8,-1
 706 511 l 2,9,10
 725 511 725 511 733.5 502.5 c 128,-1,11
 742 494 742 494 742 483 c 0,12,13
 742 473 742 473 733.5 465 c 128,-1,14
 725 457 725 457 706 457 c 2,15,-1
 444 457 l 1,16,-1
 444 224 l 2,17,18
 444 207 444 207 434.5 199.5 c 128,-1,19
 425 192 425 192 414 192 c 0,20,21
 402 192 402 192 393 199.5 c 128,-1,22
 384 207 384 207 384 224 c 2,23,-1
 384 457 l 1,24,-1
 123 457 l 2,25,26
 104 457 104 457 95.5 465 c 128,-1,27
 87 473 87 473 87 483 c 0,28,29
 87 494 87 494 95.5 502.5 c 128,-1,30
 104 511 104 511 123 511 c 2,31,-1
 384 511 l 1,0,-1
706 54 m 2,32,33
 725 54 725 54 733.5 45.5 c 128,-1,34
 742 37 742 37 742 26 c 0,35,36
 742 16 742 16 733.5 8 c 128,-1,37
 725 0 725 0 706 0 c 2,38,-1
 123 0 l 2,39,40
 104 0 104 0 95.5 8 c 128,-1,41
 87 16 87 16 87 26 c 0,42,43
 87 37 87 37 95.5 45.5 c 128,-1,44
 104 54 104 54 123 54 c 2,45,-1
 706 54 l 2,32,33
EndSplineSet
EndChar

StartChar: uni00B3
Encoding: 179 179 121
Width: 758
GlyphClass: 2
Flags: W
HStem: 270 69<174.92 537.892> 325 69<90.7987 206.596> 681 64<252.768 479.757> 1000 61<100.767 143.657> 1057 59<194.961 525.495>
VStem: 92 52<1008.25 1017.68> 596 63<390.845 486.688 822.665 999.341> 617 67<407.941 597.198>
LayerCount: 2
Fore
SplineSet
144 1003 m 0,0,1
 133 1000 133 1000 125 1000 c 0,2,3
 109 1000 109 1000 100.5 1008 c 128,-1,4
 92 1016 92 1016 92 1027 c 0,5,6
 92 1037 92 1037 100 1046.5 c 128,-1,7
 108 1056 108 1056 125 1061 c 1,8,9
 151 1076 151 1076 187 1088 c 0,10,11
 218 1099 218 1099 262.5 1107.5 c 128,-1,12
 307 1116 307 1116 365 1116 c 0,13,14
 446 1116 446 1116 502 1099.5 c 128,-1,15
 558 1083 558 1083 593 1055.5 c 128,-1,16
 628 1028 628 1028 643.5 992.5 c 128,-1,17
 659 957 659 957 659 919 c 0,18,19
 659 889 659 889 651 859 c 128,-1,20
 643 829 643 829 622.5 802 c 128,-1,21
 602 775 602 775 566 752.5 c 128,-1,22
 530 730 530 730 474 715 c 1,23,24
 537 698 537 698 577.5 673 c 128,-1,25
 618 648 618 648 641.5 618 c 128,-1,26
 665 588 665 588 674.5 555 c 128,-1,27
 684 522 684 522 684 488 c 0,28,29
 684 446 684 446 666.5 406.5 c 128,-1,30
 649 367 649 367 611 337 c 128,-1,31
 573 307 573 307 512.5 288.5 c 128,-1,32
 452 270 452 270 365 270 c 0,33,34
 307 270 307 270 262.5 278 c 128,-1,35
 218 286 218 286 187 297 c 0,36,37
 151 309 151 309 125 325 c 1,38,39
 102 334 102 334 91.5 345.5 c 128,-1,40
 81 357 81 357 81 368 c 256,41,42
 81 379 81 379 90.5 386.5 c 128,-1,43
 100 394 100 394 117 394 c 0,44,45
 130 394 130 394 143 389 c 1,46,47
 167 375 167 375 200 364 c 0,48,49
 228 354 228 354 269.5 346.5 c 128,-1,50
 311 339 311 339 365 339 c 0,51,52
 438 339 438 339 486.5 353 c 128,-1,53
 535 367 535 367 564 389.5 c 128,-1,54
 593 412 593 412 605 441.5 c 128,-1,55
 617 471 617 471 617 502 c 0,56,57
 617 535 617 535 602.5 567 c 128,-1,58
 588 599 588 599 555.5 624.5 c 128,-1,59
 523 650 523 650 470 665.5 c 128,-1,60
 417 681 417 681 340 681 c 2,61,-1
 279 681 l 2,62,63
 261 681 261 681 252.5 691 c 128,-1,64
 244 701 244 701 244 713 c 256,65,66
 244 725 244 725 252.5 735 c 128,-1,67
 261 745 261 745 279 745 c 2,68,-1
 340 745 l 2,69,70
 412 745 412 745 461 759.5 c 128,-1,71
 510 774 510 774 540 798 c 128,-1,72
 570 822 570 822 583 852 c 128,-1,73
 596 882 596 882 596 912 c 0,74,75
 596 940 596 940 586 966 c 128,-1,76
 576 992 576 992 551 1012 c 128,-1,77
 526 1032 526 1032 483 1044.5 c 128,-1,78
 440 1057 440 1057 375 1057 c 0,79,80
 320 1057 320 1057 277 1049 c 128,-1,81
 234 1041 234 1041 204.5 1031 c 128,-1,82
 175 1021 175 1021 159.5 1012.5 c 128,-1,83
 144 1004 144 1004 144 1003 c 0,0,1
EndSplineSet
EndChar

StartChar: acute
Encoding: 180 180 122
Width: 376
GlyphClass: 2
Flags: W
HStem: 46 331
VStem: 15 349
LayerCount: 2
Fore
SplineSet
275 366 m 2,0,1
 286 377 286 377 300 377 c 0,2,3
 311 377 311 377 322.5 371.5 c 128,-1,4
 334 366 334 366 343 357.5 c 128,-1,5
 352 349 352 349 358 338 c 128,-1,6
 364 327 364 327 364 316 c 0,7,8
 364 300 364 300 349 288 c 2,9,-1
 57 51 l 2,10,11
 51 46 51 46 42 46 c 0,12,13
 31 46 31 46 23 53.5 c 128,-1,14
 15 61 15 61 15 72 c 0,15,16
 15 82 15 82 23 90 c 2,17,-1
 275 366 l 2,0,1
EndSplineSet
EndChar

StartChar: uni00B5
Encoding: 181 181 123
AltUni2: 0003bc.ffffffff.0 0003bc.ffffffff.0
Width: 1098
GlyphClass: 2
Flags: W
HStem: -10 59<306.829 694.428> 0 21G<933.5 947> 746 20G<140.5 154.5 929.5 943.5>
VStem: 107 80<-208.264 -10.5076 137.72 765.998> 899 80<0.0366211 135 151.516 765.922>
LayerCount: 2
Fore
SplineSet
187 -186 m 2,0,1
 188 -201 188 -201 176 -208.5 c 128,-1,2
 164 -216 164 -216 148.5 -216 c 128,-1,3
 133 -216 133 -216 120 -208.5 c 128,-1,4
 107 -201 107 -201 107 -186 c 2,5,-1
 107 694 l 2,6,7
 107 707 107 707 108.5 720 c 128,-1,8
 110 733 110 733 114 743 c 128,-1,9
 118 753 118 753 126 759.5 c 128,-1,10
 134 766 134 766 147 766 c 0,11,12
 162 766 162 766 170 759.5 c 128,-1,13
 178 753 178 753 181.5 743 c 128,-1,14
 185 733 185 733 186 720 c 128,-1,15
 187 707 187 707 187 694 c 2,16,-1
 187 348 l 2,17,18
 187 264 187 264 201 207 c 128,-1,19
 215 150 215 150 250.5 115 c 128,-1,20
 286 80 286 80 347.5 64.5 c 128,-1,21
 409 49 409 49 505 49 c 0,22,23
 592 49 592 49 663.5 69 c 128,-1,24
 735 89 735 89 788 113 c 0,25,26
 850 141 850 141 899 178 c 1,27,-1
 899 694 l 2,28,29
 899 707 899 707 900 720 c 128,-1,30
 901 733 901 733 904.5 743 c 128,-1,31
 908 753 908 753 915.5 759.5 c 128,-1,32
 923 766 923 766 936 766 c 0,33,34
 951 766 951 766 959.5 759.5 c 128,-1,35
 968 753 968 753 972.5 743 c 128,-1,36
 977 733 977 733 978 720 c 128,-1,37
 979 707 979 707 979 694 c 2,38,-1
 979 70 l 2,39,40
 979 57 979 57 977.5 44.5 c 128,-1,41
 976 32 976 32 972 22 c 128,-1,42
 968 12 968 12 960.5 6 c 128,-1,43
 953 0 953 0 941 0 c 0,44,45
 926 0 926 0 917.5 6 c 128,-1,46
 909 12 909 12 904.5 22 c 128,-1,47
 900 32 900 32 899 44.5 c 128,-1,48
 898 57 898 57 898 70 c 2,49,-1
 899 135 l 1,50,51
 897 133 897 133 886 121.5 c 128,-1,52
 875 110 875 110 854 94 c 128,-1,53
 833 78 833 78 801 60 c 128,-1,54
 769 42 769 42 726 26.5 c 128,-1,55
 683 11 683 11 627.5 0.5 c 128,-1,56
 572 -10 572 -10 505 -10 c 0,57,58
 440 -10 440 -10 383 -2.5 c 128,-1,59
 326 5 326 5 280.5 24.5 c 128,-1,60
 235 44 235 44 203.5 79 c 128,-1,61
 172 114 172 114 158 169 c 1,62,-1
 187 -186 l 2,0,1
EndSplineSet
EndChar

StartChar: paragraph
Encoding: 182 182 124
Width: 816
GlyphClass: 2
Flags: W
HStem: 0 21G<431 457.5 630 656.5> 1021 93<489 603>
VStem: 57 432<681.378 967.798> 404 85<23.2052 542> 603 85<23.2052 1021>
LayerCount: 2
Fore
SplineSet
404 542 m 1,0,1
 319 542 319 542 254 566 c 128,-1,2
 189 590 189 590 145.5 630 c 128,-1,3
 102 670 102 670 79.5 721 c 128,-1,4
 57 772 57 772 57 825 c 256,5,6
 57 878 57 878 79.5 928.5 c 128,-1,7
 102 979 102 979 147 1019 c 128,-1,8
 192 1059 192 1059 261 1084 c 128,-1,9
 330 1109 330 1109 423 1111 c 2,10,-1
 637 1114 l 1,11,-1
 654 1114 l 2,12,13
 674 1114 674 1114 681 1108 c 128,-1,14
 688 1102 688 1102 688 1077 c 2,15,-1
 688 76 l 2,16,17
 688 45 688 45 679.5 22.5 c 128,-1,18
 671 0 671 0 642 0 c 0,19,20
 618 0 618 0 610.5 23.5 c 128,-1,21
 603 47 603 47 603 76 c 2,22,-1
 603 1021 l 1,23,-1
 489 1021 l 1,24,-1
 489 76 l 2,25,26
 489 45 489 45 480.5 22.5 c 128,-1,27
 472 0 472 0 443 0 c 0,28,29
 419 0 419 0 411.5 23.5 c 128,-1,30
 404 47 404 47 404 76 c 2,31,-1
 404 542 l 1,0,1
EndSplineSet
EndChar

StartChar: cedilla
Encoding: 184 184 126
Width: 266
GlyphClass: 2
Flags: W
HStem: -324 353
VStem: 11 243
LayerCount: 2
Fore
SplineSet
210 10 m 2,0,1
 223 29 223 29 236 29 c 0,2,3
 244 29 244 29 249 22.5 c 128,-1,4
 254 16 254 16 254 7 c 0,5,6
 254 -1 254 -1 250 -8 c 2,7,-1
 84 -298 l 2,8,9
 76 -312 76 -312 66 -318 c 128,-1,10
 56 -324 56 -324 45 -324 c 0,11,12
 31 -324 31 -324 21 -314.5 c 128,-1,13
 11 -305 11 -305 11 -291 c 0,14,15
 11 -278 11 -278 21 -264 c 2,16,-1
 210 10 l 2,0,1
EndSplineSet
EndChar

StartChar: guillemotright
Encoding: 187 187 129
Width: 647
GlyphClass: 2
Flags: W
HStem: 37 594<106 136>
VStem: 82 523
LayerCount: 2
Fore
SplineSet
389 367 m 2,0,1
 406 348 406 348 406 335 c 0,2,3
 406 318 406 318 389 301 c 2,4,-1
 148 49 l 2,5,6
 136 37 136 37 121 37 c 256,7,8
 106 37 106 37 94 47.5 c 128,-1,9
 82 58 82 58 82 72 c 0,10,11
 82 85 82 85 94 97 c 2,12,-1
 332 334 l 1,13,-1
 94 571 l 2,14,15
 83 582 83 582 83 596 c 256,16,17
 83 610 83 610 94.5 620.5 c 128,-1,18
 106 631 106 631 121 631 c 256,19,20
 136 631 136 631 148 619 c 2,21,-1
 389 367 l 2,0,1
588 367 m 2,22,23
 605 348 605 348 605 335 c 0,24,25
 605 318 605 318 588 301 c 2,26,-1
 347 49 l 2,27,28
 335 37 335 37 320 37 c 256,29,30
 305 37 305 37 293 47.5 c 128,-1,31
 281 58 281 58 281 72 c 0,32,33
 281 85 281 85 293 97 c 2,34,-1
 531 334 l 1,35,-1
 293 571 l 2,36,37
 282 582 282 582 282 596 c 256,38,39
 282 610 282 610 293.5 620.5 c 128,-1,40
 305 631 305 631 320 631 c 256,41,42
 335 631 335 631 347 619 c 2,43,-1
 588 367 l 2,22,23
EndSplineSet
EndChar

StartChar: AE
Encoding: 198 198 140
Width: 1446
GlyphClass: 2
Flags: W
HStem: 0 66<712 1345.81> 348 49<290 627> 540 61<712 1316.81> 1048 66<712 1343.81>
VStem: 627 85<66 348 397 540 601 1014>
LayerCount: 2
Fore
SplineSet
1352 35 m 0,0,1
 1352 20 1352 20 1346 13 c 128,-1,2
 1340 6 1340 6 1329.5 3 c 128,-1,3
 1319 0 1319 0 1306 0 c 128,-1,4
 1293 0 1293 0 1278 0 c 2,5,-1
 666 0 l 2,6,7
 651 0 651 0 643.5 0.5 c 128,-1,8
 636 1 636 1 632 4.5 c 128,-1,9
 628 8 628 8 627.5 15 c 128,-1,10
 627 22 627 22 627 35 c 2,11,-1
 627 348 l 1,12,-1
 269 348 l 1,13,14
 253 317 253 317 233.5 278 c 128,-1,15
 214 239 214 239 193 198.5 c 128,-1,16
 172 158 172 158 150 119 c 128,-1,17
 128 80 128 80 108.5 49.5 c 128,-1,18
 89 19 89 19 73 0.5 c 128,-1,19
 57 -18 57 -18 46 -18 c 0,20,21
 27 -18 27 -18 18 -7 c 128,-1,22
 9 4 9 4 9 12 c 0,23,24
 9 25 9 25 15.5 37 c 128,-1,25
 22 49 22 49 30 63 c 2,26,-1
 578 1065 l 2,27,28
 589 1084 589 1084 598 1098 c 128,-1,29
 607 1112 607 1112 619 1114 c 1,30,-1
 1276 1114 l 2,31,32
 1291 1114 1291 1114 1304 1114 c 128,-1,33
 1317 1114 1317 1114 1327.5 1111 c 128,-1,34
 1338 1108 1338 1108 1344 1101 c 128,-1,35
 1350 1094 1350 1094 1350 1079 c 0,36,37
 1350 1067 1350 1067 1344 1060.5 c 128,-1,38
 1338 1054 1338 1054 1327.5 1051 c 128,-1,39
 1317 1048 1317 1048 1304 1048 c 128,-1,40
 1291 1048 1291 1048 1276 1048 c 2,41,-1
 712 1048 l 1,42,-1
 712 601 l 1,43,-1
 1249 601 l 2,44,45
 1264 601 1264 601 1277 601 c 128,-1,46
 1290 601 1290 601 1300.5 599 c 128,-1,47
 1311 597 1311 597 1317 590.5 c 128,-1,48
 1323 584 1323 584 1323 572 c 0,49,50
 1323 557 1323 557 1317 550.5 c 128,-1,51
 1311 544 1311 544 1300.5 541.5 c 128,-1,52
 1290 539 1290 539 1277 539.5 c 128,-1,53
 1264 540 1264 540 1249 540 c 2,54,-1
 712 540 l 1,55,-1
 712 66 l 1,56,-1
 1278 66 l 2,57,58
 1293 66 1293 66 1306 66 c 128,-1,59
 1319 66 1319 66 1329.5 63 c 128,-1,60
 1340 60 1340 60 1346 53.5 c 128,-1,61
 1352 47 1352 47 1352 35 c 0,0,1
627 397 m 1,62,-1
 627 1014 l 1,63,-1
 290 397 l 1,64,-1
 627 397 l 1,62,-1
EndSplineSet
EndChar

StartChar: multiply
Encoding: 215 215 157
Width: 665
GlyphClass: 2
Flags: W
HStem: 250 465<530 550>
VStem: 93 481
LayerCount: 2
Fore
SplineSet
332 434 m 1,0,-1
 209 315 l 2,1,2
 201 307 201 307 190 295.5 c 128,-1,3
 179 284 179 284 167.5 274.5 c 128,-1,4
 156 265 156 265 144.5 258 c 128,-1,5
 133 251 133 251 123 252 c 1,6,7
 111 252 111 252 102 263.5 c 128,-1,8
 93 275 93 275 93 283 c 0,9,10
 93 297 93 297 104 310.5 c 128,-1,11
 115 324 115 324 132 338 c 1,12,-1
 283 483 l 1,13,-1
 213 549 l 1,14,-1
 127 631 l 1,15,16
 110 645 110 645 100.5 657.5 c 128,-1,17
 91 670 91 670 91 682 c 256,18,19
 91 694 91 694 102.5 704.5 c 128,-1,20
 114 715 114 715 125 715 c 0,21,22
 135 715 135 715 146 708 c 128,-1,23
 157 701 157 701 167.5 691.5 c 128,-1,24
 178 682 178 682 188 671 c 128,-1,25
 198 660 198 660 207 651 c 2,26,-1
 332 532 l 1,27,-1
 457 651 l 2,28,29
 466 660 466 660 476.5 671 c 128,-1,30
 487 682 487 682 498 691.5 c 128,-1,31
 509 701 509 701 519.5 708 c 128,-1,32
 530 715 530 715 539 715 c 0,33,34
 550 715 550 715 562 704.5 c 128,-1,35
 574 694 574 694 574 682 c 0,36,37
 574 671 574 671 563.5 658 c 128,-1,38
 553 645 553 645 539 631 c 2,39,-1
 385 483 l 1,40,-1
 537 338 l 2,41,42
 551 324 551 324 561.5 310.5 c 128,-1,43
 572 297 572 297 572 285 c 0,44,45
 572 274 572 274 563 262 c 128,-1,46
 554 250 554 250 541 250 c 0,47,48
 529 250 529 250 514.5 261.5 c 128,-1,49
 500 273 500 273 486 287 c 2,50,-1
 332 434 l 1,0,-1
EndSplineSet
EndChar

StartChar: Oslash
Encoding: 216 216 158
Width: 1598
GlyphClass: 2
Flags: W
HStem: -21 66<570.938 1113.53> 1069 66<498.472 1043.66>
VStem: 72 85<316.593 797.165> 1035.5 65.5<1187.17 1270.2> 1456 85<316.593 797.165>
LayerCount: 2
Fore
SplineSet
599 -102 m 1,0,1
 588 -125 588 -125 580 -142 c 128,-1,2
 572 -159 572 -159 554 -159 c 0,3,4
 534 -159 534 -159 525.5 -148 c 128,-1,5
 517 -137 517 -137 517 -126 c 256,6,7
 517 -115 517 -115 520.5 -104.5 c 128,-1,8
 524 -94 524 -94 529 -81 c 2,9,-1
 741 479 l 1,10,-1
 1019 1222 l 1,11,12
 1026 1245 1026 1245 1035.5 1262.5 c 128,-1,13
 1045 1280 1045 1280 1068 1280 c 0,14,15
 1087 1280 1087 1280 1094 1270.5 c 128,-1,16
 1101 1261 1101 1261 1101 1249 c 0,17,18
 1101 1238 1101 1238 1098.5 1226 c 128,-1,19
 1096 1214 1096 1214 1091 1202 c 2,20,-1
 599 -102 l 1,0,1
1541 557 m 256,21,22
 1541 411 1541 411 1497.5 302.5 c 128,-1,23
 1454 194 1454 194 1363.5 122 c 128,-1,24
 1273 50 1273 50 1134.5 14.5 c 128,-1,25
 996 -21 996 -21 806 -21 c 256,26,27
 616 -21 616 -21 477.5 14.5 c 128,-1,28
 339 50 339 50 249 122 c 128,-1,29
 159 194 159 194 115.5 302.5 c 128,-1,30
 72 411 72 411 72 557 c 256,31,32
 72 703 72 703 115.5 811.5 c 128,-1,33
 159 920 159 920 249 992 c 128,-1,34
 339 1064 339 1064 477.5 1099.5 c 128,-1,35
 616 1135 616 1135 806 1135 c 256,36,37
 996 1135 996 1135 1134.5 1099.5 c 128,-1,38
 1273 1064 1273 1064 1363.5 992 c 128,-1,39
 1454 920 1454 920 1497.5 811.5 c 128,-1,40
 1541 703 1541 703 1541 557 c 256,21,22
157 557 m 0,41,42
 157 417 157 417 197 320 c 128,-1,43
 237 223 237 223 317.5 161.5 c 128,-1,44
 398 100 398 100 520 72.5 c 128,-1,45
 642 45 642 45 806 45 c 256,46,47
 970 45 970 45 1092 72.5 c 128,-1,48
 1214 100 1214 100 1295 161.5 c 128,-1,49
 1376 223 1376 223 1416 320 c 128,-1,50
 1456 417 1456 417 1456 557 c 0,51,52
 1456 696 1456 696 1416 793.5 c 128,-1,53
 1376 891 1376 891 1295 952.5 c 128,-1,54
 1214 1014 1214 1014 1092 1041.5 c 128,-1,55
 970 1069 970 1069 806 1069 c 256,56,57
 642 1069 642 1069 520 1041.5 c 128,-1,58
 398 1014 398 1014 317.5 952.5 c 128,-1,59
 237 891 237 891 197 793.5 c 128,-1,60
 157 696 157 696 157 557 c 0,41,42
EndSplineSet
EndChar

StartChar: Thorn
Encoding: 222 222 164
Width: 998
GlyphClass: 2
Flags: W
HStem: 0 21G<159.5 186> 264 66<213 716.021> 828 66<213 711.698>
VStem: 128 85<0.0917969 264 330 828 894 1109.91> 877 80<439.955 714.341>
LayerCount: 2
Fore
SplineSet
213 264 m 1,0,-1
 213 76 l 2,1,2
 213 47 213 47 205.5 23.5 c 128,-1,3
 198 0 198 0 174 0 c 0,4,5
 145 0 145 0 136.5 22.5 c 128,-1,6
 128 45 128 45 128 76 c 2,7,-1
 128 1034 l 2,8,9
 128 1065 128 1065 136.5 1087.5 c 128,-1,10
 145 1110 145 1110 174 1110 c 0,11,12
 198 1110 198 1110 205.5 1086.5 c 128,-1,13
 213 1063 213 1063 213 1034 c 2,14,-1
 213 894 l 1,15,-1
 461 894 l 2,16,17
 614 894 614 894 710.5 866.5 c 128,-1,18
 807 839 807 839 862 794 c 128,-1,19
 917 749 917 749 937 692 c 128,-1,20
 957 635 957 635 957 575 c 0,21,22
 957 516 957 516 937.5 460.5 c 128,-1,23
 918 405 918 405 864 361 c 128,-1,24
 810 317 810 317 713 290.5 c 128,-1,25
 616 264 616 264 461 264 c 2,26,-1
 213 264 l 1,0,-1
213 330 m 1,27,-1
 461 330 l 2,28,29
 596 330 596 330 678 351 c 128,-1,30
 760 372 760 372 804 406.5 c 128,-1,31
 848 441 848 441 862.5 485.5 c 128,-1,32
 877 530 877 530 877 576 c 0,33,34
 877 623 877 623 862 668.5 c 128,-1,35
 847 714 847 714 802 749.5 c 128,-1,36
 757 785 757 785 675.5 806.5 c 128,-1,37
 594 828 594 828 461 828 c 2,38,-1
 213 828 l 1,39,-1
 213 330 l 1,27,-1
EndSplineSet
EndChar

StartChar: germandbls
Encoding: 223 223 165
Width: 1151
GlyphClass: 2
Flags: W
HStem: -66 66<463.704 924.186> 1077 72<319.007 801.29>
VStem: 101 71<-138.878 942.985> 406 45<504.379 543.962> 893 74<777.112 1000.74> 1039 73<85.4182 325.063>
LayerCount: 2
Fore
SplineSet
1112 209 m 0,0,1
 1112 157 1112 157 1101.5 116 c 128,-1,2
 1091 75 1091 75 1065.5 44.5 c 128,-1,3
 1040 14 1040 14 997.5 -7 c 128,-1,4
 955 -28 955 -28 890 -41 c 128,-1,5
 825 -54 825 -54 735.5 -60 c 128,-1,6
 646 -66 646 -66 527 -66 c 0,7,8
 515 -66 515 -66 503 -65.5 c 128,-1,9
 491 -65 491 -65 480.5 -62.5 c 128,-1,10
 470 -60 470 -60 463.5 -54.5 c 128,-1,11
 457 -49 457 -49 457 -39 c 0,12,13
 457 -24 457 -24 463 -16.5 c 128,-1,14
 469 -9 469 -9 479.5 -5 c 128,-1,15
 490 -1 490 -1 503 -0.5 c 128,-1,16
 516 0 516 0 531 0 c 0,17,18
 662 0 662 0 758 3.5 c 128,-1,19
 854 7 854 7 916.5 26.5 c 128,-1,20
 979 46 979 46 1009 88.5 c 128,-1,21
 1039 131 1039 131 1039 209 c 0,22,23
 1039 273 1039 273 1012 313 c 128,-1,24
 985 353 985 353 940.5 376 c 128,-1,25
 896 399 896 399 839 409 c 128,-1,26
 782 419 782 419 722.5 423.5 c 128,-1,27
 663 428 663 428 606 431 c 128,-1,28
 549 434 549 434 504.5 442.5 c 128,-1,29
 460 451 460 451 433 469.5 c 128,-1,30
 406 488 406 488 406 523 c 0,31,32
 406 554 406 554 427 574.5 c 128,-1,33
 448 595 448 595 482 611 c 128,-1,34
 516 627 516 627 560 639.5 c 128,-1,35
 604 652 604 652 649.5 666 c 128,-1,36
 695 680 695 680 739 697.5 c 128,-1,37
 783 715 783 715 817 740 c 128,-1,38
 851 765 851 765 872 800 c 128,-1,39
 893 835 893 835 893 885 c 0,40,41
 893 941 893 941 872.5 978 c 128,-1,42
 852 1015 852 1015 811 1037 c 128,-1,43
 770 1059 770 1059 709 1068 c 128,-1,44
 648 1077 648 1077 567 1077 c 0,45,46
 468 1077 468 1077 393.5 1063.5 c 128,-1,47
 319 1050 319 1050 270 1015 c 128,-1,48
 221 980 221 980 196.5 920 c 128,-1,49
 172 860 172 860 172 766 c 2,50,-1
 172 -70 l 2,51,52
 172 -99 172 -99 168 -119 c 128,-1,53
 164 -139 164 -139 140 -139 c 0,54,55
 125 -139 125 -139 117.5 -133.5 c 128,-1,56
 110 -128 110 -128 106 -119 c 128,-1,57
 102 -110 102 -110 101.5 -97.5 c 128,-1,58
 101 -85 101 -85 101 -70 c 2,59,-1
 101 766 l 2,60,61
 101 870 101 870 128 943 c 128,-1,62
 155 1016 155 1016 211.5 1061.5 c 128,-1,63
 268 1107 268 1107 356 1128 c 128,-1,64
 444 1149 444 1149 566 1149 c 0,65,66
 662 1149 662 1149 736.5 1136 c 128,-1,67
 811 1123 811 1123 862.5 1092 c 128,-1,68
 914 1061 914 1061 940.5 1010.5 c 128,-1,69
 967 960 967 960 967 885 c 0,70,71
 967 826 967 826 945 782.5 c 128,-1,72
 923 739 923 739 886.5 706.5 c 128,-1,73
 850 674 850 674 803.5 651.5 c 128,-1,74
 757 629 757 629 709 613 c 128,-1,75
 661 597 661 597 614.5 585.5 c 128,-1,76
 568 574 568 574 531.5 564 c 128,-1,77
 495 554 495 554 473 544 c 128,-1,78
 451 534 451 534 451 520 c 0,79,80
 451 507 451 507 479.5 503 c 128,-1,81
 508 499 508 499 554.5 498 c 128,-1,82
 601 497 601 497 660.5 495.5 c 128,-1,83
 720 494 720 494 781.5 486.5 c 128,-1,84
 843 479 843 479 902.5 462.5 c 128,-1,85
 962 446 962 446 1008.5 414.5 c 128,-1,86
 1055 383 1055 383 1083.5 333 c 128,-1,87
 1112 283 1112 283 1112 209 c 0,0,1
EndSplineSet
EndChar

StartChar: ae
Encoding: 230 230 172
Width: 1774
GlyphClass: 2
Flags: W
HStem: -10 59<243.453 730.45 1087.75 1510.82> 70 57<1607.3 1681.26> 379 52<951 1654.1> 418 59<252.467 717.263> 727 59<265.512 756.784 1072.44 1498.81>
VStem: 50 80<122.183 334.724> 890 61<121.388 351.562 431 663.586> 1657 59<431.5 599.06>
LayerCount: 2
Fore
SplineSet
130 219 m 0,0,1
 130 171 130 171 155 138.5 c 128,-1,2
 180 106 180 106 224.5 86 c 128,-1,3
 269 66 269 66 330 57.5 c 128,-1,4
 391 49 391 49 463 49 c 0,5,6
 572 49 572 49 651.5 62.5 c 128,-1,7
 731 76 731 76 785 93 c 0,8,9
 847 112 847 112 890 137 c 1,10,-1
 890 338 l 1,11,12
 863 352 863 352 817.5 366 c 128,-1,13
 772 380 772 380 715.5 391.5 c 128,-1,14
 659 403 659 403 595.5 410.5 c 128,-1,15
 532 418 532 418 468 418 c 0,16,17
 391 418 391 418 328.5 408.5 c 128,-1,18
 266 399 266 399 222 375.5 c 128,-1,19
 178 352 178 352 154 314 c 128,-1,20
 130 276 130 276 130 219 c 0,0,1
921 681 m 1,21,22
 984 739 984 739 1082 762.5 c 128,-1,23
 1180 786 1180 786 1301 786 c 0,24,25
 1509 786 1509 786 1612.5 706.5 c 128,-1,26
 1716 627 1716 627 1716 479 c 0,27,28
 1716 466 1716 466 1712 448.5 c 128,-1,29
 1708 431 1708 431 1701.5 415.5 c 128,-1,30
 1695 400 1695 400 1687 389.5 c 128,-1,31
 1679 379 1679 379 1672 379 c 2,32,-1
 951 379 l 1,33,-1
 951 137 l 1,34,35
 972 123 972 123 1005 108 c 128,-1,36
 1038 93 1038 93 1082.5 79.5 c 128,-1,37
 1127 66 1127 66 1182.5 57.5 c 128,-1,38
 1238 49 1238 49 1303 49 c 0,39,40
 1351 49 1351 49 1400.5 56 c 128,-1,41
 1450 63 1450 63 1495 74 c 128,-1,42
 1540 85 1540 85 1578 97.5 c 128,-1,43
 1616 110 1616 110 1640 122 c 0,44,45
 1650 127 1650 127 1661 127 c 0,46,47
 1674 127 1674 127 1681.5 119.5 c 128,-1,48
 1689 112 1689 112 1689 101 c 0,49,50
 1689 93 1689 93 1684 84.5 c 128,-1,51
 1679 76 1679 76 1668 70 c 0,52,53
 1581 25 1581 25 1486.5 7.5 c 128,-1,54
 1392 -10 1392 -10 1304 -10 c 0,55,56
 1170 -10 1170 -10 1073.5 19 c 128,-1,57
 977 48 977 48 920 100 c 1,58,59
 890 72 890 72 842.5 51.5 c 128,-1,60
 795 31 795 31 736 17.5 c 128,-1,61
 677 4 677 4 609.5 -3 c 128,-1,62
 542 -10 542 -10 471 -10 c 0,63,64
 384 -10 384 -10 307 2 c 128,-1,65
 230 14 230 14 173 41.5 c 128,-1,66
 116 69 116 69 83 112.5 c 128,-1,67
 50 156 50 156 50 219 c 0,68,69
 50 292 50 292 82.5 341.5 c 128,-1,70
 115 391 115 391 171 421 c 128,-1,71
 227 451 227 451 301.5 464 c 128,-1,72
 376 477 376 477 460 477 c 0,73,74
 524 477 524 477 587.5 469.5 c 128,-1,75
 651 462 651 462 707.5 450 c 128,-1,76
 764 438 764 438 811 422 c 128,-1,77
 858 406 858 406 890 389 c 1,78,-1
 889 647 l 1,79,80
 871 660 871 660 835.5 674 c 128,-1,81
 800 688 800 688 747 700 c 128,-1,82
 694 712 694 712 624.5 719.5 c 128,-1,83
 555 727 555 727 470 727 c 0,84,85
 422 727 422 727 373.5 721.5 c 128,-1,86
 325 716 325 716 283 703.5 c 128,-1,87
 241 691 241 691 208 671 c 128,-1,88
 175 651 175 651 157 621 c 0,89,90
 142 596 142 596 122 596 c 0,91,92
 113 596 113 596 105.5 603 c 128,-1,93
 98 610 98 610 98 623 c 0,94,95
 98 629 98 629 100.5 635 c 128,-1,96
 103 641 103 641 106 649 c 0,97,98
 124 684 124 684 162 710 c 128,-1,99
 200 736 200 736 251 753 c 128,-1,100
 302 770 302 770 361.5 778 c 128,-1,101
 421 786 421 786 483 786 c 0,102,103
 536 786 536 786 597.5 783 c 128,-1,104
 659 780 659 780 719 769.5 c 128,-1,105
 779 759 779 759 832 738 c 128,-1,106
 885 717 885 717 921 681 c 1,21,22
1650 431 m 1,107,108
 1651 441 1651 441 1653 452 c 0,109,110
 1655 460 1655 460 1656 469.5 c 128,-1,111
 1657 479 1657 479 1657 485 c 0,112,113
 1657 535 1657 535 1638.5 579 c 128,-1,114
 1620 623 1620 623 1578 656 c 128,-1,115
 1536 689 1536 689 1468 708 c 128,-1,116
 1400 727 1400 727 1301 727 c 0,117,118
 1231 727 1231 727 1175 719 c 128,-1,119
 1119 711 1119 711 1076 699 c 128,-1,120
 1033 687 1033 687 1002 673.5 c 128,-1,121
 971 660 971 660 951 648 c 1,122,-1
 951 431 l 1,123,-1
 1650 431 l 1,107,108
EndSplineSet
EndChar

StartChar: eth
Encoding: 240 240 182
Width: 986
GlyphClass: 2
Flags: W
HStem: -20 69<270.797 664.531> 557 70<226.292 788.98> 1065 69<209.812 666.07>
VStem: 45 76<168.811 465.729> 823 77<224.424 533.28 579 883.859>
LayerCount: 2
Fore
SplineSet
968 1016 m 2,0,1
 982 1021 982 1021 990 1016 c 128,-1,2
 998 1011 998 1011 1001 1003 c 256,3,4
 1004 995 1004 995 1000.5 987 c 128,-1,5
 997 979 997 979 983 974 c 2,6,-1
 574 835 l 2,7,8
 560 830 560 830 551.5 834.5 c 128,-1,9
 543 839 543 839 541 847 c 0,10,11
 538 855 538 855 541.5 863.5 c 128,-1,12
 545 872 545 872 559 877 c 2,13,-1
 968 1016 l 2,0,1
900 557 m 0,14,15
 900 396 900 396 878 285.5 c 128,-1,16
 856 175 856 175 806.5 107 c 128,-1,17
 757 39 757 39 677 9.5 c 128,-1,18
 597 -20 597 -20 481 -20 c 0,19,20
 360 -20 360 -20 276.5 7 c 128,-1,21
 193 34 193 34 141.5 78 c 128,-1,22
 90 122 90 122 67.5 179.5 c 128,-1,23
 45 237 45 237 45 298 c 0,24,25
 45 397 45 397 73.5 461 c 128,-1,26
 102 525 102 525 158.5 561.5 c 128,-1,27
 215 598 215 598 299 612.5 c 128,-1,28
 383 627 383 627 494 627 c 0,29,30
 587 627 587 627 649.5 619.5 c 128,-1,31
 712 612 712 612 751 603 c 0,32,33
 796 592 796 592 823 579 c 1,34,35
 823 744 823 744 798 841 c 128,-1,36
 773 938 773 938 725 987.5 c 128,-1,37
 677 1037 677 1037 607.5 1051 c 128,-1,38
 538 1065 538 1065 448 1065 c 0,39,40
 394 1065 394 1065 342 1057 c 128,-1,41
 290 1049 290 1049 248 1040 c 0,42,43
 200 1029 200 1029 156 1015 c 0,44,45
 143 1010 143 1010 130 1010 c 0,46,47
 113 1010 113 1010 103.5 1017.5 c 128,-1,48
 94 1025 94 1025 94 1036 c 256,49,50
 94 1047 94 1047 104.5 1058.5 c 128,-1,51
 115 1070 115 1070 138 1079 c 1,52,53
 184 1094 184 1094 235 1106 c 0,54,55
 279 1117 279 1117 334.5 1125.5 c 128,-1,56
 390 1134 390 1134 448 1134 c 0,57,58
 585 1134 585 1134 672.5 1102.5 c 128,-1,59
 760 1071 760 1071 810.5 1002 c 128,-1,60
 861 933 861 933 880.5 823.5 c 128,-1,61
 900 714 900 714 900 557 c 0,14,15
823 526 m 1,62,63
 785 534 785 534 736 541 c 0,64,65
 693 547 693 547 632.5 552 c 128,-1,66
 572 557 572 557 494 557 c 0,67,68
 400 557 400 557 330 549.5 c 128,-1,69
 260 542 260 542 213.5 516 c 128,-1,70
 167 490 167 490 144 440.5 c 128,-1,71
 121 391 121 391 121 306 c 0,72,73
 121 257 121 257 137 211 c 128,-1,74
 153 165 153 165 193.5 129 c 128,-1,75
 234 93 234 93 303 71 c 128,-1,76
 372 49 372 49 477 49 c 0,77,78
 573 49 573 49 639 72.5 c 128,-1,79
 705 96 705 96 746 151 c 128,-1,80
 787 206 787 206 805 297.5 c 128,-1,81
 823 389 823 389 823 526 c 1,62,63
EndSplineSet
EndChar

StartChar: thorn
Encoding: 254 254 196
Width: 1136
GlyphClass: 2
Flags: W
HStem: -337 21G<132.5 147.5> -10 59<387.137 822.072> 727 59<399.016 811.484>
VStem: 101 80<-330.296 78 125.85 1101.23> 994 80<193.917 577.125>
LayerCount: 2
Fore
SplineSet
631 786 m 0,0,1
 721 786 721 786 801.5 766 c 128,-1,2
 882 746 882 746 942.5 700 c 128,-1,3
 1003 654 1003 654 1038.5 579.5 c 128,-1,4
 1074 505 1074 505 1074 396 c 0,5,6
 1074 286 1074 286 1044.5 208.5 c 128,-1,7
 1015 131 1015 131 958.5 82.5 c 128,-1,8
 902 34 902 34 819.5 12 c 128,-1,9
 737 -10 737 -10 631 -10 c 0,10,11
 543 -10 543 -10 462.5 3.5 c 128,-1,12
 382 17 382 17 319 34 c 0,13,14
 245 53 245 53 181 78 c 1,15,-1
 179 -267 l 2,16,17
 179 -280 179 -280 178.5 -292.5 c 128,-1,18
 178 -305 178 -305 174 -315 c 128,-1,19
 170 -325 170 -325 162.5 -331 c 128,-1,20
 155 -337 155 -337 140 -337 c 256,21,22
 125 -337 125 -337 117.5 -330.5 c 128,-1,23
 110 -324 110 -324 106 -313.5 c 128,-1,24
 102 -303 102 -303 101.5 -289.5 c 128,-1,25
 101 -276 101 -276 101 -261 c 2,26,-1
 101 1061 l 2,27,28
 101 1093 101 1093 112.5 1101.5 c 128,-1,29
 124 1110 124 1110 138 1110 c 0,30,31
 155 1110 155 1110 165.5 1101.5 c 128,-1,32
 176 1093 176 1093 176 1061 c 2,33,-1
 176 594 l 1,34,35
 187 637 187 637 216 667.5 c 128,-1,36
 245 698 245 698 283.5 719.5 c 128,-1,37
 322 741 322 741 368.5 754 c 128,-1,38
 415 767 415 767 461.5 774 c 128,-1,39
 508 781 508 781 552 783.5 c 128,-1,40
 596 786 596 786 631 786 c 0,0,1
631 727 m 1,41,42
 571 726 571 726 500 717.5 c 128,-1,43
 429 709 429 709 364 687 c 128,-1,44
 299 665 299 665 249 626 c 128,-1,45
 199 587 199 587 181 524 c 1,46,-1
 181 140 l 1,47,48
 248 114 248 114 322 94 c 0,49,50
 385 77 385 77 465.5 63 c 128,-1,51
 546 49 546 49 631 49 c 0,52,53
 727 49 727 49 795.5 69 c 128,-1,54
 864 89 864 89 908.5 131.5 c 128,-1,55
 953 174 953 174 973.5 239.5 c 128,-1,56
 994 305 994 305 994 396 c 0,57,58
 994 490 994 490 965.5 554 c 128,-1,59
 937 618 937 618 888 656 c 128,-1,60
 839 694 839 694 772.5 710.5 c 128,-1,61
 706 727 706 727 631 727 c 1,41,42
EndSplineSet
EndChar

StartChar: Hbar
Encoding: 294 294 234
Width: 1318
GlyphClass: 2
Flags: W
HStem: 0 21G<172.5 191 1131.5 1146.5> 533 59<219 1096> 786 60<45.251 1278.75> 1094 20G<174.5 193 1130.5 1145.5>
VStem: 134 85<0.09375 533 592 1113.73> 1096 85<0.00585938 533 592 1113.99>
LayerCount: 2
Fore
SplineSet
1259 846 m 2,0,1
 1271 846 1271 846 1279 837 c 128,-1,2
 1287 828 1287 828 1287 816 c 256,3,4
 1287 804 1287 804 1279 795 c 128,-1,5
 1271 786 1271 786 1259 786 c 2,6,-1
 65 786 l 2,7,8
 53 786 53 786 45 795 c 128,-1,9
 37 804 37 804 37 816 c 256,10,11
 37 828 37 828 45 837 c 128,-1,12
 53 846 53 846 65 846 c 2,13,-1
 1259 846 l 2,0,1
134 1044 m 2,14,15
 134 1057 134 1057 135.5 1069.5 c 128,-1,16
 137 1082 137 1082 142.5 1092 c 128,-1,17
 148 1102 148 1102 157.5 1108 c 128,-1,18
 167 1114 167 1114 182 1114 c 0,19,20
 204 1114 204 1114 211.5 1091.5 c 128,-1,21
 219 1069 219 1069 219 1044 c 2,22,-1
 219 592 l 1,23,-1
 1096 592 l 1,24,-1
 1096 1044 l 2,25,26
 1096 1057 1096 1057 1097 1069.5 c 128,-1,27
 1098 1082 1098 1082 1102.5 1092 c 128,-1,28
 1107 1102 1107 1102 1115 1108 c 128,-1,29
 1123 1114 1123 1114 1138 1114 c 256,30,31
 1153 1114 1153 1114 1161.5 1108 c 128,-1,32
 1170 1102 1170 1102 1174.5 1092 c 128,-1,33
 1179 1082 1179 1082 1180 1069.5 c 128,-1,34
 1181 1057 1181 1057 1181 1044 c 2,35,-1
 1181 70 l 2,36,37
 1181 57 1181 57 1180 44.5 c 128,-1,38
 1179 32 1179 32 1174.5 22 c 128,-1,39
 1170 12 1170 12 1162 6 c 128,-1,40
 1154 0 1154 0 1139 0 c 256,41,42
 1124 0 1124 0 1115.5 6 c 128,-1,43
 1107 12 1107 12 1102.5 22 c 128,-1,44
 1098 32 1098 32 1097 44.5 c 128,-1,45
 1096 57 1096 57 1096 70 c 2,46,-1
 1096 533 l 1,47,-1
 219 533 l 1,48,-1
 219 70 l 2,49,50
 219 45 219 45 210.5 22.5 c 128,-1,51
 202 0 202 0 180 0 c 0,52,53
 165 0 165 0 155.5 6 c 128,-1,54
 146 12 146 12 141.5 22 c 128,-1,55
 137 32 137 32 135.5 44.5 c 128,-1,56
 134 57 134 57 134 70 c 2,57,-1
 134 1044 l 2,14,15
EndSplineSet
EndChar

StartChar: dotlessi
Encoding: 305 305 243
Width: 312
GlyphClass: 2
Flags: W
HStem: 0 21G<149 163.5> 755 20G<149 168.5>
VStem: 116 80<0.0012207 774.995>
LayerCount: 2
Fore
SplineSet
196 63 m 2,0,1
 196 50 196 50 195 38.5 c 128,-1,2
 194 27 194 27 190.5 18.5 c 128,-1,3
 187 10 187 10 179 5 c 128,-1,4
 171 0 171 0 156 0 c 0,5,6
 142 0 142 0 134 4.5 c 128,-1,7
 126 9 126 9 122 17 c 128,-1,8
 118 25 118 25 117 36.5 c 128,-1,9
 116 48 116 48 116 63 c 2,10,-1
 116 705 l 2,11,12
 116 720 116 720 117 732.5 c 128,-1,13
 118 745 118 745 122 754.5 c 128,-1,14
 126 764 126 764 134 769.5 c 128,-1,15
 142 775 142 775 156 775 c 0,16,17
 181 775 181 775 188.5 754 c 128,-1,18
 196 733 196 733 196 707 c 2,19,-1
 196 63 l 2,0,1
EndSplineSet
EndChar

StartChar: IJ
Encoding: 306 306 244
Width: 1855
GlyphClass: 2
Flags: W
HStem: -10 59<1248.72 1510.62> 0 66<81.2196 504 589 1011.81 1212.19 1371.03 1375.59 1541.19> 1048 66<81.2196 504 589 1011.81>
VStem: 504 85<66 1048> 1045 69<157.609 281.107> 1651 85<192.159 1092.86>
LayerCount: 2
Fore
SplineSet
1736 443 m 2,0,1
 1736 350 1736 350 1721.5 280.5 c 128,-1,2
 1707 211 1707 211 1681.5 160.5 c 128,-1,3
 1656 110 1656 110 1621.5 77 c 128,-1,4
 1587 44 1587 44 1546.5 24.5 c 128,-1,5
 1506 5 1506 5 1461.5 -2.5 c 128,-1,6
 1417 -10 1417 -10 1373 -10 c 0,7,8
 1310 -10 1310 -10 1251 10 c 128,-1,9
 1192 30 1192 30 1146.5 65 c 128,-1,10
 1101 100 1101 100 1073 146 c 128,-1,11
 1045 192 1045 192 1045 245 c 0,12,13
 1045 269 1045 269 1056 281.5 c 128,-1,14
 1067 294 1067 294 1081 294 c 0,15,16
 1094 294 1094 294 1104 282.5 c 128,-1,17
 1114 271 1114 271 1114 246 c 0,18,19
 1114 210 1114 210 1136 174.5 c 128,-1,20
 1158 139 1158 139 1194.5 111 c 128,-1,21
 1231 83 1231 83 1278 66 c 128,-1,22
 1325 49 1325 49 1374 49 c 0,23,24
 1425 49 1425 49 1475 63.5 c 128,-1,25
 1525 78 1525 78 1564 120.5 c 128,-1,26
 1603 163 1603 163 1627 240 c 128,-1,27
 1651 317 1651 317 1651 443 c 2,28,-1
 1651 1044 l 2,29,30
 1651 1073 1651 1073 1659 1093.5 c 128,-1,31
 1667 1114 1667 1114 1696 1114 c 0,32,33
 1709 1114 1709 1114 1717 1107.5 c 128,-1,34
 1725 1101 1725 1101 1729 1091 c 128,-1,35
 1733 1081 1733 1081 1734.5 1068.5 c 128,-1,36
 1736 1056 1736 1056 1736 1044 c 2,37,-1
 1736 443 l 2,0,1
504 1048 m 1,38,-1
 147 1048 l 2,39,40
 134 1048 134 1048 121 1048 c 128,-1,41
 108 1048 108 1048 97.5 1051 c 128,-1,42
 87 1054 87 1054 80.5 1060.5 c 128,-1,43
 74 1067 74 1067 74 1079 c 0,44,45
 74 1094 74 1094 81 1101 c 128,-1,46
 88 1108 88 1108 98.5 1111 c 128,-1,47
 109 1114 109 1114 122 1114 c 128,-1,48
 135 1114 135 1114 147 1114 c 2,49,-1
 946 1114 l 2,50,51
 961 1114 961 1114 974 1114 c 128,-1,52
 987 1114 987 1114 996.5 1111 c 128,-1,53
 1006 1108 1006 1108 1012 1101 c 128,-1,54
 1018 1094 1018 1094 1018 1081 c 256,55,56
 1018 1068 1018 1068 1012 1061 c 128,-1,57
 1006 1054 1006 1054 996.5 1051 c 128,-1,58
 987 1048 987 1048 974 1048 c 128,-1,59
 961 1048 961 1048 946 1048 c 2,60,-1
 589 1048 l 1,61,-1
 589 66 l 1,62,-1
 946 66 l 2,63,64
 961 66 961 66 974 66 c 128,-1,65
 987 66 987 66 996.5 63 c 128,-1,66
 1006 60 1006 60 1012 53 c 128,-1,67
 1018 46 1018 46 1018 33 c 256,68,69
 1018 20 1018 20 1012 13 c 128,-1,70
 1006 6 1006 6 996.5 3 c 128,-1,71
 987 0 987 0 974 0 c 128,-1,72
 961 0 961 0 946 0 c 2,73,-1
 147 0 l 2,74,75
 135 0 135 0 122 0 c 128,-1,76
 109 0 109 0 98.5 3 c 128,-1,77
 88 6 88 6 81 13 c 128,-1,78
 74 20 74 20 74 35 c 0,79,80
 74 47 74 47 80.5 53.5 c 128,-1,81
 87 60 87 60 97.5 63 c 128,-1,82
 108 66 108 66 121 66 c 128,-1,83
 134 66 134 66 147 66 c 2,84,-1
 504 66 l 1,85,-1
 504 1048 l 1,38,-1
EndSplineSet
EndChar

StartChar: jcircumflex
Encoding: 309 309 247
Width: 314
GlyphClass: 2
Flags: W
HStem: -266 69<-161.995 42.2598> 746 20G<145 165.5> 778 21G<-72 15.9266 252.073 340>
VStem: 117 80<-129.87 765.983>
LayerCount: 2
Fore
SplineSet
197 94 m 2,0,1
 197 59 197 59 195.5 19 c 128,-1,2
 194 -21 194 -21 185.5 -61 c 128,-1,3
 177 -101 177 -101 159 -138 c 128,-1,4
 141 -175 141 -175 108.5 -203.5 c 128,-1,5
 76 -232 76 -232 26 -249 c 128,-1,6
 -24 -266 -24 -266 -96 -266 c 0,7,8
 -109 -266 -109 -266 -121 -265.5 c 128,-1,9
 -133 -265 -133 -265 -142 -261.5 c 128,-1,10
 -151 -258 -151 -258 -156.5 -251 c 128,-1,11
 -162 -244 -162 -244 -162 -231 c 256,12,13
 -162 -218 -162 -218 -156.5 -211 c 128,-1,14
 -151 -204 -151 -204 -142 -201 c 128,-1,15
 -133 -198 -133 -198 -121 -197.5 c 128,-1,16
 -109 -197 -109 -197 -96 -197 c 0,17,18
 -13 -197 -13 -197 30.5 -171 c 128,-1,19
 74 -145 74 -145 93.5 -103.5 c 128,-1,20
 113 -62 113 -62 115 -10 c 128,-1,21
 117 42 117 42 117 94 c 2,22,-1
 117 705 l 2,23,24
 117 731 117 731 124.5 748.5 c 128,-1,25
 132 766 132 766 158 766 c 0,26,27
 173 766 173 766 180.5 761.5 c 128,-1,28
 188 757 188 757 192 748.5 c 128,-1,29
 196 740 196 740 196.5 729 c 128,-1,30
 197 718 197 718 197 705 c 2,31,-1
 197 94 l 2,0,1
4 778 m 1,32,-1
 -72 778 l 1,33,-1
 81 1013 l 2,34,35
 105 1051 105 1051 134 1051 c 0,36,37
 161 1051 161 1051 187 1013 c 1,38,-1
 340 778 l 1,39,-1
 264 778 l 1,40,-1
 134 996 l 1,41,-1
 4 778 l 1,32,-1
EndSplineSet
EndChar

StartChar: kgreenlandic
Encoding: 312 312 250
Width: 921
GlyphClass: 2
Flags: W
HStem: 0 21G<133.5 147> 757 20G<135.5 149 855.5 865.5>
VStem: 100 80<10.8312 318 385 766.685>
LayerCount: 2
Fore
SplineSet
872 61 m 2,0,1
 885 48 885 48 885 32 c 0,2,3
 885 19 885 19 876 10.5 c 128,-1,4
 867 2 867 2 853 2 c 0,5,6
 845 2 845 2 836 5.5 c 128,-1,7
 827 9 827 9 819 18 c 2,8,-1
 403 444 l 1,9,-1
 180 318 l 1,10,-1
 180 44 l 2,11,12
 180 21 180 21 167 10.5 c 128,-1,13
 154 0 154 0 140 0 c 0,14,15
 127 0 127 0 113.5 10.5 c 128,-1,16
 100 21 100 21 100 44 c 2,17,-1
 100 737 l 2,18,19
 100 757 100 757 114.5 767 c 128,-1,20
 129 777 129 777 142 777 c 0,21,22
 156 777 156 777 168 767 c 128,-1,23
 180 757 180 757 180 737 c 2,24,-1
 180 385 l 1,25,-1
 846 772 l 2,26,27
 852 775 852 775 859 775 c 0,28,29
 872 775 872 775 880 765 c 128,-1,30
 888 755 888 755 888 743 c 0,31,32
 888 727 888 727 872 720 c 1,33,-1
 464 473 l 1,34,-1
 872 61 l 2,0,1
EndSplineSet
EndChar

